{
.appVersion = "1119";
DisplayStrings = (
"\012OAGA UNFUG\012\012ABCDEFGHIJKLMNOPQRSTUVWXYZ\012UNFUG gemacht öäüÜÄÖ\012fuer das Leben\012abcdefghijklmenopqrstuvwxyz.t/emdash/endash ?!-\012Motherfking\012"
);
copyright = "Copyright © 2018 by Franz Mühringer. All rights reserved.";
date = "2018-01-12 17:36:00 +0000";
designer = "Franz Mühringer";
designerURL = firlefleisch.at;
familyName = "Oaga Unfug";
fontMaster = (
{
ascender = 800;
capHeight = 700;
descender = -200;
id = "7185A08A-2B1C-4BBD-ABBC-D0B58775A973";
xHeight = 500;
}
);
glyphs = (
{
glyphname = A;
lastChange = "2018-01-13 17:20:01 +0000";
layers = (
{
layerId = "7185A08A-2B1C-4BBD-ABBC-D0B58775A973";
paths = (
{
closed = 1;
nodes = (
"399 167 OFFCURVE",
"400 179 OFFCURVE",
"398 190 CURVE",
"398 193 OFFCURVE",
"387 200 OFFCURVE",
"386 199 CURVE",
"364 186 OFFCURVE",
"344 198 OFFCURVE",
"327 204 CURVE",
"288 217 OFFCURVE",
"249 230 OFFCURVE",
"210 242 CURVE",
"207 243 OFFCURVE",
"197 240 OFFCURVE",
"196 234 CURVE",
"174 183 OFFCURVE",
"156 130 OFFCURVE",
"132 78 CURVE",
"121 55 OFFCURVE",
"104 34 OFFCURVE",
"92 11 CURVE",
"87 4 OFFCURVE",
"85 -5 OFFCURVE",
"79 -10 CURVE",
"74 -16 OFFCURVE",
"64 -21 OFFCURVE",
"57 -25 CURVE",
"53 -19 OFFCURVE",
"50 -11 OFFCURVE",
"45 -5 CURVE",
"44 -4 OFFCURVE",
"45 -1 OFFCURVE",
"44 1 CURVE",
"16 36 OFFCURVE",
"36 66 OFFCURVE",
"52 98 CURVE",
"67 128 OFFCURVE",
"88 159 OFFCURVE",
"103 190 CURVE",
"116 215 OFFCURVE",
"122 243 OFFCURVE",
"130 269 CURVE",
"149 315 OFFCURVE",
"168 362 OFFCURVE",
"186 409 CURVE",
"216 479 OFFCURVE",
"245 549 OFFCURVE",
"277 618 CURVE",
"289 647 OFFCURVE",
"305 672 OFFCURVE",
"320 696 CURVE",
"324 700 OFFCURVE",
"341 702 OFFCURVE",
"345 698 CURVE",
"366 678 OFFCURVE",
"385 657 OFFCURVE",
"392 627 CURVE",
"403 582 OFFCURVE",
"422 537 OFFCURVE",
"434 491 CURVE",
"448 428 OFFCURVE",
"461 366 OFFCURVE",
"474 303 CURVE",
"482 268 OFFCURVE",
"492 232 OFFCURVE",
"493 197 CURVE",
"494 155 OFFCURVE",
"523 121 OFFCURVE",
"525 79 CURVE",
"526 59 OFFCURVE",
"529 37 OFFCURVE",
"526 15 CURVE",
"524 -2 OFFCURVE",
"497 -7 OFFCURVE",
"485 10 CURVE",
"464 40 OFFCURVE",
"446 73 OFFCURVE",
"426 104 CURVE",
"424 110 OFFCURVE",
"422 116 OFFCURVE",
"418 118 CURVE",
"399 123 OFFCURVE",
"394 137 OFFCURVE",
"399 155 CURVE"
);
},
{
closed = 1;
nodes = (
"392 399 OFFCURVE",
"391 402 OFFCURVE",
"391 407 CURVE",
"384 445 OFFCURVE",
"377 483 OFFCURVE",
"369 520 CURVE",
"363 546 OFFCURVE",
"354 570 OFFCURVE",
"345 595 CURVE",
"345 597 OFFCURVE",
"336 597 OFFCURVE",
"336 596 CURVE",
"328 581 OFFCURVE",
"320 563 OFFCURVE",
"315 545 CURVE",
"305 516 OFFCURVE",
"296 484 OFFCURVE",
"285 455 CURVE",
"267 403 OFFCURVE",
"247 353 OFFCURVE",
"228 303 CURVE",
"224 291 OFFCURVE",
"224 281 OFFCURVE",
"242 279 CURVE",
"272 277 OFFCURVE",
"302 275 OFFCURVE",
"333 274 CURVE",
"345 274 OFFCURVE",
"354 272 OFFCURVE",
"361 260 CURVE",
"364 254 OFFCURVE",
"378 254 OFFCURVE",
"387 251 CURVE",
"388 256 OFFCURVE",
"388 263 OFFCURVE",
"389 269 CURVE",
"392 279 OFFCURVE",
"391 293 OFFCURVE",
"398 300 CURVE",
"406 308 OFFCURVE",
"408 315 OFFCURVE",
"402 325 CURVE",
"397 336 OFFCURVE",
"388 348 OFFCURVE",
"386 360 CURVE",
"384 372 OFFCURVE",
"388 383 OFFCURVE",
"392 400 CURVE"
);
},
{
closed = 1;
nodes = (
"126 -19 OFFCURVE",
"115 -13 OFFCURVE",
"103 -8 CURVE",
"100 -7 OFFCURVE",
"98 -1 OFFCURVE",
"96 2 CURVE",
"100 4 OFFCURVE",
"104 6 OFFCURVE",
"109 6 CURVE",
"128 4 OFFCURVE",
"149 1 OFFCURVE",
"170 -1 CURVE",
"177 -1 OFFCURVE",
"184 0 OFFCURVE",
"192 1 CURVE",
"195 1 OFFCURVE",
"200 1 OFFCURVE",
"205 1 CURVE",
"201 -2 OFFCURVE",
"197 -8 OFFCURVE",
"193 -9 CURVE",
"175 -15 OFFCURVE",
"159 -19 OFFCURVE",
"138 -23 CURVE"
);
}
);
width = 557;
}
);
unicode = 0041;
},
{
glyphname = Adieresis;
lastChange = "2018-02-05 22:39:45 +0000";
layers = (
{
layerId = "7185A08A-2B1C-4BBD-ABBC-D0B58775A973";
paths = (
{
closed = 1;
nodes = (
"399 167 OFFCURVE",
"400 179 OFFCURVE",
"398 190 CURVE",
"398 193 OFFCURVE",
"387 200 OFFCURVE",
"386 199 CURVE",
"364 186 OFFCURVE",
"344 198 OFFCURVE",
"327 204 CURVE",
"288 217 OFFCURVE",
"249 230 OFFCURVE",
"210 242 CURVE",
"207 243 OFFCURVE",
"197 240 OFFCURVE",
"196 234 CURVE",
"174 183 OFFCURVE",
"156 130 OFFCURVE",
"132 78 CURVE",
"121 55 OFFCURVE",
"104 34 OFFCURVE",
"92 11 CURVE",
"87 4 OFFCURVE",
"85 -5 OFFCURVE",
"79 -10 CURVE",
"74 -16 OFFCURVE",
"64 -21 OFFCURVE",
"57 -25 CURVE",
"53 -19 OFFCURVE",
"50 -11 OFFCURVE",
"45 -5 CURVE",
"44 -4 OFFCURVE",
"45 -1 OFFCURVE",
"44 1 CURVE",
"16 36 OFFCURVE",
"36 66 OFFCURVE",
"52 98 CURVE",
"67 128 OFFCURVE",
"88 159 OFFCURVE",
"103 190 CURVE",
"116 215 OFFCURVE",
"122 243 OFFCURVE",
"130 269 CURVE",
"149 315 OFFCURVE",
"168 362 OFFCURVE",
"186 409 CURVE",
"216 479 OFFCURVE",
"245 549 OFFCURVE",
"277 618 CURVE",
"289 647 OFFCURVE",
"305 672 OFFCURVE",
"320 696 CURVE",
"324 700 OFFCURVE",
"341 702 OFFCURVE",
"345 698 CURVE",
"366 678 OFFCURVE",
"385 657 OFFCURVE",
"392 627 CURVE",
"403 582 OFFCURVE",
"422 537 OFFCURVE",
"434 491 CURVE",
"448 428 OFFCURVE",
"461 366 OFFCURVE",
"474 303 CURVE",
"482 268 OFFCURVE",
"492 232 OFFCURVE",
"493 197 CURVE",
"494 155 OFFCURVE",
"523 121 OFFCURVE",
"525 79 CURVE",
"526 59 OFFCURVE",
"529 37 OFFCURVE",
"526 15 CURVE",
"524 -2 OFFCURVE",
"497 -7 OFFCURVE",
"485 10 CURVE",
"464 40 OFFCURVE",
"446 73 OFFCURVE",
"426 104 CURVE",
"424 110 OFFCURVE",
"422 116 OFFCURVE",
"418 118 CURVE",
"399 123 OFFCURVE",
"394 137 OFFCURVE",
"399 155 CURVE"
);
},
{
closed = 1;
nodes = (
"392 399 OFFCURVE",
"391 402 OFFCURVE",
"391 407 CURVE",
"384 445 OFFCURVE",
"377 483 OFFCURVE",
"369 520 CURVE",
"363 546 OFFCURVE",
"354 570 OFFCURVE",
"345 595 CURVE",
"345 597 OFFCURVE",
"336 597 OFFCURVE",
"336 596 CURVE",
"328 581 OFFCURVE",
"320 563 OFFCURVE",
"315 545 CURVE",
"305 516 OFFCURVE",
"296 484 OFFCURVE",
"285 455 CURVE",
"267 403 OFFCURVE",
"247 353 OFFCURVE",
"228 303 CURVE",
"224 291 OFFCURVE",
"224 281 OFFCURVE",
"242 279 CURVE",
"272 277 OFFCURVE",
"302 275 OFFCURVE",
"333 274 CURVE",
"345 274 OFFCURVE",
"354 272 OFFCURVE",
"361 260 CURVE",
"364 254 OFFCURVE",
"378 254 OFFCURVE",
"387 251 CURVE",
"388 256 OFFCURVE",
"388 263 OFFCURVE",
"389 269 CURVE",
"392 279 OFFCURVE",
"391 293 OFFCURVE",
"398 300 CURVE",
"406 308 OFFCURVE",
"408 315 OFFCURVE",
"402 325 CURVE",
"397 336 OFFCURVE",
"388 348 OFFCURVE",
"386 360 CURVE",
"384 372 OFFCURVE",
"388 383 OFFCURVE",
"392 400 CURVE"
);
},
{
closed = 1;
nodes = (
"126 -19 OFFCURVE",
"115 -13 OFFCURVE",
"103 -8 CURVE",
"100 -7 OFFCURVE",
"98 -1 OFFCURVE",
"96 2 CURVE",
"100 4 OFFCURVE",
"104 6 OFFCURVE",
"109 6 CURVE",
"128 4 OFFCURVE",
"149 1 OFFCURVE",
"170 -1 CURVE",
"177 -1 OFFCURVE",
"184 0 OFFCURVE",
"192 1 CURVE",
"195 1 OFFCURVE",
"200 1 OFFCURVE",
"205 1 CURVE",
"201 -2 OFFCURVE",
"197 -8 OFFCURVE",
"193 -9 CURVE",
"175 -15 OFFCURVE",
"159 -19 OFFCURVE",
"138 -23 CURVE"
);
},
{
closed = 1;
nodes = (
"201 668 OFFCURVE",
"197 669 OFFCURVE",
"193 669 CURVE",
"195 682 OFFCURVE",
"175 691 OFFCURVE",
"179 698 CURVE",
"191 719 OFFCURVE",
"203 739 OFFCURVE",
"215 754 CURVE",
"219 760 OFFCURVE",
"254 758 OFFCURVE",
"263 760 CURVE",
"263 760 OFFCURVE",
"235 725 OFFCURVE",
"240 721 CURVE",
"231 683 OFFCURVE",
"237 674 OFFCURVE",
"205 669 CURVE"
);
},
{
closed = 1;
nodes = (
"427 671 OFFCURVE",
"421 674 OFFCURVE",
"417 674 CURVE",
"419 687 OFFCURVE",
"423 709 OFFCURVE",
"427 716 CURVE SMOOTH",
"439 737 OFFCURVE",
"448 733 OFFCURVE",
"460 748 CURVE",
"465 754 OFFCURVE",
"480 761 OFFCURVE",
"489 763 CURVE SMOOTH",
"489 763 OFFCURVE",
"494 751 OFFCURVE",
"494 751 CURVE",
"485 713 OFFCURVE",
"463 677 OFFCURVE",
"431 672 CURVE"
);
}
);
width = 557;
}
);
leftMetricsKey = "=A";
rightMetricsKey = "=A";
unicode = 00C4;
},
{
glyphname = B;
lastChange = "2018-02-05 22:19:38 +0000";
layers = (
{
layerId = "7185A08A-2B1C-4BBD-ABBC-D0B58775A973";
paths = (
{
closed = 1;
nodes = (
"108 10 OFFCURVE",
"109 15 OFFCURVE",
"109 24 CURVE",
"110 36 OFFCURVE",
"104 44 OFFCURVE",
"90 44 CURVE",
"86 46 OFFCURVE",
"79 53 OFFCURVE",
"81 56 CURVE",
"86 77 OFFCURVE",
"95 97 OFFCURVE",
"101 119 CURVE",
"104 130 OFFCURVE",
"108 143 OFFCURVE",
"108 154 CURVE",
"105 179 OFFCURVE",
"101 206 OFFCURVE",
"100 232 CURVE",
"100 254 OFFCURVE",
"99 276 OFFCURVE",
"104 297 CURVE",
"119 337 OFFCURVE",
"114 380 OFFCURVE",
"110 420 CURVE",
"104 477 OFFCURVE",
"96 534 OFFCURVE",
"75 587 CURVE",
"74 593 OFFCURVE",
"75 605 OFFCURVE",
"79 609 CURVE",
"96 617 OFFCURVE",
"90 630 OFFCURVE",
"93 645 CURVE",
"93 661 OFFCURVE",
"90 680 OFFCURVE",
"90 698 CURVE",
"90 705 OFFCURVE",
"96 711 OFFCURVE",
"99 716 CURVE",
"104 712 OFFCURVE",
"110 707 OFFCURVE",
"112 701 CURVE",
"119 682 OFFCURVE",
"144 679 OFFCURVE",
"160 692 CURVE",
"183 712 OFFCURVE",
"210 721 OFFCURVE",
"245 712 CURVE",
"250 711 OFFCURVE",
"256 711 OFFCURVE",
"261 712 CURVE",
"274 722 OFFCURVE",
"288 718 OFFCURVE",
"299 711 CURVE",
"329 693 OFFCURVE",
"359 675 OFFCURVE",
"386 656 CURVE",
"399 645 OFFCURVE",
"407 629 OFFCURVE",
"418 617 CURVE",
"430 605 OFFCURVE",
"445 596 OFFCURVE",
"457 586 CURVE",
"461 581 OFFCURVE",
"469 575 OFFCURVE",
"469 570 CURVE",
"469 539 OFFCURVE",
"469 510 OFFCURVE",
"461 482 CURVE",
"457 457 OFFCURVE",
"443 435 OFFCURVE",
"434 411 CURVE",
"430 400 OFFCURVE",
"425 386 OFFCURVE",
"418 376 CURVE",
"409 364 OFFCURVE",
"399 356 OFFCURVE",
"389 347 CURVE",
"376 339 OFFCURVE",
"376 333 OFFCURVE",
"391 329 CURVE",
"401 325 OFFCURVE",
"411 320 OFFCURVE",
"420 319 CURVE",
"446 312 OFFCURVE",
"452 297 OFFCURVE",
"443 270 CURVE",
"430 226 OFFCURVE",
"415 179 OFFCURVE",
"400 135 CURVE",
"395 121 OFFCURVE",
"394 103 OFFCURVE",
"385 92 CURVE",
"371 74 OFFCURVE",
"353 60 OFFCURVE",
"337 46 CURVE",
"320 33 OFFCURVE",
"295 24 OFFCURVE",
"288 7 CURVE",
"267 -36 OFFCURVE",
"233 -34 OFFCURVE",
"196 -27 CURVE",
"179 -24 OFFCURVE",
"160 -21 OFFCURVE",
"144 -19 CURVE",
"141 -19 OFFCURVE",
"139 -19 OFFCURVE",
"136 -20 CURVE",
"112 -27 OFFCURVE",
"108 -24 OFFCURVE",
"108 7 CURVE"
);
},
{
closed = 1;
nodes = (
"386 560 OFFCURVE",
"382 570 OFFCURVE",
"380 580 CURVE",
"368 609 OFFCURVE",
"345 626 OFFCURVE",
"320 641 CURVE",
"315 645 OFFCURVE",
"305 647 OFFCURVE",
"301 645 CURVE",
"252 620 OFFCURVE",
"209 651 OFFCURVE",
"165 660 CURVE",
"160 660 OFFCURVE",
"160 661 OFFCURVE",
"156 663 CURVE",
"154 660 OFFCURVE",
"154 656 OFFCURVE",
"154 652 CURVE",
"154 631 OFFCURVE",
"154 610 OFFCURVE",
"158 591 CURVE",
"160 553 OFFCURVE",
"165 516 OFFCURVE",
"194 489 CURVE",
"196 487 OFFCURVE",
"196 482 OFFCURVE",
"196 477 CURVE",
"194 452 OFFCURVE",
"189 426 OFFCURVE",
"186 400 CURVE",
"184 377 OFFCURVE",
"189 369 OFFCURVE",
"214 371 CURVE",
"231 372 OFFCURVE",
"246 380 OFFCURVE",
"264 382 CURVE",
"285 386 OFFCURVE",
"306 386 OFFCURVE",
"325 392 CURVE",
"341 398 OFFCURVE",
"360 409 OFFCURVE",
"364 420 CURVE",
"375 461 OFFCURVE",
"380 505 OFFCURVE",
"389 552 CURVE"
);
},
{
closed = 1;
nodes = (
"243 319 OFFCURVE",
"243 319 OFFCURVE",
"241 316 CURVE",
"220 316 OFFCURVE",
"220 316 OFFCURVE",
"206 289 CURVE",
"178 219 OFFCURVE",
"182 144 OFFCURVE",
"174 71 CURVE",
"174 65 OFFCURVE",
"175 57 OFFCURVE",
"175 51 CURVE",
"175 39 OFFCURVE",
"180 34 OFFCURVE",
"194 44 CURVE",
"235 69 OFFCURVE",
"279 91 OFFCURVE",
"320 116 CURVE",
"329 121 OFFCURVE",
"337 131 OFFCURVE",
"341 143 CURVE",
"351 170 OFFCURVE",
"359 196 OFFCURVE",
"369 222 CURVE",
"378 246 OFFCURVE",
"371 262 OFFCURVE",
"349 270 CURVE",
"337 275 OFFCURVE",
"328 283 OFFCURVE",
"316 289 CURVE",
"293 300 OFFCURVE",
"268 311 OFFCURVE",
"245 322 CURVE"
);
},
{
closed = 1;
nodes = (
"64 140 OFFCURVE",
"58 144 OFFCURVE",
"60 149 CURVE",
"60 153 OFFCURVE",
"65 161 OFFCURVE",
"69 158 CURVE",
"75 158 OFFCURVE",
"81 153 OFFCURVE",
"83 149 CURVE",
"83 145 OFFCURVE",
"76 140 OFFCURVE",
"70 134 CURVE"
);
}
);
width = 499;
}
);
unicode = 0042;
},
{
glyphname = C;
lastChange = "2018-02-05 22:14:13 +0000";
layers = (
{
layerId = "7185A08A-2B1C-4BBD-ABBC-D0B58775A973";
paths = (
{
closed = 1;
nodes = (
"249 -22 OFFCURVE",
"233 -25 OFFCURVE",
"214 -28 CURVE",
"190 -34 OFFCURVE",
"132 -22 OFFCURVE",
"110 -10 CURVE",
"103 -4 OFFCURVE",
"91 -7 OFFCURVE",
"82 -4 CURVE",
"73 2 OFFCURVE",
"63 5 OFFCURVE",
"57 14 CURVE",
"44 31 OFFCURVE",
"28 52 OFFCURVE",
"22 76 CURVE",
"9 117 OFFCURVE",
"4 162 OFFCURVE",
"19 203 CURVE",
"28 224 OFFCURVE",
"28 242 OFFCURVE",
"22 262 CURVE",
"13 280 OFFCURVE",
"16 301 OFFCURVE",
"19 319 CURVE",
"25 339 OFFCURVE",
"41 357 OFFCURVE",
"47 378 CURVE",
"57 404 OFFCURVE",
"66 434 OFFCURVE",
"76 461 CURVE",
"82 487 OFFCURVE",
"82 517 OFFCURVE",
"94 541 CURVE",
"103 573 OFFCURVE",
"161 603 OFFCURVE",
"177 632 CURVE",
"190 659 OFFCURVE",
"201 683 OFFCURVE",
"214 706 CURVE",
"227 730 OFFCURVE",
"252 739 OFFCURVE",
"277 739 CURVE",
"311 736 OFFCURVE",
"343 736 OFFCURVE",
"373 742 CURVE",
"399 745 OFFCURVE",
"430 730 OFFCURVE",
"436 706 CURVE",
"445 680 OFFCURVE",
"458 656 OFFCURVE",
"467 629 CURVE",
"470 623 OFFCURVE",
"470 612 OFFCURVE",
"467 609 CURVE",
"461 603 OFFCURVE",
"451 600 OFFCURVE",
"445 600 CURVE",
"408 594 OFFCURVE",
"392 623 OFFCURVE",
"367 638 CURVE",
"349 653 OFFCURVE",
"330 668 OFFCURVE",
"311 683 CURVE",
"292 694 OFFCURVE",
"252 683 OFFCURVE",
"243 662 CURVE",
"224 620 OFFCURVE",
"208 576 OFFCURVE",
"190 535 CURVE",
"183 520 OFFCURVE",
"177 502 OFFCURVE",
"171 487 CURVE",
"168 470 OFFCURVE",
"171 452 OFFCURVE",
"168 434 CURVE",
"164 422 OFFCURVE",
"158 410 OFFCURVE",
"152 396 CURVE",
"145 378 OFFCURVE",
"142 360 OFFCURVE",
"136 342 CURVE",
"133 330 OFFCURVE",
"133 319 OFFCURVE",
"130 307 CURVE",
"126 268 OFFCURVE",
"123 233 OFFCURVE",
"115 197 CURVE",
"105 159 OFFCURVE",
"126 129 OFFCURVE",
"133 97 CURVE",
"136 79 OFFCURVE",
"152 61 OFFCURVE",
"164 43 CURVE",
"164 43 OFFCURVE",
"171 40 OFFCURVE",
"171 40 CURVE",
"196 46 OFFCURVE",
"224 49 OFFCURVE",
"243 61 CURVE",
"268 76 OFFCURVE",
"292 82 OFFCURVE",
"321 76 CURVE",
"327 73 OFFCURVE",
"333 67 OFFCURVE",
"333 64 CURVE",
"336 46 OFFCURVE",
"340 29 OFFCURVE",
"336 14 CURVE",
"336 -7 OFFCURVE",
"321 -19 OFFCURVE",
"298 -19 CURVE",
"286 -19 OFFCURVE",
"277 -19 OFFCURVE",
"268 -19 CURVE",
"268 -19 OFFCURVE",
"268 -19 OFFCURVE",
"268 -19 CURVE"
);
}
);
width = 479;
}
);
rightMetricsKey = "=|";
unicode = 0043;
},
{
glyphname = D;
lastChange = "2018-02-05 22:19:10 +0000";
layers = (
{
layerId = "7185A08A-2B1C-4BBD-ABBC-D0B58775A973";
paths = (
{
closed = 1;
nodes = (
"375 530 OFFCURVE",
"381 505 OFFCURVE",
"381 486 CURVE",
"388 474 OFFCURVE",
"381 461 OFFCURVE",
"381 455 CURVE",
"381 436 OFFCURVE",
"381 417 OFFCURVE",
"388 398 CURVE",
"388 386 OFFCURVE",
"394 379 OFFCURVE",
"388 373 CURVE",
"388 323 OFFCURVE",
"388 279 OFFCURVE",
"381 235 CURVE",
"375 197 OFFCURVE",
"363 166 OFFCURVE",
"356 134 CURVE",
"356 122 OFFCURVE",
"350 115 OFFCURVE",
"350 109 CURVE",
"331 71 OFFCURVE",
"300 52 OFFCURVE",
"268 34 CURVE",
"243 21 OFFCURVE",
"224 15 OFFCURVE",
"199 8 CURVE",
"186 2 OFFCURVE",
"168 2 OFFCURVE",
"155 2 CURVE",
"136 2 OFFCURVE",
"111 -4 OFFCURVE",
"92 -4 CURVE",
"86 -4 OFFCURVE",
"73 2 OFFCURVE",
"73 8 CURVE",
"73 21 OFFCURVE",
"73 27 OFFCURVE",
"80 40 CURVE",
"92 84 OFFCURVE",
"80 134 OFFCURVE",
"73 178 CURVE",
"67 216 OFFCURVE",
"73 247 OFFCURVE",
"73 279 CURVE",
"73 329 OFFCURVE",
"80 373 OFFCURVE",
"80 423 CURVE",
"86 455 OFFCURVE",
"92 480 OFFCURVE",
"92 511 CURVE",
"98 543 OFFCURVE",
"98 581 OFFCURVE",
"98 612 CURVE",
"98 625 OFFCURVE",
"98 637 OFFCURVE",
"98 643 CURVE",
"105 675 OFFCURVE",
"124 706 OFFCURVE",
"155 713 CURVE",
"168 713 OFFCURVE",
"186 713 OFFCURVE",
"205 713 CURVE",
"230 713 OFFCURVE",
"262 725 OFFCURVE",
"287 694 CURVE",
"293 687 OFFCURVE",
"300 681 OFFCURVE",
"300 669 CURVE",
"312 643 OFFCURVE",
"325 631 OFFCURVE",
"344 618 CURVE",
"363 599 OFFCURVE",
"369 581 OFFCURVE",
"369 555 CURVE"
);
},
{
closed = 1;
nodes = (
"193 59 OFFCURVE",
"224 65 OFFCURVE",
"249 71 CURVE",
"256 78 OFFCURVE",
"262 78 OFFCURVE",
"262 84 CURVE",
"275 109 OFFCURVE",
"281 128 OFFCURVE",
"293 147 CURVE",
"300 172 OFFCURVE",
"300 197 OFFCURVE",
"312 216 CURVE",
"325 254 OFFCURVE",
"331 285 OFFCURVE",
"331 329 CURVE",
"325 367 OFFCURVE",
"319 405 OFFCURVE",
"331 449 CURVE",
"331 461 OFFCURVE",
"325 480 OFFCURVE",
"319 499 CURVE",
"312 518 OFFCURVE",
"306 537 OFFCURVE",
"293 555 CURVE",
"293 562 OFFCURVE",
"293 568 OFFCURVE",
"300 568 CURVE",
"300 568 OFFCURVE",
"306 568 OFFCURVE",
"306 562 CURVE",
"312 555 OFFCURVE",
"319 549 OFFCURVE",
"319 543 CURVE",
"319 543 OFFCURVE",
"325 537 OFFCURVE",
"325 537 CURVE",
"325 543 OFFCURVE",
"331 543 OFFCURVE",
"331 543 CURVE",
"325 555 OFFCURVE",
"319 568 OFFCURVE",
"312 574 CURVE",
"287 593 OFFCURVE",
"256 612 OFFCURVE",
"230 625 CURVE",
"224 631 OFFCURVE",
"218 637 OFFCURVE",
"205 643 CURVE",
"205 650 OFFCURVE",
"199 650 OFFCURVE",
"199 650 CURVE",
"193 650 OFFCURVE",
"193 643 OFFCURVE",
"193 637 CURVE",
"186 631 OFFCURVE",
"186 618 OFFCURVE",
"186 606 CURVE",
"180 568 OFFCURVE",
"174 537 OFFCURVE",
"174 499 CURVE",
"168 467 OFFCURVE",
"168 442 OFFCURVE",
"161 411 CURVE",
"155 379 OFFCURVE",
"142 348 OFFCURVE",
"130 317 CURVE",
"130 310 OFFCURVE",
"130 304 OFFCURVE",
"130 298 CURVE",
"136 266 OFFCURVE",
"142 241 OFFCURVE",
"142 216 CURVE",
"142 172 OFFCURVE",
"142 128 OFFCURVE",
"142 84 CURVE",
"142 59 OFFCURVE",
"142 52 OFFCURVE",
"174 52 CURVE"
);
},
{
closed = 1;
nodes = (
"268 687 OFFCURVE",
"262 687 OFFCURVE",
"262 687 CURVE",
"262 687 OFFCURVE",
"256 687 OFFCURVE",
"256 681 CURVE",
"256 681 OFFCURVE",
"256 675 OFFCURVE",
"262 675 CURVE",
"262 675 OFFCURVE",
"268 681 OFFCURVE",
"268 681 CURVE"
);
}
);
width = 441;
}
);
leftMetricsKey = "=I";
unicode = 0044;
},
{
glyphname = E;
lastChange = "2018-02-05 22:18:22 +0000";
layers = (
{
layerId = "7185A08A-2B1C-4BBD-ABBC-D0B58775A973";
paths = (
{
closed = 1;
nodes = (
"159 311 OFFCURVE",
"152 304 OFFCURVE",
"159 267 CURVE",
"164 210 OFFCURVE",
"178 148 OFFCURVE",
"164 86 CURVE",
"159 86 OFFCURVE",
"171 73 OFFCURVE",
"178 73 CURVE",
"228 61 OFFCURVE",
"283 54 OFFCURVE",
"340 47 CURVE",
"347 47 OFFCURVE",
"352 43 OFFCURVE",
"359 43 CURVE",
"366 36 OFFCURVE",
"372 29 OFFCURVE",
"372 22 CURVE",
"366 22 OFFCURVE",
"366 22 OFFCURVE",
"359 18 CURVE",
"359 18 OFFCURVE",
"352 18 OFFCURVE",
"352 18 CURVE",
"315 -14 OFFCURVE",
"272 -14 OFFCURVE",
"221 -1 CURVE",
"203 -1 OFFCURVE",
"189 4 OFFCURVE",
"171 4 CURVE",
"159 4 OFFCURVE",
"152 -1 OFFCURVE",
"139 -1 CURVE",
"134 -8 OFFCURVE",
"120 -8 OFFCURVE",
"116 -8 CURVE",
"109 -1 OFFCURVE",
"102 11 OFFCURVE",
"95 22 CURVE",
"84 73 OFFCURVE",
"102 123 OFFCURVE",
"109 173 CURVE",
"109 173 OFFCURVE",
"109 185 OFFCURVE",
"102 185 CURVE",
"91 192 OFFCURVE",
"91 206 OFFCURVE",
"91 217 CURVE",
"102 286 OFFCURVE",
"116 348 OFFCURVE",
"120 416 CURVE",
"120 416 OFFCURVE",
"127 423 OFFCURVE",
"127 430 CURVE",
"109 492 OFFCURVE",
"127 556 OFFCURVE",
"127 618 CURVE",
"127 629 OFFCURVE",
"120 636 OFFCURVE",
"120 650 CURVE",
"116 643 OFFCURVE",
"109 629 OFFCURVE",
"102 625 CURVE",
"95 611 OFFCURVE",
"91 604 OFFCURVE",
"84 593 CURVE",
"84 593 OFFCURVE",
"77 593 OFFCURVE",
"70 586 CURVE",
"70 593 OFFCURVE",
"70 593 OFFCURVE",
"70 600 CURVE",
"77 629 OFFCURVE",
"91 661 OFFCURVE",
"116 680 CURVE",
"120 687 OFFCURVE",
"139 687 OFFCURVE",
"152 694 CURVE",
"178 705 OFFCURVE",
"196 687 OFFCURVE",
"221 694 CURVE",
"258 698 OFFCURVE",
"301 694 OFFCURVE",
"340 698 CURVE",
"372 712 OFFCURVE",
"391 694 OFFCURVE",
"421 694 CURVE",
"427 698 OFFCURVE",
"434 687 OFFCURVE",
"441 680 CURVE",
"434 673 OFFCURVE",
"427 668 OFFCURVE",
"416 668 CURVE",
"402 661 OFFCURVE",
"391 661 OFFCURVE",
"372 655 CURVE",
"372 655 OFFCURVE",
"372 650 OFFCURVE",
"372 650 CURVE",
"384 643 OFFCURVE",
"395 636 OFFCURVE",
"402 629 CURVE",
"409 625 OFFCURVE",
"416 618 OFFCURVE",
"421 611 CURVE",
"416 604 OFFCURVE",
"409 604 OFFCURVE",
"402 600 CURVE",
"395 600 OFFCURVE",
"391 600 OFFCURVE",
"391 600 CURVE",
"377 579 OFFCURVE",
"359 586 OFFCURVE",
"347 593 CURVE",
"301 604 OFFCURVE",
"253 618 OFFCURVE",
"203 629 CURVE",
"189 636 OFFCURVE",
"178 636 OFFCURVE",
"178 611 CURVE",
"178 556 OFFCURVE",
"171 492 OFFCURVE",
"171 437 CURVE",
"171 393 OFFCURVE",
"164 393 OFFCURVE",
"214 393 CURVE",
"233 393 OFFCURVE",
"258 387 OFFCURVE",
"279 387 CURVE",
"283 380 OFFCURVE",
"283 380 OFFCURVE",
"290 373 CURVE",
"297 373 OFFCURVE",
"301 368 OFFCURVE",
"315 368 CURVE",
"315 361 OFFCURVE",
"322 361 OFFCURVE",
"322 361 CURVE",
"322 361 OFFCURVE",
"322 354 OFFCURVE",
"315 354 CURVE",
"308 348 OFFCURVE",
"301 348 OFFCURVE",
"297 343 CURVE",
"290 336 OFFCURVE",
"283 329 OFFCURVE",
"279 325 CURVE",
"272 325 OFFCURVE",
"265 318 OFFCURVE",
"258 311 CURVE",
"240 311 OFFCURVE",
"214 311 OFFCURVE",
"203 304 CURVE"
);
}
);
width = 511;
}
);
rightMetricsKey = "=|";
unicode = 0045;
},
{
glyphname = F;
lastChange = "2018-02-05 22:17:58 +0000";
layers = (
{
layerId = "7185A08A-2B1C-4BBD-ABBC-D0B58775A973";
paths = (
{
closed = 1;
nodes = (
"415 672 OFFCURVE",
"403 672 OFFCURVE",
"389 684 CURVE",
"328 698 OFFCURVE",
"276 722 OFFCURVE",
"213 722 CURVE",
"189 722 OFFCURVE",
"151 736 OFFCURVE",
"126 722 CURVE",
"100 722 OFFCURVE",
"88 736 OFFCURVE",
"74 748 CURVE",
"74 748 OFFCURVE",
"74 748 OFFCURVE",
"62 748 CURVE",
"62 748 OFFCURVE",
"62 736 OFFCURVE",
"62 736 CURVE",
"62 736 OFFCURVE",
"50 736 OFFCURVE",
"50 736 CURVE",
"50 722 OFFCURVE",
"50 722 OFFCURVE",
"50 722 CURVE",
"62 710 OFFCURVE",
"62 698 OFFCURVE",
"62 684 CURVE",
"62 660 OFFCURVE",
"50 623 OFFCURVE",
"62 597 CURVE",
"62 585 OFFCURVE",
"62 585 OFFCURVE",
"62 571 CURVE",
"62 571 OFFCURVE",
"50 559 OFFCURVE",
"62 546 CURVE",
"62 470 OFFCURVE",
"74 409 OFFCURVE",
"88 332 CURVE",
"88 320 OFFCURVE",
"88 308 OFFCURVE",
"88 294 CURVE",
"88 256 OFFCURVE",
"88 232 OFFCURVE",
"100 193 CURVE",
"100 181 OFFCURVE",
"100 169 OFFCURVE",
"100 155 CURVE",
"113 118 OFFCURVE",
"113 80 OFFCURVE",
"126 56 CURVE",
"126 42 OFFCURVE",
"126 30 OFFCURVE",
"126 30 CURVE",
"138 17 OFFCURVE",
"163 -7 OFFCURVE",
"189 -7 CURVE",
"175 80 OFFCURVE",
"189 42 OFFCURVE",
"201 5 CURVE",
"213 17 OFFCURVE",
"227 42 OFFCURVE",
"227 68 CURVE",
"213 94 OFFCURVE",
"213 118 OFFCURVE",
"213 143 CURVE",
"201 181 OFFCURVE",
"201 207 OFFCURVE",
"201 244 CURVE",
"189 270 OFFCURVE",
"189 308 OFFCURVE",
"175 345 CURVE",
"175 357 OFFCURVE",
"175 369 OFFCURVE",
"175 383 CURVE",
"201 395 OFFCURVE",
"239 395 OFFCURVE",
"264 409 CURVE",
"276 409 OFFCURVE",
"290 409 OFFCURVE",
"290 409 CURVE",
"314 421 OFFCURVE",
"328 433 OFFCURVE",
"314 458 CURVE",
"264 458 OFFCURVE",
"201 458 OFFCURVE",
"151 458 CURVE",
"138 522 OFFCURVE",
"126 585 OFFCURVE",
"126 660 CURVE",
"138 660 OFFCURVE",
"163 647 OFFCURVE",
"175 647 CURVE",
"227 660 OFFCURVE",
"264 647 OFFCURVE",
"314 647 CURVE",
"340 647 OFFCURVE",
"377 635 OFFCURVE",
"403 647 CURVE",
"427 647 OFFCURVE",
"427 660 OFFCURVE",
"427 672 CURVE"
);
},
{
closed = 1;
nodes = (
"251 294 OFFCURVE",
"251 308 OFFCURVE",
"251 308 CURVE",
"239 308 OFFCURVE",
"239 308 OFFCURVE",
"239 308 CURVE",
"251 308 OFFCURVE",
"251 294 OFFCURVE",
"251 294 CURVE",
"251 294 OFFCURVE",
"251 294 OFFCURVE",
"251 294 CURVE"
);
},
{
closed = 1;
nodes = (
"251 270 OFFCURVE",
"251 256 OFFCURVE",
"264 256 CURVE",
"264 256 OFFCURVE",
"264 256 OFFCURVE",
"264 256 CURVE",
"264 270 OFFCURVE",
"251 270 OFFCURVE",
"251 282 CURVE",
"251 282 OFFCURVE",
"251 282 OFFCURVE",
"251 270 CURVE"
);
}
);
width = 467;
}
);
unicode = 0046;
},
{
glyphname = G;
lastChange = "2018-01-13 17:24:48 +0000";
layers = (
{
layerId = "7185A08A-2B1C-4BBD-ABBC-D0B58775A973";
paths = (
{
closed = 1;
nodes = (
"66 744 OFFCURVE",
"66 744 OFFCURVE",
"66 744 CURVE",
"66 744 OFFCURVE",
"66 744 OFFCURVE",
"66 756 CURVE",
"66 756 OFFCURVE",
"66 756 OFFCURVE",
"66 756 CURVE",
"66 756 OFFCURVE",
"66 756 OFFCURVE",
"66 756 CURVE",
"66 756 OFFCURVE",
"66 756 OFFCURVE",
"66 756 CURVE",
"66 756 OFFCURVE",
"66 756 OFFCURVE",
"66 756 CURVE",
"66 756 OFFCURVE",
"66 756 OFFCURVE",
"66 756 CURVE",
"66 756 OFFCURVE",
"66 756 OFFCURVE",
"66 756 CURVE",
"66 756 OFFCURVE",
"66 699 OFFCURVE",
"66 699 CURVE",
"81 699 OFFCURVE",
"81 721 OFFCURVE",
"81 744 CURVE",
"81 744 OFFCURVE",
"66 744 OFFCURVE",
"66 744 CURVE",
"66 744 OFFCURVE",
"66 744 OFFCURVE",
"66 744 CURVE"
);
},
{
closed = 1;
nodes = (
"66 756 OFFCURVE",
"66 756 OFFCURVE",
"66 756 CURVE",
"66 756 OFFCURVE",
"66 756 OFFCURVE",
"66 756 CURVE"
);
},
{
closed = 1;
nodes = (
"520 293 OFFCURVE",
"535 305 OFFCURVE",
"520 327 CURVE",
"520 339 OFFCURVE",
"520 351 OFFCURVE",
"506 351 CURVE",
"479 374 OFFCURVE",
"435 386 OFFCURVE",
"394 386 CURVE",
"394 386 OFFCURVE",
"394 398 OFFCURVE",
"394 398 CURVE",
"379 398 OFFCURVE",
"350 398 OFFCURVE",
"336 398 CURVE",
"307 374 OFFCURVE",
"294 362 OFFCURVE",
"265 339 CURVE",
"294 327 OFFCURVE",
"294 327 OFFCURVE",
"336 339 CURVE",
"336 327 OFFCURVE",
"350 339 OFFCURVE",
"350 339 CURVE",
"379 339 OFFCURVE",
"407 327 OFFCURVE",
"407 305 CURVE",
"394 269 OFFCURVE",
"394 235 OFFCURVE",
"394 200 CURVE",
"394 200 OFFCURVE",
"394 188 OFFCURVE",
"394 188 CURVE",
"379 154 OFFCURVE",
"365 107 OFFCURVE",
"336 73 CURVE",
"322 50 OFFCURVE",
"322 50 OFFCURVE",
"280 61 CURVE",
"265 73 OFFCURVE",
"251 85 OFFCURVE",
"237 95 CURVE",
"208 119 OFFCURVE",
"195 131 OFFCURVE",
"166 154 CURVE",
"166 177 OFFCURVE",
"152 200 OFFCURVE",
"137 224 CURVE",
"137 235 OFFCURVE",
"137 258 OFFCURVE",
"123 281 CURVE",
"123 317 OFFCURVE",
"110 362 OFFCURVE",
"110 408 CURVE",
"110 408 OFFCURVE",
"110 420 OFFCURVE",
"110 420 CURVE",
"110 444 OFFCURVE",
"123 455 OFFCURVE",
"123 467 CURVE",
"123 479 OFFCURVE",
"137 489 OFFCURVE",
"137 501 CURVE",
"152 525 OFFCURVE",
"180 536 OFFCURVE",
"195 559 CURVE",
"208 570 OFFCURVE",
"222 582 OFFCURVE",
"237 594 CURVE",
"280 594 OFFCURVE",
"280 594 OFFCURVE",
"294 570 CURVE",
"307 548 OFFCURVE",
"336 525 OFFCURVE",
"365 501 CURVE",
"379 489 OFFCURVE",
"394 489 OFFCURVE",
"407 479 CURVE",
"407 467 OFFCURVE",
"421 479 OFFCURVE",
"435 479 CURVE",
"435 489 OFFCURVE",
"435 501 OFFCURVE",
"435 513 CURVE",
"421 513 OFFCURVE",
"421 525 OFFCURVE",
"407 536 CURVE",
"379 559 OFFCURVE",
"365 582 OFFCURVE",
"350 618 CURVE",
"350 618 OFFCURVE",
"350 629 OFFCURVE",
"350 629 CURVE",
"322 652 OFFCURVE",
"294 663 OFFCURVE",
"265 687 CURVE",
"265 687 OFFCURVE",
"251 687 OFFCURVE",
"251 699 CURVE",
"237 699 OFFCURVE",
"152 744 OFFCURVE",
"137 744 CURVE",
"110 756 OFFCURVE",
"166 710 OFFCURVE",
"152 699 CURVE",
"152 687 OFFCURVE",
"152 687 OFFCURVE",
"152 687 CURVE",
"152 687 OFFCURVE",
"137 687 OFFCURVE",
"137 687 CURVE",
"137 687 OFFCURVE",
"137 687 OFFCURVE",
"137 687 CURVE",
"137 699 OFFCURVE",
"137 699 OFFCURVE",
"137 699 CURVE",
"137 710 OFFCURVE",
"81 744 OFFCURVE",
"81 744 CURVE",
"81 744 OFFCURVE",
"81 744 OFFCURVE",
"81 756 CURVE",
"81 756 OFFCURVE",
"81 744 OFFCURVE",
"81 744 CURVE",
"95 733 OFFCURVE",
"123 710 OFFCURVE",
"123 699 CURVE",
"123 699 OFFCURVE",
"123 699 OFFCURVE",
"123 687 CURVE",
"123 687 OFFCURVE",
"123 687 OFFCURVE",
"123 675 CURVE",
"123 675 OFFCURVE",
"137 687 OFFCURVE",
"137 675 CURVE",
"137 675 OFFCURVE",
"137 675 OFFCURVE",
"137 675 CURVE",
"137 675 OFFCURVE",
"137 675 OFFCURVE",
"137 675 CURVE",
"123 640 OFFCURVE",
"95 606 OFFCURVE",
"81 570 CURVE",
"81 570 OFFCURVE",
"81 559 OFFCURVE",
"66 559 CURVE",
"52 548 OFFCURVE",
"38 536 OFFCURVE",
"38 513 CURVE",
"23 489 OFFCURVE",
"-4 479 OFFCURVE",
"23 455 CURVE",
"23 455 OFFCURVE",
"23 444 OFFCURVE",
"23 444 CURVE",
"23 420 OFFCURVE",
"23 386 OFFCURVE",
"23 362 CURVE",
"38 317 OFFCURVE",
"38 269 OFFCURVE",
"66 224 CURVE",
"66 200 OFFCURVE",
"81 177 OFFCURVE",
"95 166 CURVE",
"95 154 OFFCURVE",
"95 143 OFFCURVE",
"95 143 CURVE",
"95 131 OFFCURVE",
"110 131 OFFCURVE",
"110 131 CURVE",
"123 119 OFFCURVE",
"123 107 OFFCURVE",
"123 95 CURVE",
"152 73 OFFCURVE",
"180 38 OFFCURVE",
"222 26 CURVE",
"251 4 OFFCURVE",
"280 -8 OFFCURVE",
"307 -8 CURVE",
"336 -8 OFFCURVE",
"365 -8 OFFCURVE",
"379 4 CURVE",
"407 4 OFFCURVE",
"421 14 OFFCURVE",
"435 26 CURVE",
"450 50 OFFCURVE",
"464 85 OFFCURVE",
"479 107 CURVE",
"492 119 OFFCURVE",
"492 119 OFFCURVE",
"492 131 CURVE",
"506 154 OFFCURVE",
"520 188 OFFCURVE",
"520 212 CURVE",
"535 224 OFFCURVE",
"535 235 OFFCURVE",
"520 246 CURVE",
"520 258 OFFCURVE",
"520 269 OFFCURVE",
"520 269 CURVE"
);
},
{
closed = 1;
nodes = (
"564 756 OFFCURVE",
"564 756 OFFCURVE",
"549 756 CURVE",
"564 756 OFFCURVE",
"578 756 OFFCURVE",
"591 756 CURVE"
);
}
);
width = 530;
}
);
unicode = 0047;
},
{
glyphname = H;
lastChange = "2018-02-05 22:18:09 +0000";
layers = (
{
layerId = "7185A08A-2B1C-4BBD-ABBC-D0B58775A973";
paths = (
{
closed = 1;
nodes = (
"98 85 OFFCURVE",
"98 128 OFFCURVE",
"93 165 CURVE",
"93 170 OFFCURVE",
"93 175 OFFCURVE",
"87 175 CURVE",
"72 180 OFFCURVE",
"66 192 OFFCURVE",
"72 202 CURVE",
"77 233 OFFCURVE",
"82 261 OFFCURVE",
"87 292 CURVE",
"87 302 OFFCURVE",
"87 313 OFFCURVE",
"87 323 CURVE",
"87 333 OFFCURVE",
"82 349 OFFCURVE",
"87 365 CURVE",
"93 418 OFFCURVE",
"98 471 OFFCURVE",
"103 523 CURVE",
"108 566 OFFCURVE",
"103 613 OFFCURVE",
"93 655 CURVE",
"93 661 OFFCURVE",
"93 666 OFFCURVE",
"98 671 CURVE",
"103 671 OFFCURVE",
"121 671 OFFCURVE",
"126 666 CURVE",
"132 661 OFFCURVE",
"137 666 OFFCURVE",
"137 676 CURVE",
"142 687 OFFCURVE",
"142 702 OFFCURVE",
"148 714 CURVE",
"153 719 OFFCURVE",
"164 724 OFFCURVE",
"169 719 CURVE",
"174 719 OFFCURVE",
"179 708 OFFCURVE",
"179 697 CURVE",
"179 671 OFFCURVE",
"169 644 OFFCURVE",
"174 613 CURVE",
"179 592 OFFCURVE",
"174 571 OFFCURVE",
"174 550 CURVE",
"169 535 OFFCURVE",
"169 513 OFFCURVE",
"169 492 CURVE",
"169 492 OFFCURVE",
"169 487 OFFCURVE",
"174 481 CURVE",
"190 461 OFFCURVE",
"179 433 OFFCURVE",
"174 407 CURVE",
"174 392 OFFCURVE",
"174 392 OFFCURVE",
"190 392 CURVE",
"221 392 OFFCURVE",
"252 392 OFFCURVE",
"290 392 CURVE",
"311 392 OFFCURVE",
"333 392 OFFCURVE",
"354 387 CURVE",
"369 387 OFFCURVE",
"374 387 OFFCURVE",
"380 402 CURVE",
"380 418 OFFCURVE",
"380 439 OFFCURVE",
"380 455 CURVE",
"369 497 OFFCURVE",
"374 535 OFFCURVE",
"380 576 CURVE",
"380 597 OFFCURVE",
"380 618 OFFCURVE",
"380 644 CURVE",
"385 655 OFFCURVE",
"390 666 OFFCURVE",
"395 676 CURVE",
"400 692 OFFCURVE",
"406 702 OFFCURVE",
"406 719 CURVE",
"411 735 OFFCURVE",
"411 740 OFFCURVE",
"426 740 CURVE",
"443 740 OFFCURVE",
"454 735 OFFCURVE",
"454 719 CURVE",
"454 697 OFFCURVE",
"448 676 OFFCURVE",
"448 655 CURVE",
"448 628 OFFCURVE",
"443 597 OFFCURVE",
"443 571 CURVE",
"443 540 OFFCURVE",
"437 513 OFFCURVE",
"437 481 CURVE",
"437 471 OFFCURVE",
"437 455 OFFCURVE",
"437 444 CURVE",
"437 439 OFFCURVE",
"437 433 OFFCURVE",
"443 433 CURVE",
"459 423 OFFCURVE",
"459 413 OFFCURVE",
"454 397 CURVE",
"454 380 OFFCURVE",
"448 360 OFFCURVE",
"454 339 CURVE",
"454 323 OFFCURVE",
"454 313 OFFCURVE",
"454 297 CURVE",
"454 261 OFFCURVE",
"454 218 OFFCURVE",
"454 180 CURVE",
"454 154 OFFCURVE",
"459 123 OFFCURVE",
"459 96 CURVE",
"459 91 OFFCURVE",
"454 80 OFFCURVE",
"448 75 CURVE",
"437 70 OFFCURVE",
"432 65 OFFCURVE",
"432 49 CURVE",
"437 44 OFFCURVE",
"432 39 OFFCURVE",
"426 33 CURVE",
"426 28 OFFCURVE",
"416 23 OFFCURVE",
"416 23 CURVE",
"411 28 OFFCURVE",
"406 33 OFFCURVE",
"406 39 CURVE",
"400 113 OFFCURVE",
"395 192 OFFCURVE",
"390 266 CURVE",
"390 287 OFFCURVE",
"395 302 OFFCURVE",
"400 318 CURVE",
"406 344 OFFCURVE",
"395 354 OFFCURVE",
"369 349 CURVE",
"348 349 OFFCURVE",
"326 339 OFFCURVE",
"311 328 CURVE",
"306 323 OFFCURVE",
"295 323 OFFCURVE",
"290 323 CURVE",
"252 323 OFFCURVE",
"216 318 OFFCURVE",
"174 318 CURVE",
"174 318 OFFCURVE",
"169 307 OFFCURVE",
"169 302 CURVE",
"169 271 OFFCURVE",
"169 239 OFFCURVE",
"169 207 CURVE",
"169 175 OFFCURVE",
"174 149 OFFCURVE",
"174 118 CURVE",
"174 101 OFFCURVE",
"174 85 OFFCURVE",
"169 75 CURVE",
"169 70 OFFCURVE",
"169 70 OFFCURVE",
"169 65 CURVE",
"179 49 OFFCURVE",
"169 33 OFFCURVE",
"159 18 CURVE",
"148 7 OFFCURVE",
"119 2 OFFCURVE",
"103 -3 CURVE",
"103 -3 OFFCURVE",
"93 2 OFFCURVE",
"93 7 CURVE",
"93 23 OFFCURVE",
"93 33 OFFCURVE",
"93 44 CURVE",
"93 44 OFFCURVE",
"93 44 OFFCURVE",
"98 44 CURVE"
);
}
);
width = 529;
}
);
rightMetricsKey = "=|";
unicode = 0048;
},
{
glyphname = I;
lastChange = "2018-02-05 22:18:31 +0000";
layers = (
{
layerId = "7185A08A-2B1C-4BBD-ABBC-D0B58775A973";
paths = (
{
closed = 1;
nodes = (
"121 679 OFFCURVE",
"121 705 OFFCURVE",
"147 716 CURVE",
"152 716 OFFCURVE",
"158 722 OFFCURVE",
"163 716 CURVE",
"169 716 OFFCURVE",
"169 705 OFFCURVE",
"169 700 CURVE",
"173 651 OFFCURVE",
"158 599 OFFCURVE",
"163 550 CURVE",
"173 481 OFFCURVE",
"152 422 OFFCURVE",
"141 357 CURVE",
"141 326 OFFCURVE",
"141 299 OFFCURVE",
"141 268 CURVE",
"141 251 OFFCURVE",
"141 230 OFFCURVE",
"141 208 CURVE",
"141 192 OFFCURVE",
"141 177 OFFCURVE",
"147 160 CURVE",
"147 149 OFFCURVE",
"141 139 OFFCURVE",
"141 128 CURVE",
"141 106 OFFCURVE",
"141 86 OFFCURVE",
"141 65 CURVE",
"141 59 OFFCURVE",
"136 48 OFFCURVE",
"130 48 CURVE",
"121 43 OFFCURVE",
"115 37 OFFCURVE",
"115 26 CURVE",
"110 16 OFFCURVE",
"110 5 OFFCURVE",
"93 5 CURVE",
"83 11 OFFCURVE",
"78 22 OFFCURVE",
"78 32 CURVE",
"78 43 OFFCURVE",
"72 54 OFFCURVE",
"72 59 CURVE",
"67 75 OFFCURVE",
"72 91 OFFCURVE",
"72 102 CURVE",
"72 128 OFFCURVE",
"72 160 OFFCURVE",
"72 188 CURVE",
"72 188 OFFCURVE",
"72 192 OFFCURVE",
"72 192 CURVE",
"83 235 OFFCURVE",
"83 277 OFFCURVE",
"83 320 CURVE",
"88 353 OFFCURVE",
"83 379 OFFCURVE",
"83 406 CURVE",
"83 422 OFFCURVE",
"83 433 OFFCURVE",
"99 439 CURVE",
"104 439 OFFCURVE",
"104 448 OFFCURVE",
"104 454 CURVE",
"110 491 OFFCURVE",
"110 524 OFFCURVE",
"110 561 CURVE",
"115 593 OFFCURVE",
"115 625 OFFCURVE",
"121 657 CURVE"
);
}
);
width = 240;
}
);
leftMetricsKey = "=E";
rightMetricsKey = "=|";
unicode = 0049;
},
{
glyphname = J;
lastChange = "2018-02-05 22:18:36 +0000";
layers = (
{
layerId = "7185A08A-2B1C-4BBD-ABBC-D0B58775A973";
paths = (
{
closed = 1;
nodes = (
"261 280 OFFCURVE",
"261 313 OFFCURVE",
"261 345 CURVE",
"261 351 OFFCURVE",
"261 356 OFFCURVE",
"267 356 CURVE",
"289 367 OFFCURVE",
"283 389 OFFCURVE",
"278 406 CURVE",
"267 460 OFFCURVE",
"272 521 OFFCURVE",
"278 575 CURVE",
"283 608 OFFCURVE",
"289 641 OFFCURVE",
"294 674 CURVE",
"294 679 OFFCURVE",
"294 690 OFFCURVE",
"300 696 CURVE",
"305 701 OFFCURVE",
"311 701 OFFCURVE",
"316 701 CURVE",
"322 701 OFFCURVE",
"327 696 OFFCURVE",
"327 690 CURVE",
"327 674 OFFCURVE",
"338 668 OFFCURVE",
"355 668 CURVE",
"366 668 OFFCURVE",
"366 663 OFFCURVE",
"366 652 CURVE",
"355 592 OFFCURVE",
"338 526 OFFCURVE",
"333 460 CURVE",
"327 428 OFFCURVE",
"327 395 OFFCURVE",
"322 362 CURVE",
"322 313 OFFCURVE",
"316 263 OFFCURVE",
"305 220 CURVE",
"294 165 OFFCURVE",
"283 115 OFFCURVE",
"272 61 CURVE",
"267 55 OFFCURVE",
"256 50 OFFCURVE",
"251 44 CURVE",
"251 44 OFFCURVE",
"245 44 OFFCURVE",
"245 39 CURVE",
"229 17 OFFCURVE",
"201 1 OFFCURVE",
"179 -10 CURVE",
"168 -16 OFFCURVE",
"157 -21 OFFCURVE",
"152 -21 CURVE",
"125 -21 OFFCURVE",
"103 -21 OFFCURVE",
"81 -16 CURVE",
"75 -16 OFFCURVE",
"64 -10 OFFCURVE",
"59 -5 CURVE",
"37 22 OFFCURVE",
"15 50 OFFCURVE",
"10 88 CURVE",
"10 94 OFFCURVE",
"10 99 OFFCURVE",
"15 99 CURVE",
"21 105 OFFCURVE",
"26 99 OFFCURVE",
"32 99 CURVE",
"37 99 OFFCURVE",
"42 94 OFFCURVE",
"48 99 CURVE",
"59 105 OFFCURVE",
"64 99 OFFCURVE",
"70 88 CURVE",
"81 72 OFFCURVE",
"86 61 OFFCURVE",
"97 50 CURVE",
"119 33 OFFCURVE",
"141 33 OFFCURVE",
"157 55 CURVE",
"163 61 OFFCURVE",
"179 66 OFFCURVE",
"185 66 CURVE",
"212 72 OFFCURVE",
"223 88 OFFCURVE",
"229 110 CURVE",
"240 137 OFFCURVE",
"245 165 OFFCURVE",
"251 192 CURVE",
"256 209 OFFCURVE",
"261 230 OFFCURVE",
"267 247 CURVE",
"261 247 OFFCURVE",
"261 247 OFFCURVE",
"261 247 CURVE"
);
}
);
width = 426;
}
);
unicode = 004A;
},
{
glyphname = K;
lastChange = "2018-02-05 22:17:45 +0000";
layers = (
{
layerId = "7185A08A-2B1C-4BBD-ABBC-D0B58775A973";
paths = (
{
closed = 1;
nodes = (
"141 649 OFFCURVE",
"141 638 OFFCURVE",
"141 627 CURVE",
"158 582 OFFCURVE",
"152 531 OFFCURVE",
"152 479 CURVE",
"152 473 OFFCURVE",
"158 468 OFFCURVE",
"158 462 CURVE",
"158 451 OFFCURVE",
"163 445 OFFCURVE",
"163 439 CURVE",
"146 411 OFFCURVE",
"158 382 OFFCURVE",
"158 354 CURVE",
"163 354 OFFCURVE",
"163 354 OFFCURVE",
"169 354 CURVE",
"175 365 OFFCURVE",
"181 382 OFFCURVE",
"186 394 CURVE",
"198 433 OFFCURVE",
"215 468 OFFCURVE",
"232 508 CURVE",
"232 519 OFFCURVE",
"243 525 OFFCURVE",
"249 531 CURVE",
"249 536 OFFCURVE",
"255 542 OFFCURVE",
"255 553 CURVE",
"261 571 OFFCURVE",
"266 588 OFFCURVE",
"289 593 CURVE",
"301 593 OFFCURVE",
"301 610 OFFCURVE",
"306 621 CURVE",
"312 644 OFFCURVE",
"335 667 OFFCURVE",
"352 684 CURVE",
"358 684 OFFCURVE",
"363 689 OFFCURVE",
"369 684 CURVE",
"375 684 OFFCURVE",
"380 672 OFFCURVE",
"380 667 CURVE",
"375 649 OFFCURVE",
"369 632 OFFCURVE",
"363 616 CURVE",
"346 571 OFFCURVE",
"323 525 OFFCURVE",
"306 473 CURVE",
"289 445 OFFCURVE",
"283 405 OFFCURVE",
"266 376 CURVE",
"266 365 OFFCURVE",
"255 359 OFFCURVE",
"249 359 CURVE",
"238 354 OFFCURVE",
"226 326 OFFCURVE",
"232 315 CURVE",
"238 309 OFFCURVE",
"243 297 OFFCURVE",
"249 286 CURVE",
"255 286 OFFCURVE",
"255 280 OFFCURVE",
"261 280 CURVE",
"272 269 OFFCURVE",
"283 263 OFFCURVE",
"289 252 CURVE",
"312 217 OFFCURVE",
"341 172 OFFCURVE",
"363 132 CURVE",
"363 132 OFFCURVE",
"369 126 OFFCURVE",
"375 120 CURVE",
"375 120 OFFCURVE",
"375 115 OFFCURVE",
"375 109 CURVE",
"375 109 OFFCURVE",
"369 109 OFFCURVE",
"363 109 CURVE",
"363 109 OFFCURVE",
"358 109 OFFCURVE",
"358 109 CURVE",
"358 109 OFFCURVE",
"358 103 OFFCURVE",
"358 98 CURVE",
"369 81 OFFCURVE",
"380 59 OFFCURVE",
"392 41 CURVE",
"397 36 OFFCURVE",
"397 24 OFFCURVE",
"397 19 CURVE",
"386 19 OFFCURVE",
"380 13 OFFCURVE",
"375 19 CURVE",
"329 53 OFFCURVE",
"295 92 OFFCURVE",
"272 143 CURVE",
"261 166 OFFCURVE",
"243 189 OFFCURVE",
"232 212 CURVE",
"226 223 OFFCURVE",
"221 235 OFFCURVE",
"215 252 CURVE",
"209 263 OFFCURVE",
"203 275 OFFCURVE",
"181 275 CURVE",
"158 269 OFFCURVE",
"163 257 OFFCURVE",
"163 246 CURVE",
"169 206 OFFCURVE",
"175 160 OFFCURVE",
"163 115 CURVE",
"163 109 OFFCURVE",
"163 98 OFFCURVE",
"163 86 CURVE",
"158 70 OFFCURVE",
"158 53 OFFCURVE",
"152 36 CURVE",
"146 24 OFFCURVE",
"107 19 OFFCURVE",
"102 24 CURVE",
"96 30 OFFCURVE",
"90 36 OFFCURVE",
"90 47 CURVE",
"96 120 OFFCURVE",
"96 195 OFFCURVE",
"102 269 CURVE",
"102 275 OFFCURVE",
"102 280 OFFCURVE",
"96 286 CURVE",
"73 332 OFFCURVE",
"73 382 OFFCURVE",
"79 428 CURVE",
"79 451 OFFCURVE",
"79 473 OFFCURVE",
"79 496 CURVE",
"79 502 OFFCURVE",
"79 508 OFFCURVE",
"79 513 CURVE",
"67 559 OFFCURVE",
"62 599 OFFCURVE",
"50 644 CURVE",
"50 655 OFFCURVE",
"62 667 OFFCURVE",
"79 667 CURVE",
"85 672 OFFCURVE",
"96 678 OFFCURVE",
"102 678 CURVE",
"113 684 OFFCURVE",
"119 689 OFFCURVE",
"130 689 CURVE",
"135 684 OFFCURVE",
"141 672 OFFCURVE",
"146 667 CURVE",
"141 667 OFFCURVE",
"141 667 OFFCURVE",
"141 667 CURVE"
);
}
);
width = 402;
}
);
unicode = 004B;
},
{
glyphname = L;
lastChange = "2018-02-05 22:18:41 +0000";
layers = (
{
layerId = "7185A08A-2B1C-4BBD-ABBC-D0B58775A973";
paths = (
{
closed = 1;
nodes = (
"185 88 OFFCURVE",
"197 94 OFFCURVE",
"207 100 CURVE",
"264 100 OFFCURVE",
"314 100 OFFCURVE",
"370 100 CURVE",
"388 100 OFFCURVE",
"405 94 OFFCURVE",
"421 77 CURVE",
"421 71 OFFCURVE",
"421 66 OFFCURVE",
"426 60 CURVE",
"416 60 OFFCURVE",
"410 55 OFFCURVE",
"405 60 CURVE",
"393 60 OFFCURVE",
"382 71 OFFCURVE",
"370 77 CURVE",
"354 88 OFFCURVE",
"320 77 OFFCURVE",
"309 55 CURVE",
"309 55 OFFCURVE",
"303 48 OFFCURVE",
"303 48 CURVE",
"246 32 OFFCURVE",
"190 9 OFFCURVE",
"129 -1 CURVE",
"106 -8 OFFCURVE",
"83 4 OFFCURVE",
"55 9 CURVE",
"55 9 OFFCURVE",
"50 20 OFFCURVE",
"50 20 CURVE",
"50 27 OFFCURVE",
"55 32 OFFCURVE",
"61 32 CURVE",
"78 32 OFFCURVE",
"78 43 OFFCURVE",
"83 48 CURVE",
"106 88 OFFCURVE",
"94 128 OFFCURVE",
"94 172 CURVE",
"94 200 OFFCURVE",
"101 228 OFFCURVE",
"106 257 CURVE",
"106 279 OFFCURVE",
"112 296 OFFCURVE",
"117 314 CURVE",
"117 324 OFFCURVE",
"117 336 OFFCURVE",
"117 347 CURVE",
"117 359 OFFCURVE",
"117 370 OFFCURVE",
"117 380 CURVE",
"117 438 OFFCURVE",
"117 488 OFFCURVE",
"117 544 CURVE",
"117 578 OFFCURVE",
"112 618 OFFCURVE",
"112 651 CURVE",
"112 662 OFFCURVE",
"123 667 OFFCURVE",
"134 662 CURVE",
"146 662 OFFCURVE",
"151 656 OFFCURVE",
"162 667 CURVE",
"162 667 OFFCURVE",
"179 667 OFFCURVE",
"185 662 CURVE",
"190 646 OFFCURVE",
"197 634 OFFCURVE",
"185 618 CURVE",
"174 595 OFFCURVE",
"174 572 OFFCURVE",
"179 544 CURVE",
"179 532 OFFCURVE",
"179 516 OFFCURVE",
"179 499 CURVE",
"179 482 OFFCURVE",
"179 471 OFFCURVE",
"190 454 CURVE",
"190 454 OFFCURVE",
"190 448 OFFCURVE",
"190 443 CURVE",
"185 415 OFFCURVE",
"185 387 OFFCURVE",
"179 359 CURVE",
"174 314 OFFCURVE",
"174 268 OFFCURVE",
"169 223 CURVE",
"162 190 OFFCURVE",
"157 151 OFFCURVE",
"157 116 CURVE",
"151 105 OFFCURVE",
"151 88 OFFCURVE",
"179 88 CURVE"
);
}
);
width = 436;
}
);
unicode = 004C;
},
{
glyphname = M;
lastChange = "2018-01-13 17:30:04 +0000";
layers = (
{
layerId = "7185A08A-2B1C-4BBD-ABBC-D0B58775A973";
paths = (
{
closed = 1;
nodes = (
"20 303 OFFCURVE",
"31 364 OFFCURVE",
"37 419 CURVE",
"37 458 OFFCURVE",
"37 496 OFFCURVE",
"37 535 CURVE",
"37 557 OFFCURVE",
"31 579 OFFCURVE",
"31 601 CURVE",
"31 601 OFFCURVE",
"26 607 OFFCURVE",
"31 607 CURVE",
"42 629 OFFCURVE",
"37 656 OFFCURVE",
"37 684 CURVE",
"37 689 OFFCURVE",
"31 695 OFFCURVE",
"31 700 CURVE",
"37 706 OFFCURVE",
"37 711 OFFCURVE",
"42 711 CURVE",
"48 711 OFFCURVE",
"59 711 OFFCURVE",
"59 706 CURVE",
"64 700 OFFCURVE",
"70 695 OFFCURVE",
"70 689 CURVE",
"70 651 OFFCURVE",
"92 634 OFFCURVE",
"125 623 CURVE",
"125 623 OFFCURVE",
"131 618 OFFCURVE",
"131 618 CURVE",
"147 595 OFFCURVE",
"164 579 OFFCURVE",
"175 562 CURVE",
"186 529 OFFCURVE",
"213 507 OFFCURVE",
"230 485 CURVE",
"241 469 OFFCURVE",
"246 458 OFFCURVE",
"252 441 CURVE",
"252 441 OFFCURVE",
"252 441 OFFCURVE",
"252 436 CURVE",
"257 441 OFFCURVE",
"257 441 OFFCURVE",
"263 441 CURVE",
"290 480 OFFCURVE",
"318 518 OFFCURVE",
"346 562 CURVE",
"373 595 OFFCURVE",
"406 634 OFFCURVE",
"445 662 CURVE",
"450 667 OFFCURVE",
"456 667 OFFCURVE",
"461 667 CURVE",
"472 667 OFFCURVE",
"483 662 OFFCURVE",
"494 656 CURVE",
"500 651 OFFCURVE",
"500 645 OFFCURVE",
"500 640 CURVE",
"506 623 OFFCURVE",
"511 612 OFFCURVE",
"511 601 CURVE",
"517 590 OFFCURVE",
"517 584 OFFCURVE",
"517 579 CURVE",
"511 507 OFFCURVE",
"511 430 OFFCURVE",
"522 358 CURVE",
"522 331 OFFCURVE",
"522 303 OFFCURVE",
"522 276 CURVE",
"528 232 OFFCURVE",
"533 187 OFFCURVE",
"539 149 CURVE",
"539 143 OFFCURVE",
"539 138 OFFCURVE",
"539 138 CURVE",
"528 105 OFFCURVE",
"517 66 OFFCURVE",
"528 28 CURVE",
"533 28 OFFCURVE",
"528 22 OFFCURVE",
"528 17 CURVE",
"522 17 OFFCURVE",
"517 22 OFFCURVE",
"517 22 CURVE",
"506 39 OFFCURVE",
"500 55 OFFCURVE",
"494 77 CURVE",
"483 127 OFFCURVE",
"467 176 OFFCURVE",
"456 232 CURVE",
"450 276 OFFCURVE",
"450 320 OFFCURVE",
"450 364 CURVE",
"450 375 OFFCURVE",
"450 380 OFFCURVE",
"450 391 CURVE",
"450 403 OFFCURVE",
"450 414 OFFCURVE",
"434 414 CURVE",
"428 419 OFFCURVE",
"423 430 OFFCURVE",
"423 436 CURVE",
"428 474 OFFCURVE",
"434 518 OFFCURVE",
"434 562 CURVE",
"434 573 OFFCURVE",
"439 584 OFFCURVE",
"439 595 CURVE",
"439 601 OFFCURVE",
"434 601 OFFCURVE",
"434 601 CURVE",
"434 601 OFFCURVE",
"434 601 OFFCURVE",
"434 601 CURVE",
"406 573 OFFCURVE",
"384 546 OFFCURVE",
"362 518 CURVE",
"329 480 OFFCURVE",
"302 436 OFFCURVE",
"274 391 CURVE",
"257 364 OFFCURVE",
"246 358 OFFCURVE",
"224 386 CURVE",
"197 414 OFFCURVE",
"175 452 OFFCURVE",
"164 491 CURVE",
"153 518 OFFCURVE",
"131 546 OFFCURVE",
"109 568 CURVE",
"103 573 OFFCURVE",
"97 573 OFFCURVE",
"97 562 CURVE",
"97 507 OFFCURVE",
"97 447 OFFCURVE",
"92 386 CURVE",
"92 353 OFFCURVE",
"92 325 OFFCURVE",
"97 292 CURVE",
"97 265 OFFCURVE",
"103 232 OFFCURVE",
"103 204 CURVE",
"109 160 OFFCURVE",
"114 116 OFFCURVE",
"120 66 CURVE",
"120 61 OFFCURVE",
"114 50 OFFCURVE",
"109 50 CURVE",
"103 44 OFFCURVE",
"97 55 OFFCURVE",
"86 61 CURVE",
"86 61 OFFCURVE",
"81 66 OFFCURVE",
"75 66 CURVE",
"59 66 OFFCURVE",
"48 72 OFFCURVE",
"48 94 CURVE",
"48 110 OFFCURVE",
"42 127 OFFCURVE",
"31 143 CURVE",
"20 165 OFFCURVE",
"20 193 OFFCURVE",
"20 221 CURVE",
"15 226 OFFCURVE",
"20 237 OFFCURVE",
"20 248 CURVE",
"20 248 OFFCURVE",
"15 248 OFFCURVE",
"15 248 CURVE"
);
}
);
width = 600;
}
);
unicode = 004D;
},
{
glyphname = N;
lastChange = "2018-01-13 17:30:22 +0000";
layers = (
{
layerId = "7185A08A-2B1C-4BBD-ABBC-D0B58775A973";
paths = (
{
closed = 1;
nodes = (
"498 80 OFFCURVE",
"498 94 OFFCURVE",
"498 94 CURVE",
"498 131 OFFCURVE",
"498 156 OFFCURVE",
"498 194 CURVE",
"498 231 OFFCURVE",
"498 270 OFFCURVE",
"498 320 CURVE",
"498 332 OFFCURVE",
"498 358 OFFCURVE",
"498 383 CURVE",
"486 421 OFFCURVE",
"486 447 OFFCURVE",
"486 483 CURVE",
"486 509 OFFCURVE",
"473 547 OFFCURVE",
"473 584 CURVE",
"473 597 OFFCURVE",
"473 623 OFFCURVE",
"460 634 CURVE",
"460 648 OFFCURVE",
"460 648 OFFCURVE",
"447 660 CURVE",
"435 660 OFFCURVE",
"410 660 OFFCURVE",
"385 660 CURVE",
"397 660 OFFCURVE",
"397 660 OFFCURVE",
"410 660 CURVE",
"423 660 OFFCURVE",
"423 648 OFFCURVE",
"423 634 CURVE",
"423 610 OFFCURVE",
"423 571 OFFCURVE",
"423 534 CURVE",
"423 497 OFFCURVE",
"423 458 OFFCURVE",
"423 421 CURVE",
"423 383 OFFCURVE",
"423 332 OFFCURVE",
"423 294 CURVE",
"423 294 OFFCURVE",
"410 282 OFFCURVE",
"410 282 CURVE",
"410 294 OFFCURVE",
"410 294 OFFCURVE",
"410 308 CURVE",
"397 320 OFFCURVE",
"385 344 OFFCURVE",
"371 370 CURVE",
"371 395 OFFCURVE",
"360 408 OFFCURVE",
"347 433 CURVE",
"334 433 OFFCURVE",
"334 421 OFFCURVE",
"334 433 CURVE",
"322 447 OFFCURVE",
"310 471 OFFCURVE",
"297 483 CURVE",
"284 497 OFFCURVE",
"284 509 OFFCURVE",
"272 521 CURVE",
"258 534 OFFCURVE",
"258 547 OFFCURVE",
"246 547 CURVE",
"221 571 OFFCURVE",
"195 597 OFFCURVE",
"171 623 CURVE",
"158 634 OFFCURVE",
"145 660 OFFCURVE",
"133 673 CURVE",
"121 686 OFFCURVE",
"107 698 OFFCURVE",
"95 711 CURVE",
"82 698 OFFCURVE",
"82 686 OFFCURVE",
"82 660 CURVE",
"82 648 OFFCURVE",
"70 634 OFFCURVE",
"70 610 CURVE",
"70 584 OFFCURVE",
"57 560 OFFCURVE",
"57 534 CURVE",
"57 497 OFFCURVE",
"57 458 OFFCURVE",
"57 421 CURVE",
"57 395 OFFCURVE",
"57 370 OFFCURVE",
"57 358 CURVE",
"57 332 OFFCURVE",
"57 308 OFFCURVE",
"70 282 CURVE",
"70 257 OFFCURVE",
"70 231 OFFCURVE",
"82 194 CURVE",
"82 181 OFFCURVE",
"82 156 OFFCURVE",
"82 131 CURVE",
"82 118 OFFCURVE",
"82 94 OFFCURVE",
"95 80 CURVE",
"95 68 OFFCURVE",
"107 68 OFFCURVE",
"107 55 CURVE",
"121 42 OFFCURVE",
"121 18 OFFCURVE",
"145 18 CURVE",
"145 18 OFFCURVE",
"158 18 OFFCURVE",
"158 18 CURVE",
"171 18 OFFCURVE",
"184 5 OFFCURVE",
"195 18 CURVE",
"195 30 OFFCURVE",
"208 30 OFFCURVE",
"208 30 CURVE",
"208 42 OFFCURVE",
"208 55 OFFCURVE",
"195 80 CURVE",
"195 80 OFFCURVE",
"195 80 OFFCURVE",
"195 80 CURVE",
"184 106 OFFCURVE",
"184 131 OFFCURVE",
"171 144 CURVE",
"171 194 OFFCURVE",
"158 231 OFFCURVE",
"145 282 CURVE",
"145 308 OFFCURVE",
"133 332 OFFCURVE",
"133 358 CURVE",
"133 383 OFFCURVE",
"121 421 OFFCURVE",
"133 447 CURVE",
"133 458 OFFCURVE",
"133 471 OFFCURVE",
"133 471 CURVE",
"121 497 OFFCURVE",
"133 521 OFFCURVE",
"133 547 CURVE",
"121 560 OFFCURVE",
"133 571 OFFCURVE",
"133 584 CURVE",
"133 571 OFFCURVE",
"145 571 OFFCURVE",
"145 571 CURVE",
"158 547 OFFCURVE",
"184 521 OFFCURVE",
"195 497 CURVE",
"221 458 OFFCURVE",
"246 421 OFFCURVE",
"272 395 CURVE",
"272 383 OFFCURVE",
"284 383 OFFCURVE",
"284 370 CURVE",
"272 344 OFFCURVE",
"272 332 OFFCURVE",
"284 308 CURVE",
"284 332 OFFCURVE",
"284 344 OFFCURVE",
"284 358 CURVE",
"284 358 OFFCURVE",
"284 358 OFFCURVE",
"284 358 CURVE",
"284 358 OFFCURVE",
"284 358 OFFCURVE",
"284 358 CURVE",
"297 332 OFFCURVE",
"297 308 OFFCURVE",
"322 282 CURVE",
"322 282 OFFCURVE",
"322 282 OFFCURVE",
"322 282 CURVE",
"322 257 OFFCURVE",
"334 245 OFFCURVE",
"347 231 CURVE",
"360 207 OFFCURVE",
"360 181 OFFCURVE",
"371 156 CURVE",
"371 118 OFFCURVE",
"385 80 OFFCURVE",
"410 42 CURVE",
"410 42 OFFCURVE",
"410 42 OFFCURVE",
"410 42 CURVE",
"410 30 OFFCURVE",
"423 18 OFFCURVE",
"435 18 CURVE",
"447 5 OFFCURVE",
"460 5 OFFCURVE",
"473 5 CURVE",
"486 18 OFFCURVE",
"498 18 OFFCURVE",
"510 18 CURVE",
"498 42 OFFCURVE",
"498 55 OFFCURVE",
"498 80 CURVE"
);
},
{
closed = 1;
nodes = (
"284 294 OFFCURVE",
"284 308 OFFCURVE",
"284 332 CURVE",
"284 332 OFFCURVE",
"284 344 OFFCURVE",
"284 344 CURVE",
"284 320 OFFCURVE",
"272 308 OFFCURVE",
"284 270 CURVE"
);
}
);
width = 600;
}
);
unicode = 004E;
},
{
glyphname = O;
lastChange = "2018-02-05 22:14:44 +0000";
layers = (
{
layerId = "7185A08A-2B1C-4BBD-ABBC-D0B58775A973";
paths = (
{
closed = 1;
nodes = (
"464 532 OFFCURVE",
"470 507 OFFCURVE",
"476 489 CURVE",
"476 482 OFFCURVE",
"476 476 OFFCURVE",
"476 476 CURVE",
"476 438 OFFCURVE",
"470 394 OFFCURVE",
"464 357 CURVE",
"464 351 OFFCURVE",
"470 344 OFFCURVE",
"476 338 CURVE",
"476 331 OFFCURVE",
"482 326 OFFCURVE",
"482 319 CURVE",
"470 231 OFFCURVE",
"439 156 OFFCURVE",
"401 81 CURVE",
"382 43 OFFCURVE",
"351 13 OFFCURVE",
"326 -18 CURVE",
"314 -37 OFFCURVE",
"294 -37 OFFCURVE",
"276 -25 CURVE",
"269 -25 OFFCURVE",
"263 -25 OFFCURVE",
"251 -25 CURVE",
"207 -43 OFFCURVE",
"151 -37 OFFCURVE",
"119 -7 CURVE",
"106 7 OFFCURVE",
"94 25 OFFCURVE",
"88 38 CURVE",
"63 81 OFFCURVE",
"31 125 OFFCURVE",
"31 175 CURVE",
"31 188 OFFCURVE",
"19 201 OFFCURVE",
"19 213 CURVE",
"13 238 OFFCURVE",
"6 263 OFFCURVE",
"13 288 CURVE",
"13 306 OFFCURVE",
"19 331 OFFCURVE",
"26 351 CURVE",
"26 357 OFFCURVE",
"19 369 OFFCURVE",
"26 376 CURVE",
"26 394 OFFCURVE",
"31 419 OFFCURVE",
"38 438 CURVE",
"56 507 OFFCURVE",
"101 564 OFFCURVE",
"138 626 CURVE",
"151 657 OFFCURVE",
"169 676 OFFCURVE",
"188 701 CURVE",
"201 707 OFFCURVE",
"207 707 OFFCURVE",
"219 701 CURVE",
"226 695 OFFCURVE",
"226 689 OFFCURVE",
"232 689 CURVE",
"244 682 OFFCURVE",
"251 682 OFFCURVE",
"244 701 CURVE",
"244 707 OFFCURVE",
"251 714 OFFCURVE",
"251 720 CURVE",
"257 720 OFFCURVE",
"263 720 OFFCURVE",
"269 714 CURVE",
"288 714 OFFCURVE",
"307 707 OFFCURVE",
"326 701 CURVE",
"339 695 OFFCURVE",
"351 695 OFFCURVE",
"364 695 CURVE",
"364 689 OFFCURVE",
"369 676 OFFCURVE",
"364 676 CURVE",
"357 664 OFFCURVE",
"364 657 OFFCURVE",
"376 651 CURVE",
"382 651 OFFCURVE",
"389 651 OFFCURVE",
"389 651 CURVE",
"407 645 OFFCURVE",
"419 632 OFFCURVE",
"414 607 CURVE",
"414 601 OFFCURVE",
"414 601 OFFCURVE",
"414 594 CURVE",
"419 601 OFFCURVE",
"419 601 OFFCURVE",
"419 601 CURVE",
"426 607 OFFCURVE",
"439 614 OFFCURVE",
"445 614 CURVE",
"445 607 OFFCURVE",
"451 601 OFFCURVE",
"457 594 CURVE",
"457 582 OFFCURVE",
"457 569 OFFCURVE",
"464 557 CURVE",
"457 551 OFFCURVE",
"457 551 OFFCURVE",
"457 551 CURVE"
);
},
{
closed = 1;
nodes = (
"376 457 OFFCURVE",
"376 457 OFFCURVE",
"382 463 CURVE",
"376 469 OFFCURVE",
"369 482 OFFCURVE",
"364 494 CURVE",
"351 514 OFFCURVE",
"344 532 OFFCURVE",
"332 551 CURVE",
"319 569 OFFCURVE",
"307 582 OFFCURVE",
"294 594 CURVE",
"288 601 OFFCURVE",
"282 607 OFFCURVE",
"282 614 CURVE",
"269 626 OFFCURVE",
"257 645 OFFCURVE",
"238 645 CURVE",
"226 645 OFFCURVE",
"213 632 OFFCURVE",
"201 626 CURVE",
"176 620 OFFCURVE",
"163 594 OFFCURVE",
"156 576 CURVE",
"131 532 OFFCURVE",
"113 489 OFFCURVE",
"94 444 CURVE",
"94 432 OFFCURVE",
"88 426 OFFCURVE",
"88 413 CURVE",
"94 382 OFFCURVE",
"101 351 OFFCURVE",
"101 313 CURVE",
"101 306 OFFCURVE",
"106 301 OFFCURVE",
"113 288 CURVE",
"119 281 OFFCURVE",
"126 276 OFFCURVE",
"126 263 CURVE",
"126 219 OFFCURVE",
"119 175 OFFCURVE",
"126 131 CURVE",
"138 81 OFFCURVE",
"156 38 OFFCURVE",
"213 25 CURVE",
"213 18 OFFCURVE",
"219 13 OFFCURVE",
"219 13 CURVE",
"213 0 OFFCURVE",
"226 -7 OFFCURVE",
"232 0 CURVE",
"251 0 OFFCURVE",
"269 13 OFFCURVE",
"288 18 CURVE",
"288 25 OFFCURVE",
"294 32 OFFCURVE",
"294 38 CURVE",
"301 43 OFFCURVE",
"301 56 OFFCURVE",
"307 63 CURVE",
"319 81 OFFCURVE",
"339 95 OFFCURVE",
"351 106 CURVE",
"369 150 OFFCURVE",
"382 188 OFFCURVE",
"394 231 CURVE",
"394 231 OFFCURVE",
"394 238 OFFCURVE",
"389 244 CURVE",
"376 244 OFFCURVE",
"369 251 OFFCURVE",
"369 263 CURVE",
"369 269 OFFCURVE",
"369 281 OFFCURVE",
"369 288 CURVE",
"376 326 OFFCURVE",
"382 363 OFFCURVE",
"389 401 CURVE",
"389 407 OFFCURVE",
"389 413 OFFCURVE",
"389 419 CURVE",
"382 432 OFFCURVE",
"376 444 OFFCURVE",
"369 457 CURVE"
);
}
);
width = 492;
}
);
leftMetricsKey = "=C";
rightMetricsKey = "=C";
unicode = 004F;
},
{
glyphname = Odieresis;
lastChange = "2018-02-05 22:40:18 +0000";
layers = (
{
layerId = "7185A08A-2B1C-4BBD-ABBC-D0B58775A973";
paths = (
{
closed = 1;
nodes = (
"464 532 OFFCURVE",
"470 507 OFFCURVE",
"476 489 CURVE",
"476 482 OFFCURVE",
"476 476 OFFCURVE",
"476 476 CURVE",
"476 438 OFFCURVE",
"470 394 OFFCURVE",
"464 357 CURVE",
"464 351 OFFCURVE",
"470 344 OFFCURVE",
"476 338 CURVE",
"476 331 OFFCURVE",
"482 326 OFFCURVE",
"482 319 CURVE",
"470 231 OFFCURVE",
"439 156 OFFCURVE",
"401 81 CURVE",
"382 43 OFFCURVE",
"351 13 OFFCURVE",
"326 -18 CURVE",
"314 -37 OFFCURVE",
"294 -37 OFFCURVE",
"276 -25 CURVE",
"269 -25 OFFCURVE",
"263 -25 OFFCURVE",
"251 -25 CURVE",
"207 -43 OFFCURVE",
"151 -37 OFFCURVE",
"119 -7 CURVE",
"106 7 OFFCURVE",
"94 25 OFFCURVE",
"88 38 CURVE",
"63 81 OFFCURVE",
"31 125 OFFCURVE",
"31 175 CURVE",
"31 188 OFFCURVE",
"19 201 OFFCURVE",
"19 213 CURVE",
"13 238 OFFCURVE",
"6 263 OFFCURVE",
"13 288 CURVE",
"13 306 OFFCURVE",
"19 331 OFFCURVE",
"26 351 CURVE",
"26 357 OFFCURVE",
"19 369 OFFCURVE",
"26 376 CURVE",
"26 394 OFFCURVE",
"31 419 OFFCURVE",
"38 438 CURVE",
"56 507 OFFCURVE",
"101 564 OFFCURVE",
"138 626 CURVE",
"151 657 OFFCURVE",
"169 676 OFFCURVE",
"188 701 CURVE",
"201 707 OFFCURVE",
"207 707 OFFCURVE",
"219 701 CURVE",
"226 695 OFFCURVE",
"226 689 OFFCURVE",
"232 689 CURVE",
"244 682 OFFCURVE",
"251 682 OFFCURVE",
"244 701 CURVE",
"244 707 OFFCURVE",
"251 714 OFFCURVE",
"251 720 CURVE",
"257 720 OFFCURVE",
"263 720 OFFCURVE",
"269 714 CURVE",
"288 714 OFFCURVE",
"307 707 OFFCURVE",
"326 701 CURVE",
"339 695 OFFCURVE",
"351 695 OFFCURVE",
"364 695 CURVE",
"364 689 OFFCURVE",
"369 676 OFFCURVE",
"364 676 CURVE",
"357 664 OFFCURVE",
"364 657 OFFCURVE",
"376 651 CURVE",
"382 651 OFFCURVE",
"389 651 OFFCURVE",
"389 651 CURVE",
"407 645 OFFCURVE",
"419 632 OFFCURVE",
"414 607 CURVE",
"414 601 OFFCURVE",
"414 601 OFFCURVE",
"414 594 CURVE",
"419 601 OFFCURVE",
"419 601 OFFCURVE",
"419 601 CURVE",
"426 607 OFFCURVE",
"439 614 OFFCURVE",
"445 614 CURVE",
"445 607 OFFCURVE",
"451 601 OFFCURVE",
"457 594 CURVE",
"457 582 OFFCURVE",
"457 569 OFFCURVE",
"464 557 CURVE",
"457 551 OFFCURVE",
"457 551 OFFCURVE",
"457 551 CURVE"
);
},
{
closed = 1;
nodes = (
"376 457 OFFCURVE",
"376 457 OFFCURVE",
"382 463 CURVE",
"376 469 OFFCURVE",
"369 482 OFFCURVE",
"364 494 CURVE",
"351 514 OFFCURVE",
"344 532 OFFCURVE",
"332 551 CURVE",
"319 569 OFFCURVE",
"307 582 OFFCURVE",
"294 594 CURVE",
"288 601 OFFCURVE",
"282 607 OFFCURVE",
"282 614 CURVE",
"269 626 OFFCURVE",
"257 645 OFFCURVE",
"238 645 CURVE",
"226 645 OFFCURVE",
"213 632 OFFCURVE",
"201 626 CURVE",
"176 620 OFFCURVE",
"163 594 OFFCURVE",
"156 576 CURVE",
"131 532 OFFCURVE",
"113 489 OFFCURVE",
"94 444 CURVE",
"94 432 OFFCURVE",
"88 426 OFFCURVE",
"88 413 CURVE",
"94 382 OFFCURVE",
"101 351 OFFCURVE",
"101 313 CURVE",
"101 306 OFFCURVE",
"106 301 OFFCURVE",
"113 288 CURVE",
"119 281 OFFCURVE",
"126 276 OFFCURVE",
"126 263 CURVE",
"126 219 OFFCURVE",
"119 175 OFFCURVE",
"126 131 CURVE",
"138 81 OFFCURVE",
"156 38 OFFCURVE",
"213 25 CURVE",
"213 18 OFFCURVE",
"219 13 OFFCURVE",
"219 13 CURVE",
"213 0 OFFCURVE",
"226 -7 OFFCURVE",
"232 0 CURVE",
"251 0 OFFCURVE",
"269 13 OFFCURVE",
"288 18 CURVE",
"288 25 OFFCURVE",
"294 32 OFFCURVE",
"294 38 CURVE",
"301 43 OFFCURVE",
"301 56 OFFCURVE",
"307 63 CURVE",
"319 81 OFFCURVE",
"339 95 OFFCURVE",
"351 106 CURVE",
"369 150 OFFCURVE",
"382 188 OFFCURVE",
"394 231 CURVE",
"394 231 OFFCURVE",
"394 238 OFFCURVE",
"389 244 CURVE",
"376 244 OFFCURVE",
"369 251 OFFCURVE",
"369 263 CURVE",
"369 269 OFFCURVE",
"369 281 OFFCURVE",
"369 288 CURVE",
"376 326 OFFCURVE",
"382 363 OFFCURVE",
"389 401 CURVE",
"389 407 OFFCURVE",
"389 413 OFFCURVE",
"389 419 CURVE",
"382 432 OFFCURVE",
"376 444 OFFCURVE",
"369 457 CURVE"
);
},
{
closed = 1;
nodes = (
"421 675 OFFCURVE",
"417 676 OFFCURVE",
"413 676 CURVE",
"415 689 OFFCURVE",
"395 698 OFFCURVE",
"399 705 CURVE",
"411 726 OFFCURVE",
"423 746 OFFCURVE",
"435 761 CURVE",
"439 767 OFFCURVE",
"454 750 OFFCURVE",
"463 752 CURVE",
"463 752 OFFCURVE",
"455 732 OFFCURVE",
"460 728 CURVE",
"451 690 OFFCURVE",
"457 681 OFFCURVE",
"425 676 CURVE"
);
},
{
closed = 1;
nodes = (
"84 672 OFFCURVE",
"78 675 OFFCURVE",
"74 675 CURVE",
"76 688 OFFCURVE",
"80 710 OFFCURVE",
"84 717 CURVE SMOOTH",
"96 738 OFFCURVE",
"105 734 OFFCURVE",
"117 749 CURVE SMOOTH",
"122 755 OFFCURVE",
"137 762 OFFCURVE",
"146 764 CURVE SMOOTH",
"146 764 OFFCURVE",
"151 752 OFFCURVE",
"151 752 CURVE",
"142 714 OFFCURVE",
"120 678 OFFCURVE",
"88 673 CURVE"
);
}
);
width = 492;
}
);
leftMetricsKey = "=O";
rightMetricsKey = "=O";
unicode = 00D6;
},
{
glyphname = P;
lastChange = "2018-02-05 22:19:27 +0000";
layers = (
{
layerId = "7185A08A-2B1C-4BBD-ABBC-D0B58775A973";
paths = (
{
closed = 1;
nodes = (
"241 321 OFFCURVE",
"216 315 OFFCURVE",
"185 315 CURVE",
"185 309 OFFCURVE",
"179 304 OFFCURVE",
"179 304 CURVE",
"171 276 OFFCURVE",
"171 251 OFFCURVE",
"166 225 CURVE",
"166 220 OFFCURVE",
"166 214 OFFCURVE",
"166 208 CURVE",
"166 200 OFFCURVE",
"171 188 OFFCURVE",
"171 181 CURVE",
"171 174 OFFCURVE",
"179 164 OFFCURVE",
"179 150 CURVE",
"179 113 OFFCURVE",
"179 73 OFFCURVE",
"171 34 CURVE",
"171 23 OFFCURVE",
"159 3 OFFCURVE",
"140 -10 CURVE",
"134 -16 OFFCURVE",
"120 -2 OFFCURVE",
"120 10 CURVE",
"120 23 OFFCURVE",
"115 29 OFFCURVE",
"101 15 CURVE",
"96 10 OFFCURVE",
"89 10 OFFCURVE",
"82 10 CURVE",
"76 15 OFFCURVE",
"70 23 OFFCURVE",
"76 34 CURVE",
"76 113 OFFCURVE",
"76 188 OFFCURVE",
"82 265 CURVE",
"82 296 OFFCURVE",
"89 328 OFFCURVE",
"89 360 CURVE",
"96 366 OFFCURVE",
"89 379 OFFCURVE",
"82 385 CURVE",
"76 398 OFFCURVE",
"70 405 OFFCURVE",
"70 410 CURVE",
"76 441 OFFCURVE",
"82 475 OFFCURVE",
"89 506 CURVE",
"96 564 OFFCURVE",
"109 615 OFFCURVE",
"120 672 CURVE",
"127 697 OFFCURVE",
"127 728 OFFCURVE",
"171 728 CURVE",
"204 735 OFFCURVE",
"236 747 OFFCURVE",
"274 747 CURVE",
"292 747 OFFCURVE",
"317 735 OFFCURVE",
"342 728 CURVE",
"342 728 OFFCURVE",
"350 722 OFFCURVE",
"350 722 CURVE",
"350 702 OFFCURVE",
"362 702 OFFCURVE",
"376 697 CURVE",
"387 697 OFFCURVE",
"400 697 OFFCURVE",
"407 672 CURVE",
"412 660 OFFCURVE",
"432 646 OFFCURVE",
"446 627 CURVE",
"465 595 OFFCURVE",
"446 564 OFFCURVE",
"438 525 CURVE",
"426 487 OFFCURVE",
"412 441 OFFCURVE",
"400 405 CURVE",
"400 398 OFFCURVE",
"387 385 OFFCURVE",
"381 385 CURVE",
"362 385 OFFCURVE",
"370 398 OFFCURVE",
"370 410 CURVE",
"370 410 OFFCURVE",
"370 417 OFFCURVE",
"370 417 CURVE",
"370 417 OFFCURVE",
"362 417 OFFCURVE",
"362 410 CURVE",
"356 410 OFFCURVE",
"350 410 OFFCURVE",
"350 405 CURVE",
"342 405 OFFCURVE",
"342 398 OFFCURVE",
"337 391 CURVE",
"342 391 OFFCURVE",
"350 391 OFFCURVE",
"350 391 CURVE",
"356 391 OFFCURVE",
"356 391 OFFCURVE",
"356 391 CURVE",
"362 371 OFFCURVE",
"350 347 OFFCURVE",
"330 340 CURVE",
"311 335 OFFCURVE",
"292 328 OFFCURVE",
"274 321 CURVE",
"274 321 OFFCURVE",
"274 328 OFFCURVE",
"274 328 CURVE"
);
},
{
closed = 1;
nodes = (
"166 391 OFFCURVE",
"179 391 OFFCURVE",
"185 398 CURVE",
"210 405 OFFCURVE",
"229 410 OFFCURVE",
"247 417 CURVE",
"274 430 OFFCURVE",
"299 449 OFFCURVE",
"330 461 CURVE",
"350 468 OFFCURVE",
"356 475 OFFCURVE",
"356 494 CURVE",
"356 506 OFFCURVE",
"356 511 OFFCURVE",
"362 520 CURVE",
"370 545 OFFCURVE",
"381 571 OFFCURVE",
"387 595 CURVE",
"395 607 OFFCURVE",
"395 615 OFFCURVE",
"395 627 CURVE",
"395 646 OFFCURVE",
"350 677 OFFCURVE",
"330 685 CURVE",
"292 691 OFFCURVE",
"255 697 OFFCURVE",
"216 677 CURVE",
"216 677 OFFCURVE",
"210 677 OFFCURVE",
"204 677 CURVE",
"204 677 OFFCURVE",
"197 685 OFFCURVE",
"190 691 CURVE",
"190 691 OFFCURVE",
"190 697 OFFCURVE",
"190 702 CURVE",
"185 697 OFFCURVE",
"179 697 OFFCURVE",
"179 691 CURVE",
"166 677 OFFCURVE",
"166 665 OFFCURVE",
"179 646 CURVE",
"179 646 OFFCURVE",
"179 632 OFFCURVE",
"179 627 CURVE",
"171 595 OFFCURVE",
"166 571 OFFCURVE",
"159 537 CURVE",
"159 511 OFFCURVE",
"152 487 OFFCURVE",
"159 468 CURVE",
"166 449 OFFCURVE",
"171 430 OFFCURVE",
"166 410 CURVE"
);
}
);
width = 484;
}
);
leftMetricsKey = "=I";
unicode = 0050;
},
{
glyphname = Q;
lastChange = "2018-01-13 17:34:05 +0000";
layers = (
{
layerId = "7185A08A-2B1C-4BBD-ABBC-D0B58775A973";
paths = (
{
closed = 1;
nodes = (
"319 693 OFFCURVE",
"312 693 OFFCURVE",
"312 693 CURVE",
"304 693 OFFCURVE",
"304 693 OFFCURVE",
"304 693 CURVE",
"283 693 LINE",
"276 693 OFFCURVE",
"261 688 OFFCURVE",
"254 675 CURVE",
"248 665 OFFCURVE",
"225 660 OFFCURVE",
"204 654 CURVE",
"176 647 OFFCURVE",
"153 638 OFFCURVE",
"140 610 CURVE",
"125 559 OFFCURVE",
"104 502 OFFCURVE",
"82 448 CURVE",
"53 387 OFFCURVE",
"25 326 OFFCURVE",
"39 253 CURVE",
"46 236 OFFCURVE",
"39 215 OFFCURVE",
"53 205 CURVE",
"68 187 OFFCURVE",
"68 168 OFFCURVE",
"75 154 CURVE",
"75 136 OFFCURVE",
"75 119 OFFCURVE",
"97 108 CURVE",
"104 108 OFFCURVE",
"104 97 OFFCURVE",
"111 97 CURVE",
"125 70 OFFCURVE",
"140 42 OFFCURVE",
"169 19 CURVE",
"197 -4 OFFCURVE",
"241 -19 OFFCURVE",
"290 -14 CURVE",
"304 -14 OFFCURVE",
"326 -8 OFFCURVE",
"340 -4 CURVE",
"362 3 OFFCURVE",
"376 -8 OFFCURVE",
"384 -14 CURVE",
"391 -19 OFFCURVE",
"398 -26 OFFCURVE",
"412 -26 CURVE",
"420 -35 OFFCURVE",
"440 -35 OFFCURVE",
"447 -48 CURVE",
"463 -59 OFFCURVE",
"477 -69 OFFCURVE",
"498 -81 CURVE",
"498 -86 OFFCURVE",
"512 -86 OFFCURVE",
"521 -86 CURVE",
"521 -81 OFFCURVE",
"521 -69 OFFCURVE",
"512 -63 CURVE",
"505 -54 OFFCURVE",
"492 -41 OFFCURVE",
"477 -32 CURVE",
"463 -8 OFFCURVE",
"447 14 OFFCURVE",
"427 36 CURVE",
"420 47 OFFCURVE",
"420 58 OFFCURVE",
"427 70 CURVE",
"440 80 OFFCURVE",
"456 91 OFFCURVE",
"463 108 CURVE",
"492 154 OFFCURVE",
"512 205 OFFCURVE",
"542 247 CURVE",
"548 260 OFFCURVE",
"557 271 OFFCURVE",
"542 280 CURVE",
"542 287 OFFCURVE",
"542 299 OFFCURVE",
"542 304 CURVE",
"548 315 OFFCURVE",
"548 326 OFFCURVE",
"548 332 CURVE",
"548 353 OFFCURVE",
"548 381 OFFCURVE",
"548 404 CURVE",
"548 431 OFFCURVE",
"548 465 OFFCURVE",
"548 499 CURVE",
"548 509 OFFCURVE",
"542 521 OFFCURVE",
"535 530 CURVE",
"535 542 OFFCURVE",
"528 548 OFFCURVE",
"521 554 CURVE",
"521 570 OFFCURVE",
"521 586 OFFCURVE",
"512 603 CURVE",
"512 610 OFFCURVE",
"505 620 OFFCURVE",
"498 627 CURVE",
"477 642 OFFCURVE",
"456 654 OFFCURVE",
"447 675 CURVE",
"447 675 OFFCURVE",
"440 682 OFFCURVE",
"433 682 CURVE",
"433 682 OFFCURVE",
"427 675 OFFCURVE",
"427 675 CURVE",
"412 647 OFFCURVE",
"412 647 OFFCURVE",
"391 665 CURVE",
"391 670 OFFCURVE",
"391 670 OFFCURVE",
"384 670 CURVE",
"384 675 OFFCURVE",
"384 688 OFFCURVE",
"376 693 CURVE",
"369 693 OFFCURVE",
"340 693 OFFCURVE",
"319 693 CURVE"
);
},
{
closed = 1;
nodes = (
"204 86 OFFCURVE",
"197 75 OFFCURVE",
"190 80 CURVE",
"190 86 OFFCURVE",
"197 91 OFFCURVE",
"204 103 CURVE",
"218 91 OFFCURVE",
"225 86 OFFCURVE",
"232 75 CURVE",
"232 75 OFFCURVE",
"218 86 OFFCURVE",
"211 80 CURVE"
);
},
{
closed = 1;
nodes = (
"484 448 OFFCURVE",
"470 420 OFFCURVE",
"470 387 CURVE",
"470 348 OFFCURVE",
"470 308 OFFCURVE",
"470 271 CURVE",
"470 253 OFFCURVE",
"463 236 OFFCURVE",
"463 220 CURVE",
"456 187 OFFCURVE",
"447 159 OFFCURVE",
"433 126 CURVE",
"433 113 OFFCURVE",
"427 103 OFFCURVE",
"412 97 CURVE",
"405 86 OFFCURVE",
"398 86 OFFCURVE",
"398 97 CURVE",
"398 113 OFFCURVE",
"391 126 OFFCURVE",
"391 141 CURVE",
"384 154 OFFCURVE",
"376 159 OFFCURVE",
"362 159 CURVE",
"362 159 OFFCURVE",
"355 159 OFFCURVE",
"349 159 CURVE",
"326 159 OFFCURVE",
"326 154 OFFCURVE",
"326 136 CURVE",
"333 113 OFFCURVE",
"340 91 OFFCURVE",
"340 64 CURVE",
"340 64 OFFCURVE",
"333 58 OFFCURVE",
"326 58 CURVE",
"319 58 OFFCURVE",
"312 58 OFFCURVE",
"297 58 CURVE",
"276 58 OFFCURVE",
"261 64 OFFCURVE",
"248 80 CURVE",
"232 97 OFFCURVE",
"218 108 OFFCURVE",
"190 103 CURVE",
"183 103 OFFCURVE",
"176 108 OFFCURVE",
"176 113 CURVE",
"169 148 OFFCURVE",
"160 187 OFFCURVE",
"153 220 CURVE",
"153 260 OFFCURVE",
"153 304 OFFCURVE",
"153 348 CURVE",
"153 359 OFFCURVE",
"153 364 OFFCURVE",
"140 376 CURVE",
"133 381 OFFCURVE",
"133 392 OFFCURVE",
"133 399 CURVE",
"140 420 OFFCURVE",
"140 443 OFFCURVE",
"140 465 CURVE",
"146 482 OFFCURVE",
"153 502 OFFCURVE",
"169 526 CURVE",
"169 537 OFFCURVE",
"176 548 OFFCURVE",
"183 559 CURVE",
"190 559 OFFCURVE",
"197 565 OFFCURVE",
"197 565 CURVE",
"218 559 OFFCURVE",
"225 570 OFFCURVE",
"225 581 CURVE",
"241 610 OFFCURVE",
"297 620 OFFCURVE",
"333 598 CURVE",
"384 565 OFFCURVE",
"412 515 OFFCURVE",
"456 475 CURVE"
);
}
);
width = 600;
}
);
unicode = 0051;
},
{
glyphname = R;
lastChange = "2018-02-05 22:19:53 +0000";
layers = (
{
layerId = "7185A08A-2B1C-4BBD-ABBC-D0B58775A973";
paths = (
{
closed = 1;
nodes = (
"374 519 OFFCURVE",
"374 525 OFFCURVE",
"380 537 CURVE",
"386 561 OFFCURVE",
"392 585 OFFCURVE",
"398 609 CURVE",
"398 615 OFFCURVE",
"392 628 OFFCURVE",
"386 628 CURVE",
"361 646 OFFCURVE",
"331 658 OFFCURVE",
"307 670 CURVE",
"302 670 OFFCURVE",
"289 676 OFFCURVE",
"283 682 CURVE",
"272 694 OFFCURVE",
"259 700 OFFCURVE",
"235 687 CURVE",
"217 682 OFFCURVE",
"211 670 OFFCURVE",
"217 652 CURVE",
"223 633 OFFCURVE",
"211 615 OFFCURVE",
"223 604 CURVE",
"229 604 OFFCURVE",
"223 598 OFFCURVE",
"223 591 CURVE",
"211 513 OFFCURVE",
"199 435 OFFCURVE",
"181 356 CURVE",
"181 332 OFFCURVE",
"181 308 OFFCURVE",
"168 284 CURVE",
"168 284 OFFCURVE",
"175 272 OFFCURVE",
"175 272 CURVE",
"187 272 OFFCURVE",
"193 260 OFFCURVE",
"187 253 CURVE",
"181 199 OFFCURVE",
"168 151 OFFCURVE",
"163 97 CURVE",
"157 73 OFFCURVE",
"157 54 OFFCURVE",
"151 30 CURVE",
"151 19 OFFCURVE",
"138 13 OFFCURVE",
"133 13 CURVE",
"114 6 OFFCURVE",
"96 13 OFFCURVE",
"84 30 CURVE",
"72 43 OFFCURVE",
"66 54 OFFCURVE",
"72 79 CURVE",
"103 145 OFFCURVE",
"109 218 OFFCURVE",
"114 290 CURVE",
"114 338 OFFCURVE",
"120 386 OFFCURVE",
"120 440 CURVE",
"127 477 OFFCURVE",
"127 513 OFFCURVE",
"127 549 CURVE",
"133 585 OFFCURVE",
"138 628 OFFCURVE",
"144 670 CURVE",
"144 676 OFFCURVE",
"151 682 OFFCURVE",
"163 687 CURVE",
"181 700 OFFCURVE",
"205 712 OFFCURVE",
"223 718 CURVE",
"259 736 OFFCURVE",
"296 748 OFFCURVE",
"337 736 CURVE",
"350 730 OFFCURVE",
"368 730 OFFCURVE",
"380 730 CURVE",
"392 724 OFFCURVE",
"398 718 OFFCURVE",
"398 706 CURVE",
"398 700 OFFCURVE",
"404 694 OFFCURVE",
"404 687 CURVE",
"404 694 OFFCURVE",
"410 694 OFFCURVE",
"410 700 CURVE",
"416 706 OFFCURVE",
"428 712 OFFCURVE",
"434 700 CURVE",
"441 687 OFFCURVE",
"446 670 OFFCURVE",
"452 658 CURVE",
"452 652 OFFCURVE",
"452 646 OFFCURVE",
"458 639 CURVE",
"470 622 OFFCURVE",
"470 609 OFFCURVE",
"446 598 CURVE",
"446 598 OFFCURVE",
"446 585 OFFCURVE",
"446 585 CURVE",
"452 567 OFFCURVE",
"458 555 OFFCURVE",
"452 531 CURVE",
"441 494 OFFCURVE",
"434 453 OFFCURVE",
"428 416 CURVE",
"422 392 OFFCURVE",
"398 381 OFFCURVE",
"380 392 CURVE",
"361 405 OFFCURVE",
"350 392 OFFCURVE",
"344 386 CURVE",
"331 381 OFFCURVE",
"337 368 OFFCURVE",
"337 362 CURVE",
"350 332 OFFCURVE",
"368 301 OFFCURVE",
"374 272 CURVE",
"386 218 OFFCURVE",
"392 163 OFFCURVE",
"398 108 CURVE",
"404 73 OFFCURVE",
"410 43 OFFCURVE",
"410 6 CURVE",
"410 -5 OFFCURVE",
"410 -11 OFFCURVE",
"392 -5 CURVE",
"350 6 OFFCURVE",
"350 37 OFFCURVE",
"344 67 CURVE",
"331 115 OFFCURVE",
"313 163 OFFCURVE",
"302 212 CURVE",
"296 223 OFFCURVE",
"277 236 OFFCURVE",
"272 253 CURVE",
"259 277 OFFCURVE",
"253 296 OFFCURVE",
"248 320 CURVE",
"241 332 OFFCURVE",
"241 338 OFFCURVE",
"229 338 CURVE",
"217 344 OFFCURVE",
"205 362 OFFCURVE",
"211 381 CURVE",
"211 392 OFFCURVE",
"229 386 OFFCURVE",
"241 392 CURVE",
"265 398 OFFCURVE",
"289 411 OFFCURVE",
"313 422 CURVE",
"320 422 OFFCURVE",
"326 429 OFFCURVE",
"326 429 CURVE",
"361 446 OFFCURVE",
"374 465 OFFCURVE",
"368 507 CURVE"
);
},
{
closed = 1;
nodes = (
"410 658 OFFCURVE",
"404 658 OFFCURVE",
"404 658 CURVE",
"410 652 OFFCURVE",
"416 652 OFFCURVE",
"422 646 CURVE",
"422 646 OFFCURVE",
"422 646 OFFCURVE",
"422 646 CURVE",
"416 652 OFFCURVE",
"416 658 OFFCURVE",
"410 663 CURVE"
);
}
);
width = 496;
}
);
unicode = 0052;
},
{
glyphname = S;
lastChange = "2018-02-05 22:19:59 +0000";
layers = (
{
layerId = "7185A08A-2B1C-4BBD-ABBC-D0B58775A973";
paths = (
{
closed = 1;
nodes = (
"382 733 OFFCURVE",
"410 733 OFFCURVE",
"437 726 CURVE",
"444 726 OFFCURVE",
"451 712 OFFCURVE",
"458 706 CURVE",
"451 698 OFFCURVE",
"444 691 OFFCURVE",
"437 691 CURVE",
"402 677 OFFCURVE",
"375 677 OFFCURVE",
"348 671 CURVE",
"313 656 OFFCURVE",
"285 629 OFFCURVE",
"250 615 CURVE",
"209 588 OFFCURVE",
"217 546 OFFCURVE",
"202 519 CURVE",
"188 498 OFFCURVE",
"202 470 OFFCURVE",
"202 450 CURVE",
"209 450 OFFCURVE",
"209 442 OFFCURVE",
"209 442 CURVE",
"217 415 OFFCURVE",
"230 409 OFFCURVE",
"250 415 CURVE",
"265 422 OFFCURVE",
"279 415 OFFCURVE",
"285 401 CURVE",
"313 380 OFFCURVE",
"348 359 OFFCURVE",
"368 332 CURVE",
"396 297 OFFCURVE",
"416 263 OFFCURVE",
"444 228 CURVE",
"458 208 OFFCURVE",
"451 193 OFFCURVE",
"437 173 CURVE",
"423 153 OFFCURVE",
"416 132 OFFCURVE",
"410 111 CURVE",
"402 104 OFFCURVE",
"402 104 OFFCURVE",
"402 97 CURVE",
"375 76 OFFCURVE",
"348 49 OFFCURVE",
"327 28 CURVE",
"300 0 OFFCURVE",
"265 -7 OFFCURVE",
"237 -13 CURVE",
"217 -21 OFFCURVE",
"202 -27 OFFCURVE",
"182 -27 CURVE",
"147 -42 OFFCURVE",
"105 -55 OFFCURVE",
"71 -34 CURVE",
"64 -34 OFFCURVE",
"64 -34 OFFCURVE",
"57 -34 CURVE",
"36 -42 OFFCURVE",
"30 -42 OFFCURVE",
"30 -13 CURVE",
"30 21 OFFCURVE",
"30 56 OFFCURVE",
"30 91 CURVE",
"36 97 OFFCURVE",
"36 104 OFFCURVE",
"43 104 CURVE",
"43 104 OFFCURVE",
"51 104 OFFCURVE",
"57 97 CURVE",
"64 97 OFFCURVE",
"71 97 OFFCURVE",
"78 91 CURVE",
"84 76 OFFCURVE",
"92 70 OFFCURVE",
"99 56 CURVE",
"105 35 OFFCURVE",
"134 28 OFFCURVE",
"147 49 CURVE",
"161 56 OFFCURVE",
"167 56 OFFCURVE",
"182 56 CURVE",
"217 56 OFFCURVE",
"250 70 OFFCURVE",
"265 97 CURVE",
"300 145 OFFCURVE",
"327 193 OFFCURVE",
"354 242 CURVE",
"361 249 OFFCURVE",
"361 256 OFFCURVE",
"348 263 CURVE",
"300 297 OFFCURVE",
"258 332 OFFCURVE",
"209 359 CURVE",
"209 359 OFFCURVE",
"209 367 OFFCURVE",
"202 367 CURVE",
"147 374 OFFCURVE",
"161 422 OFFCURVE",
"154 457 CURVE",
"147 477 OFFCURVE",
"154 505 OFFCURVE",
"154 532 CURVE",
"154 546 OFFCURVE",
"154 560 OFFCURVE",
"154 573 CURVE",
"154 581 OFFCURVE",
"154 588 OFFCURVE",
"154 594 CURVE",
"182 643 OFFCURVE",
"217 691 OFFCURVE",
"265 726 CURVE",
"279 733 OFFCURVE",
"300 733 OFFCURVE",
"313 733 CURVE",
"327 733 OFFCURVE",
"348 733 OFFCURVE",
"361 733 CURVE",
"361 733 OFFCURVE",
"361 733 OFFCURVE",
"361 733 CURVE"
);
},
{
closed = 1;
nodes = (
"223 484 OFFCURVE",
"217 484 OFFCURVE",
"217 484 CURVE",
"217 490 OFFCURVE",
"209 490 OFFCURVE",
"209 490 CURVE",
"209 498 OFFCURVE",
"217 498 OFFCURVE",
"217 498 CURVE",
"217 498 OFFCURVE",
"223 490 OFFCURVE",
"230 484 CURVE"
);
}
);
width = 488;
}
);
unicode = 0053;
},
{
glyphname = T;
lastChange = "2018-02-05 22:20:09 +0000";
layers = (
{
layerId = "7185A08A-2B1C-4BBD-ABBC-D0B58775A973";
paths = (
{
closed = 1;
nodes = (
"272 642 OFFCURVE",
"249 642 OFFCURVE",
"221 637 CURVE",
"221 637 OFFCURVE",
"209 631 OFFCURVE",
"209 625 CURVE",
"203 579 OFFCURVE",
"203 534 OFFCURVE",
"198 489 CURVE",
"192 414 OFFCURVE",
"186 334 OFFCURVE",
"181 260 CURVE",
"181 237 OFFCURVE",
"175 214 OFFCURVE",
"175 191 CURVE",
"181 129 OFFCURVE",
"158 71 OFFCURVE",
"152 8 CURVE",
"152 3 OFFCURVE",
"141 -3 OFFCURVE",
"135 -9 CURVE",
"135 -3 OFFCURVE",
"124 3 OFFCURVE",
"124 8 CURVE",
"124 25 OFFCURVE",
"124 37 OFFCURVE",
"107 43 CURVE",
"107 43 OFFCURVE",
"101 49 OFFCURVE",
"101 49 CURVE",
"84 49 OFFCURVE",
"78 49 OFFCURVE",
"84 71 CURVE",
"84 83 OFFCURVE",
"78 100 OFFCURVE",
"84 117 CURVE",
"89 151 OFFCURVE",
"89 186 OFFCURVE",
"101 220 CURVE",
"129 283 OFFCURVE",
"118 351 OFFCURVE",
"124 414 CURVE",
"124 426 OFFCURVE",
"129 436 OFFCURVE",
"129 448 CURVE",
"141 511 OFFCURVE",
"129 574 OFFCURVE",
"124 637 CURVE",
"124 648 OFFCURVE",
"118 648 OFFCURVE",
"107 648 CURVE",
"84 654 OFFCURVE",
"55 654 OFFCURVE",
"32 654 CURVE",
"27 654 OFFCURVE",
"21 665 OFFCURVE",
"10 671 CURVE",
"15 677 OFFCURVE",
"27 677 OFFCURVE",
"32 683 CURVE",
"32 683 OFFCURVE",
"38 683 OFFCURVE",
"38 683 CURVE",
"72 717 OFFCURVE",
"118 705 OFFCURVE",
"158 711 CURVE",
"181 717 OFFCURVE",
"209 717 OFFCURVE",
"238 717 CURVE",
"249 717 OFFCURVE",
"266 705 OFFCURVE",
"283 694 CURVE",
"295 688 OFFCURVE",
"307 677 OFFCURVE",
"318 665 CURVE",
"324 660 OFFCURVE",
"324 654 OFFCURVE",
"324 648 CURVE",
"324 648 OFFCURVE",
"318 642 OFFCURVE",
"312 642 CURVE",
"307 642 OFFCURVE",
"300 642 OFFCURVE",
"295 642 CURVE"
);
}
);
width = 334;
}
);
unicode = 0054;
},
{
glyphname = U;
lastChange = "2018-02-05 22:20:16 +0000";
layers = (
{
layerId = "7185A08A-2B1C-4BBD-ABBC-D0B58775A973";
paths = (
{
closed = 1;
nodes = (
"72 94 OFFCURVE",
"45 94 OFFCURVE",
"19 107 CURVE",
"6 107 OFFCURVE",
"6 107 OFFCURVE",
"-8 107 CURVE",
"-8 107 OFFCURVE",
"-22 107 OFFCURVE",
"-22 107 CURVE",
"-22 107 OFFCURVE",
"-22 107 OFFCURVE",
"-22 107 CURVE",
"6 94 OFFCURVE",
"33 82 OFFCURVE",
"59 82 CURVE",
"99 82 OFFCURVE",
"126 82 OFFCURVE",
"152 82 CURVE",
"139 82 OFFCURVE",
"126 82 OFFCURVE",
"112 94 CURVE"
);
},
{
closed = 1;
nodes = (
"59 67 OFFCURVE",
"72 67 OFFCURVE",
"72 67 CURVE",
"72 67 OFFCURVE",
"59 67 OFFCURVE",
"59 67 CURVE"
);
},
{
closed = 1;
nodes = (
"460 722 OFFCURVE",
"460 734 OFFCURVE",
"446 734 CURVE",
"433 734 OFFCURVE",
"419 734 OFFCURVE",
"405 734 CURVE",
"393 722 OFFCURVE",
"379 707 OFFCURVE",
"393 694 CURVE",
"405 680 OFFCURVE",
"419 667 OFFCURVE",
"419 655 CURVE",
"419 641 OFFCURVE",
"419 627 OFFCURVE",
"419 613 CURVE",
"446 588 OFFCURVE",
"446 546 OFFCURVE",
"446 521 CURVE",
"446 467 OFFCURVE",
"446 413 OFFCURVE",
"446 361 CURVE",
"446 321 OFFCURVE",
"433 294 OFFCURVE",
"433 267 CURVE",
"433 254 OFFCURVE",
"419 240 OFFCURVE",
"419 228 CURVE",
"405 215 OFFCURVE",
"405 200 OFFCURVE",
"393 188 CURVE",
"393 188 OFFCURVE",
"393 188 OFFCURVE",
"393 188 CURVE",
"405 188 OFFCURVE",
"405 200 OFFCURVE",
"419 200 CURVE",
"405 161 OFFCURVE",
"393 134 OFFCURVE",
"379 94 CURVE",
"366 82 OFFCURVE",
"366 82 OFFCURVE",
"366 67 CURVE",
"352 54 OFFCURVE",
"326 54 OFFCURVE",
"312 54 CURVE",
"300 67 OFFCURVE",
"286 67 OFFCURVE",
"272 82 CURVE",
"286 94 OFFCURVE",
"286 94 OFFCURVE",
"300 107 CURVE",
"300 107 OFFCURVE",
"286 107 OFFCURVE",
"272 107 CURVE",
"272 94 OFFCURVE",
"259 94 OFFCURVE",
"259 94 CURVE",
"219 121 OFFCURVE",
"205 161 OFFCURVE",
"179 188 CURVE",
"179 188 OFFCURVE",
"179 200 OFFCURVE",
"193 200 CURVE",
"205 200 OFFCURVE",
"219 215 OFFCURVE",
"219 228 CURVE",
"233 228 OFFCURVE",
"233 228 OFFCURVE",
"245 240 CURVE",
"245 240 OFFCURVE",
"259 240 OFFCURVE",
"259 240 CURVE",
"259 240 OFFCURVE",
"259 240 OFFCURVE",
"259 254 CURVE",
"259 254 OFFCURVE",
"272 254 OFFCURVE",
"272 254 CURVE",
"166 200 LINE",
"139 254 OFFCURVE",
"112 307 OFFCURVE",
"99 374 CURVE",
"99 400 OFFCURVE",
"99 428 OFFCURVE",
"99 455 CURVE",
"112 507 OFFCURVE",
"112 546 OFFCURVE",
"126 588 CURVE",
"139 613 OFFCURVE",
"139 641 OFFCURVE",
"139 680 CURVE",
"152 694 OFFCURVE",
"152 694 OFFCURVE",
"139 707 CURVE",
"139 707 OFFCURVE",
"126 707 OFFCURVE",
"126 707 CURVE",
"99 641 OFFCURVE",
"72 561 OFFCURVE",
"45 495 CURVE",
"45 480 OFFCURVE",
"45 480 OFFCURVE",
"45 467 CURVE",
"33 428 OFFCURVE",
"45 374 OFFCURVE",
"45 321 CURVE",
"59 267 OFFCURVE",
"72 215 OFFCURVE",
"112 173 CURVE",
"85 161 LINE",
"112 161 OFFCURVE",
"112 148 OFFCURVE",
"112 148 CURVE",
"112 148 OFFCURVE",
"112 148 OFFCURVE",
"112 148 CURVE",
"139 121 OFFCURVE",
"152 94 OFFCURVE",
"179 67 CURVE",
"166 67 OFFCURVE",
"139 67 OFFCURVE",
"126 67 CURVE",
"112 67 OFFCURVE",
"99 67 OFFCURVE",
"99 67 CURVE",
"99 54 OFFCURVE",
"112 54 OFFCURVE",
"126 54 CURVE",
"139 54 OFFCURVE",
"152 54 OFFCURVE",
"152 54 CURVE",
"152 54 OFFCURVE",
"166 54 OFFCURVE",
"166 54 CURVE",
"166 54 OFFCURVE",
"166 54 OFFCURVE",
"166 54 CURVE",
"166 54 OFFCURVE",
"179 54 OFFCURVE",
"179 54 CURVE",
"193 54 OFFCURVE",
"193 54 OFFCURVE",
"193 54 CURVE",
"193 54 OFFCURVE",
"205 54 OFFCURVE",
"205 54 CURVE",
"219 27 OFFCURVE",
"245 15 OFFCURVE",
"286 1 CURVE",
"312 -13 OFFCURVE",
"339 -13 OFFCURVE",
"379 15 CURVE",
"405 27 OFFCURVE",
"419 54 OFFCURVE",
"433 82 CURVE",
"446 107 OFFCURVE",
"460 148 OFFCURVE",
"460 173 CURVE",
"472 215 OFFCURVE",
"485 254 OFFCURVE",
"485 307 CURVE",
"500 321 OFFCURVE",
"500 347 OFFCURVE",
"500 361 CURVE",
"500 388 OFFCURVE",
"500 400 OFFCURVE",
"500 413 CURVE",
"500 440 OFFCURVE",
"500 455 OFFCURVE",
"500 480 CURVE",
"512 507 OFFCURVE",
"512 521 OFFCURVE",
"512 546 CURVE",
"512 588 OFFCURVE",
"512 613 OFFCURVE",
"500 655 CURVE",
"500 667 OFFCURVE",
"485 694 OFFCURVE",
"472 722 CURVE"
);
},
{
closed = 1;
nodes = (
"339 254 OFFCURVE",
"393 188 OFFCURVE",
"393 188 CURVE",
"405 200 OFFCURVE",
"405 240 OFFCURVE",
"419 267 CURVE",
"405 254 OFFCURVE",
"352 267 OFFCURVE",
"352 254 CURVE"
);
},
{
closed = 1;
nodes = (
"419 267 OFFCURVE",
"419 267 OFFCURVE",
"419 267 CURVE",
"419 267 OFFCURVE",
"433 267 OFFCURVE",
"433 280 CURVE"
);
}
);
width = 562;
}
);
unicode = 0055;
},
{
glyphname = Udieresis;
lastChange = "2018-02-05 22:39:29 +0000";
layers = (
{
layerId = "7185A08A-2B1C-4BBD-ABBC-D0B58775A973";
paths = (
{
closed = 1;
nodes = (
"72 94 OFFCURVE",
"45 94 OFFCURVE",
"19 107 CURVE",
"6 107 OFFCURVE",
"6 107 OFFCURVE",
"-8 107 CURVE",
"-8 107 OFFCURVE",
"-22 107 OFFCURVE",
"-22 107 CURVE",
"-22 107 OFFCURVE",
"-22 107 OFFCURVE",
"-22 107 CURVE",
"6 94 OFFCURVE",
"33 82 OFFCURVE",
"59 82 CURVE",
"99 82 OFFCURVE",
"126 82 OFFCURVE",
"152 82 CURVE",
"139 82 OFFCURVE",
"126 82 OFFCURVE",
"112 94 CURVE"
);
},
{
closed = 1;
nodes = (
"59 67 OFFCURVE",
"72 67 OFFCURVE",
"72 67 CURVE",
"72 67 OFFCURVE",
"59 67 OFFCURVE",
"59 67 CURVE"
);
},
{
closed = 1;
nodes = (
"460 722 OFFCURVE",
"460 734 OFFCURVE",
"446 734 CURVE",
"433 734 OFFCURVE",
"419 734 OFFCURVE",
"405 734 CURVE",
"393 722 OFFCURVE",
"379 707 OFFCURVE",
"393 694 CURVE",
"405 680 OFFCURVE",
"419 667 OFFCURVE",
"419 655 CURVE",
"419 641 OFFCURVE",
"419 627 OFFCURVE",
"419 613 CURVE",
"446 588 OFFCURVE",
"446 546 OFFCURVE",
"446 521 CURVE",
"446 467 OFFCURVE",
"446 413 OFFCURVE",
"446 361 CURVE",
"446 321 OFFCURVE",
"433 294 OFFCURVE",
"433 267 CURVE",
"433 254 OFFCURVE",
"419 240 OFFCURVE",
"419 228 CURVE",
"405 215 OFFCURVE",
"405 200 OFFCURVE",
"393 188 CURVE",
"393 188 OFFCURVE",
"393 188 OFFCURVE",
"393 188 CURVE",
"405 188 OFFCURVE",
"405 200 OFFCURVE",
"419 200 CURVE",
"405 161 OFFCURVE",
"393 134 OFFCURVE",
"379 94 CURVE",
"366 82 OFFCURVE",
"366 82 OFFCURVE",
"366 67 CURVE",
"352 54 OFFCURVE",
"326 54 OFFCURVE",
"312 54 CURVE",
"300 67 OFFCURVE",
"286 67 OFFCURVE",
"272 82 CURVE",
"286 94 OFFCURVE",
"286 94 OFFCURVE",
"300 107 CURVE",
"300 107 OFFCURVE",
"286 107 OFFCURVE",
"272 107 CURVE",
"272 94 OFFCURVE",
"259 94 OFFCURVE",
"259 94 CURVE",
"219 121 OFFCURVE",
"205 161 OFFCURVE",
"179 188 CURVE",
"179 188 OFFCURVE",
"179 200 OFFCURVE",
"193 200 CURVE",
"205 200 OFFCURVE",
"219 215 OFFCURVE",
"219 228 CURVE",
"233 228 OFFCURVE",
"233 228 OFFCURVE",
"245 240 CURVE",
"245 240 OFFCURVE",
"259 240 OFFCURVE",
"259 240 CURVE",
"259 240 OFFCURVE",
"259 240 OFFCURVE",
"259 254 CURVE",
"259 254 OFFCURVE",
"272 254 OFFCURVE",
"272 254 CURVE",
"166 200 LINE",
"139 254 OFFCURVE",
"112 307 OFFCURVE",
"99 374 CURVE",
"99 400 OFFCURVE",
"99 428 OFFCURVE",
"99 455 CURVE",
"112 507 OFFCURVE",
"112 546 OFFCURVE",
"126 588 CURVE",
"139 613 OFFCURVE",
"139 641 OFFCURVE",
"139 680 CURVE",
"152 694 OFFCURVE",
"152 694 OFFCURVE",
"139 707 CURVE",
"139 707 OFFCURVE",
"126 707 OFFCURVE",
"126 707 CURVE",
"99 641 OFFCURVE",
"72 561 OFFCURVE",
"45 495 CURVE",
"45 480 OFFCURVE",
"45 480 OFFCURVE",
"45 467 CURVE",
"33 428 OFFCURVE",
"45 374 OFFCURVE",
"45 321 CURVE",
"59 267 OFFCURVE",
"72 215 OFFCURVE",
"112 173 CURVE",
"85 161 LINE",
"112 161 OFFCURVE",
"112 148 OFFCURVE",
"112 148 CURVE",
"112 148 OFFCURVE",
"112 148 OFFCURVE",
"112 148 CURVE",
"139 121 OFFCURVE",
"152 94 OFFCURVE",
"179 67 CURVE",
"166 67 OFFCURVE",
"139 67 OFFCURVE",
"126 67 CURVE",
"112 67 OFFCURVE",
"99 67 OFFCURVE",
"99 67 CURVE",
"99 54 OFFCURVE",
"112 54 OFFCURVE",
"126 54 CURVE",
"139 54 OFFCURVE",
"152 54 OFFCURVE",
"152 54 CURVE",
"152 54 OFFCURVE",
"166 54 OFFCURVE",
"166 54 CURVE",
"166 54 OFFCURVE",
"166 54 OFFCURVE",
"166 54 CURVE",
"166 54 OFFCURVE",
"179 54 OFFCURVE",
"179 54 CURVE",
"193 54 OFFCURVE",
"193 54 OFFCURVE",
"193 54 CURVE",
"193 54 OFFCURVE",
"205 54 OFFCURVE",
"205 54 CURVE",
"219 27 OFFCURVE",
"245 15 OFFCURVE",
"286 1 CURVE",
"312 -13 OFFCURVE",
"339 -13 OFFCURVE",
"379 15 CURVE",
"405 27 OFFCURVE",
"419 54 OFFCURVE",
"433 82 CURVE",
"446 107 OFFCURVE",
"460 148 OFFCURVE",
"460 173 CURVE",
"472 215 OFFCURVE",
"485 254 OFFCURVE",
"485 307 CURVE",
"500 321 OFFCURVE",
"500 347 OFFCURVE",
"500 361 CURVE",
"500 388 OFFCURVE",
"500 400 OFFCURVE",
"500 413 CURVE",
"500 440 OFFCURVE",
"500 455 OFFCURVE",
"500 480 CURVE",
"512 507 OFFCURVE",
"512 521 OFFCURVE",
"512 546 CURVE",
"512 588 OFFCURVE",
"512 613 OFFCURVE",
"500 655 CURVE",
"500 667 OFFCURVE",
"485 694 OFFCURVE",
"472 722 CURVE"
);
},
{
closed = 1;
nodes = (
"339 254 OFFCURVE",
"393 188 OFFCURVE",
"393 188 CURVE",
"405 200 OFFCURVE",
"405 240 OFFCURVE",
"419 267 CURVE",
"405 254 OFFCURVE",
"352 267 OFFCURVE",
"352 254 CURVE"
);
},
{
closed = 1;
nodes = (
"419 267 OFFCURVE",
"419 267 OFFCURVE",
"419 267 CURVE",
"419 267 OFFCURVE",
"433 267 OFFCURVE",
"433 280 CURVE"
);
},
{
closed = 1;
nodes = (
"201 687 OFFCURVE",
"197 688 OFFCURVE",
"193 688 CURVE",
"195 701 OFFCURVE",
"175 710 OFFCURVE",
"179 717 CURVE",
"191 738 OFFCURVE",
"203 758 OFFCURVE",
"215 773 CURVE",
"219 779 OFFCURVE",
"254 777 OFFCURVE",
"263 779 CURVE",
"263 779 OFFCURVE",
"235 744 OFFCURVE",
"240 740 CURVE",
"231 702 OFFCURVE",
"237 693 OFFCURVE",
"205 688 CURVE"
);
},
{
closed = 1;
nodes = (
"289 692 OFFCURVE",
"283 695 OFFCURVE",
"279 695 CURVE",
"281 708 OFFCURVE",
"285 730 OFFCURVE",
"289 737 CURVE SMOOTH",
"301 758 OFFCURVE",
"310 754 OFFCURVE",
"322 769 CURVE",
"327 775 OFFCURVE",
"342 782 OFFCURVE",
"351 784 CURVE SMOOTH",
"351 784 OFFCURVE",
"356 772 OFFCURVE",
"356 772 CURVE",
"347 734 OFFCURVE",
"325 698 OFFCURVE",
"293 693 CURVE"
);
}
);
width = 562;
}
);
leftMetricsKey = "=U";
rightMetricsKey = "=U";
unicode = 00DC;
},
{
glyphname = V;
lastChange = "2018-02-05 22:20:28 +0000";
layers = (
{
layerId = "7185A08A-2B1C-4BBD-ABBC-D0B58775A973";
paths = (
{
closed = 1;
nodes = (
"70 684 OFFCURVE",
"73 676 OFFCURVE",
"76 667 CURVE",
"77 661 OFFCURVE",
"79 655 OFFCURVE",
"80 649 CURVE",
"80 646 OFFCURVE",
"79 642 OFFCURVE",
"81 639 CURVE",
"99 603 OFFCURVE",
"85 563 OFFCURVE",
"92 526 CURVE",
"99 496 OFFCURVE",
"103 466 OFFCURVE",
"107 436 CURVE",
"108 425 OFFCURVE",
"104 413 OFFCURVE",
"105 402 CURVE",
"106 374 OFFCURVE",
"107 346 OFFCURVE",
"111 318 CURVE",
"113 298 OFFCURVE",
"119 278 OFFCURVE",
"124 258 CURVE",
"125 256 OFFCURVE",
"127 254 OFFCURVE",
"128 252 CURVE",
"129 254 OFFCURVE",
"131 256 OFFCURVE",
"132 258 CURVE",
"142 277 OFFCURVE",
"152 297 OFFCURVE",
"162 317 CURVE",
"170 332 OFFCURVE",
"182 347 OFFCURVE",
"189 362 CURVE",
"208 405 OFFCURVE",
"227 448 OFFCURVE",
"245 491 CURVE",
"248 499 OFFCURVE",
"246 510 OFFCURVE",
"249 519 CURVE",
"256 541 OFFCURVE",
"264 563 OFFCURVE",
"274 583 CURVE",
"285 605 OFFCURVE",
"302 625 OFFCURVE",
"313 647 CURVE",
"328 677 OFFCURVE",
"346 702 OFFCURVE",
"381 710 CURVE",
"385 711 OFFCURVE",
"388 715 OFFCURVE",
"390 718 CURVE",
"403 732 OFFCURVE",
"427 732 OFFCURVE",
"439 716 CURVE",
"441 713 OFFCURVE",
"441 705 OFFCURVE",
"438 701 CURVE",
"417 666 OFFCURVE",
"395 632 OFFCURVE",
"375 597 CURVE",
"356 564 OFFCURVE",
"338 530 OFFCURVE",
"320 497 CURVE",
"300 458 OFFCURVE",
"281 419 OFFCURVE",
"260 380 CURVE",
"256 372 OFFCURVE",
"250 365 OFFCURVE",
"246 358 CURVE",
"232 329 OFFCURVE",
"218 299 OFFCURVE",
"205 270 CURVE",
"189 232 OFFCURVE",
"174 193 OFFCURVE",
"159 155 CURVE",
"158 153 OFFCURVE",
"157 151 OFFCURVE",
"156 149 CURVE",
"154 144 OFFCURVE",
"151 140 OFFCURVE",
"148 135 CURVE",
"147 139 OFFCURVE",
"147 144 OFFCURVE",
"146 149 CURVE",
"146 151 OFFCURVE",
"144 152 OFFCURVE",
"143 154 CURVE",
"141 153 OFFCURVE",
"139 151 OFFCURVE",
"138 149 CURVE",
"120 118 OFFCURVE",
"110 84 OFFCURVE",
"110 48 CURVE",
"110 31 OFFCURVE",
"85 3 OFFCURVE",
"68 2 CURVE",
"63 1 OFFCURVE",
"57 8 OFFCURVE",
"54 13 CURVE",
"44 36 OFFCURVE",
"55 58 OFFCURVE",
"64 76 CURVE",
"83 114 OFFCURVE",
"80 153 OFFCURVE",
"81 192 CURVE",
"81 220 OFFCURVE",
"84 248 OFFCURVE",
"82 276 CURVE",
"79 311 OFFCURVE",
"73 346 OFFCURVE",
"69 382 CURVE",
"67 401 OFFCURVE",
"71 423 OFFCURVE",
"64 440 CURVE",
"50 472 OFFCURVE",
"52 506 OFFCURVE",
"47 540 CURVE",
"42 584 OFFCURVE",
"35 627 OFFCURVE",
"31 670 CURVE",
"29 687 OFFCURVE",
"32 704 OFFCURVE",
"35 721 CURVE",
"36 725 OFFCURVE",
"44 732 OFFCURVE",
"47 732 CURVE",
"54 730 OFFCURVE",
"62 725 OFFCURVE",
"66 718 CURVE",
"69 712 OFFCURVE",
"69 702 OFFCURVE",
"71 694 CURVE",
"69 694 OFFCURVE",
"68 694 OFFCURVE",
"67 693 CURVE"
);
}
);
width = 470;
}
);
unicode = 0056;
},
{
glyphname = W;
lastChange = "2018-01-13 17:37:08 +0000";
layers = (
{
layerId = "7185A08A-2B1C-4BBD-ABBC-D0B58775A973";
paths = (
{
closed = 1;
nodes = (
"93 699 OFFCURVE",
"99 686 OFFCURVE",
"101 674 CURVE",
"104 653 OFFCURVE",
"104 632 OFFCURVE",
"104 611 CURVE",
"106 585 OFFCURVE",
"102 558 OFFCURVE",
"106 532 CURVE",
"110 499 OFFCURVE",
"118 467 OFFCURVE",
"124 434 CURVE",
"130 383 OFFCURVE",
"138 334 OFFCURVE",
"146 283 CURVE",
"148 270 OFFCURVE",
"157 262 OFFCURVE",
"160 249 CURVE",
"167 228 OFFCURVE",
"173 207 OFFCURVE",
"177 186 CURVE",
"179 179 OFFCURVE",
"179 170 OFFCURVE",
"181 163 CURVE",
"181 161 OFFCURVE",
"183 158 OFFCURVE",
"185 156 CURVE",
"189 158 OFFCURVE",
"190 160 OFFCURVE",
"192 163 CURVE",
"192 168 OFFCURVE",
"192 172 OFFCURVE",
"193 177 CURVE",
"193 185 OFFCURVE",
"195 191 OFFCURVE",
"199 197 CURVE",
"218 234 OFFCURVE",
"240 270 OFFCURVE",
"257 307 CURVE",
"271 335 OFFCURVE",
"281 367 OFFCURVE",
"308 388 CURVE",
"318 397 OFFCURVE",
"322 391 OFFCURVE",
"327 383 CURVE",
"334 367 OFFCURVE",
"343 352 OFFCURVE",
"352 338 CURVE",
"354 337 OFFCURVE",
"359 337 OFFCURVE",
"362 338 CURVE",
"368 342 OFFCURVE",
"371 348 OFFCURVE",
"377 352 CURVE",
"380 346 OFFCURVE",
"385 340 OFFCURVE",
"387 334 CURVE",
"395 301 OFFCURVE",
"403 272 OFFCURVE",
"410 240 CURVE",
"411 238 OFFCURVE",
"413 237 OFFCURVE",
"415 235 CURVE",
"415 237 OFFCURVE",
"417 238 OFFCURVE",
"419 240 CURVE",
"420 258 OFFCURVE",
"422 275 OFFCURVE",
"426 295 CURVE",
"434 342 OFFCURVE",
"442 389 OFFCURVE",
"456 437 CURVE",
"475 502 OFFCURVE",
"497 566 OFFCURVE",
"522 630 CURVE",
"533 656 OFFCURVE",
"550 683 OFFCURVE",
"568 707 CURVE",
"577 721 OFFCURVE",
"582 711 OFFCURVE",
"585 702 CURVE",
"587 699 OFFCURVE",
"589 697 OFFCURVE",
"591 694 CURVE",
"593 697 OFFCURVE",
"594 699 OFFCURVE",
"596 701 CURVE",
"603 707 OFFCURVE",
"610 711 OFFCURVE",
"617 717 CURVE",
"619 707 OFFCURVE",
"621 695 OFFCURVE",
"619 688 CURVE",
"593 629 OFFCURVE",
"566 568 OFFCURVE",
"542 511 CURVE",
"531 485 OFFCURVE",
"520 458 OFFCURVE",
"510 432 CURVE",
"507 425 OFFCURVE",
"510 416 OFFCURVE",
"508 407 CURVE",
"507 395 OFFCURVE",
"508 379 OFFCURVE",
"503 367 CURVE",
"485 319 OFFCURVE",
"478 270 OFFCURVE",
"471 221 CURVE",
"466 183 OFFCURVE",
"466 142 OFFCURVE",
"462 101 CURVE",
"460 91 OFFCURVE",
"456 81 OFFCURVE",
"454 70 CURVE",
"454 65 OFFCURVE",
"456 56 OFFCURVE",
"457 54 CURVE",
"469 47 OFFCURVE",
"464 44 OFFCURVE",
"459 36 CURVE",
"450 30 OFFCURVE",
"444 19 OFFCURVE",
"436 12 CURVE",
"434 10 OFFCURVE",
"429 8 OFFCURVE",
"426 8 CURVE",
"405 10 OFFCURVE",
"393 24 OFFCURVE",
"381 38 CURVE",
"369 54 OFFCURVE",
"359 71 OFFCURVE",
"348 89 CURVE",
"344 93 OFFCURVE",
"344 100 OFFCURVE",
"343 105 CURVE",
"329 151 OFFCURVE",
"317 197 OFFCURVE",
"303 240 CURVE",
"303 242 OFFCURVE",
"301 244 OFFCURVE",
"299 246 CURVE",
"297 246 OFFCURVE",
"295 244 OFFCURVE",
"293 242 CURVE",
"250 187 OFFCURVE",
"220 126 OFFCURVE",
"190 63 CURVE",
"189 59 OFFCURVE",
"189 52 OFFCURVE",
"187 49 CURVE",
"185 44 OFFCURVE",
"179 38 OFFCURVE",
"175 36 CURVE",
"173 36 OFFCURVE",
"165 42 OFFCURVE",
"164 46 CURVE",
"160 58 OFFCURVE",
"159 70 OFFCURVE",
"153 81 CURVE",
"146 101 OFFCURVE",
"134 121 OFFCURVE",
"126 140 CURVE",
"118 156 OFFCURVE",
"111 173 OFFCURVE",
"106 191 CURVE",
"99 219 OFFCURVE",
"95 251 OFFCURVE",
"88 279 CURVE",
"77 316 OFFCURVE",
"65 351 OFFCURVE",
"55 386 CURVE",
"53 395 OFFCURVE",
"53 405 OFFCURVE",
"51 416 CURVE",
"50 430 OFFCURVE",
"48 444 OFFCURVE",
"34 456 CURVE",
"26 462 OFFCURVE",
"30 479 OFFCURVE",
"30 491 CURVE",
"32 513 OFFCURVE",
"34 532 OFFCURVE",
"36 553 CURVE",
"36 564 OFFCURVE",
"37 574 OFFCURVE",
"39 585 CURVE",
"41 588 OFFCURVE",
"43 593 OFFCURVE",
"43 597 CURVE",
"41 629 OFFCURVE",
"39 660 OFFCURVE",
"37 692 CURVE",
"36 706 OFFCURVE",
"37 717 OFFCURVE",
"51 723 CURVE",
"59 727 OFFCURVE",
"65 734 OFFCURVE",
"71 739 CURVE",
"81 750 OFFCURVE",
"88 748 OFFCURVE",
"90 734 CURVE",
"92 727 OFFCURVE",
"92 719 OFFCURVE",
"93 713 CURVE",
"92 713 OFFCURVE",
"90 713 OFFCURVE",
"88 711 CURVE"
);
}
);
width = 600;
}
);
unicode = 0057;
},
{
glyphname = X;
lastChange = "2018-02-05 22:21:10 +0000";
layers = (
{
layerId = "7185A08A-2B1C-4BBD-ABBC-D0B58775A973";
paths = (
{
closed = 1;
nodes = (
"52 21 OFFCURVE",
"59 35 OFFCURVE",
"65 50 CURVE",
"81 94 OFFCURVE",
"108 132 OFFCURVE",
"115 179 CURVE",
"118 193 OFFCURVE",
"129 206 OFFCURVE",
"136 221 CURVE",
"138 223 OFFCURVE",
"141 229 OFFCURVE",
"140 231 CURVE",
"131 246 OFFCURVE",
"140 259 OFFCURVE",
"147 272 CURVE",
"168 305 OFFCURVE",
"183 343 OFFCURVE",
"213 371 CURVE",
"223 380 OFFCURVE",
"225 393 OFFCURVE",
"215 406 CURVE",
"192 441 OFFCURVE",
"168 477 OFFCURVE",
"145 512 CURVE",
"120 550 OFFCURVE",
"101 589 OFFCURVE",
"73 624 CURVE",
"54 646 OFFCURVE",
"54 673 OFFCURVE",
"40 696 CURVE",
"39 699 OFFCURVE",
"41 706 OFFCURVE",
"44 708 CURVE",
"47 710 OFFCURVE",
"53 710 OFFCURVE",
"57 709 CURVE",
"62 706 OFFCURVE",
"67 701 OFFCURVE",
"73 698 CURVE",
"76 695 OFFCURVE",
"84 693 OFFCURVE",
"87 694 CURVE",
"107 705 OFFCURVE",
"116 691 OFFCURVE",
"126 679 CURVE",
"136 666 OFFCURVE",
"143 653 OFFCURVE",
"160 647 CURVE",
"169 644 OFFCURVE",
"175 629 OFFCURVE",
"181 620 CURVE",
"189 606 OFFCURVE",
"195 591 OFFCURVE",
"202 577 CURVE",
"222 542 OFFCURVE",
"241 508 OFFCURVE",
"261 474 CURVE",
"265 470 OFFCURVE",
"270 465 OFFCURVE",
"275 460 CURVE",
"279 465 OFFCURVE",
"283 468 OFFCURVE",
"287 473 CURVE",
"324 537 OFFCURVE",
"363 600 OFFCURVE",
"401 663 CURVE",
"409 676 OFFCURVE",
"418 688 OFFCURVE",
"428 701 CURVE",
"430 705 OFFCURVE",
"434 707 OFFCURVE",
"437 709 CURVE",
"451 714 OFFCURVE",
"465 720 OFFCURVE",
"478 725 CURVE",
"482 726 OFFCURVE",
"487 726 OFFCURVE",
"490 726 CURVE",
"489 722 OFFCURVE",
"490 719 OFFCURVE",
"488 715 CURVE",
"475 693 OFFCURVE",
"461 672 OFFCURVE",
"449 649 CURVE",
"443 638 OFFCURVE",
"443 622 OFFCURVE",
"436 611 CURVE",
"402 561 OFFCURVE",
"366 513 OFFCURVE",
"333 464 CURVE",
"321 445 OFFCURVE",
"316 421 OFFCURVE",
"307 400 CURVE",
"304 396 OFFCURVE",
"300 392 OFFCURVE",
"296 389 CURVE",
"289 383 OFFCURVE",
"284 379 OFFCURVE",
"295 372 CURVE",
"299 370 OFFCURVE",
"301 363 OFFCURVE",
"302 357 CURVE",
"309 330 OFFCURVE",
"314 303 OFFCURVE",
"321 276 CURVE",
"322 270 OFFCURVE",
"331 268 OFFCURVE",
"336 263 CURVE",
"342 257 OFFCURVE",
"350 251 OFFCURVE",
"351 244 CURVE",
"359 208 OFFCURVE",
"363 171 OFFCURVE",
"370 136 CURVE",
"378 94 OFFCURVE",
"389 51 OFFCURVE",
"398 8 CURVE",
"400 0 OFFCURVE",
"398 -9 OFFCURVE",
"398 -17 CURVE",
"398 -29 OFFCURVE",
"398 -42 OFFCURVE",
"398 -54 CURVE",
"397 -60 OFFCURVE",
"394 -65 OFFCURVE",
"391 -71 CURVE",
"387 -67 OFFCURVE",
"381 -64 OFFCURVE",
"378 -59 CURVE",
"374 -47 OFFCURVE",
"370 -34 OFFCURVE",
"366 -22 CURVE",
"350 15 OFFCURVE",
"335 50 OFFCURVE",
"322 87 CURVE",
"309 122 OFFCURVE",
"300 159 OFFCURVE",
"290 196 CURVE",
"280 231 OFFCURVE",
"272 266 OFFCURVE",
"262 302 CURVE",
"261 304 OFFCURVE",
"260 307 OFFCURVE",
"257 311 CURVE",
"255 315 OFFCURVE",
"252 322 OFFCURVE",
"248 322 CURVE",
"245 320 OFFCURVE",
"239 316 OFFCURVE",
"236 311 CURVE",
"227 292 OFFCURVE",
"218 273 OFFCURVE",
"207 255 CURVE",
"192 226 OFFCURVE",
"175 198 OFFCURVE",
"160 170 CURVE",
"159 168 OFFCURVE",
"156 165 OFFCURVE",
"155 162 CURVE",
"139 107 OFFCURVE",
"105 61 OFFCURVE",
"82 8 CURVE",
"79 1 OFFCURVE",
"67 -4 OFFCURVE",
"59 -7 CURVE",
"55 -9 OFFCURVE",
"49 -2 OFFCURVE",
"42 2 CURVE"
);
}
);
width = 530;
}
);
unicode = 0058;
},
{
glyphname = Y;
lastChange = "2018-02-05 22:20:55 +0000";
layers = (
{
layerId = "7185A08A-2B1C-4BBD-ABBC-D0B58775A973";
paths = (
{
closed = 1;
nodes = (
"146 66 OFFCURVE",
"148 87 OFFCURVE",
"151 109 CURVE",
"160 153 OFFCURVE",
"173 198 OFFCURVE",
"182 241 CURVE",
"190 297 OFFCURVE",
"204 347 OFFCURVE",
"201 394 CURVE",
"200 405 OFFCURVE",
"199 410 OFFCURVE",
"193 414 CURVE",
"176 454 OFFCURVE",
"149 488 OFFCURVE",
"133 527 CURVE",
"110 572 OFFCURVE",
"82 610 OFFCURVE",
"51 643 CURVE",
"44 647 OFFCURVE",
"43 658 OFFCURVE",
"49 659 CURVE",
"52 670 OFFCURVE",
"50 680 OFFCURVE",
"39 683 CURVE",
"32 693 OFFCURVE",
"26 698 OFFCURVE",
"35 709 CURVE",
"35 709 OFFCURVE",
"34 715 OFFCURVE",
"34 715 CURVE",
"38 726 OFFCURVE",
"47 733 OFFCURVE",
"52 744 CURVE",
"58 735 OFFCURVE",
"70 731 OFFCURVE",
"75 727 CURVE",
"88 712 OFFCURVE",
"91 692 OFFCURVE",
"104 672 CURVE",
"119 648 OFFCURVE",
"139 624 OFFCURVE",
"153 600 CURVE",
"161 585 OFFCURVE",
"169 565 OFFCURVE",
"177 550 CURVE",
"178 545 OFFCURVE",
"185 535 OFFCURVE",
"191 531 CURVE",
"190 536 OFFCURVE",
"195 537 OFFCURVE",
"200 544 CURVE",
"205 544 OFFCURVE",
"208 555 OFFCURVE",
"208 555 CURVE",
"213 556 OFFCURVE",
"223 557 OFFCURVE",
"229 558 CURVE",
"235 554 OFFCURVE",
"237 543 OFFCURVE",
"237 543 CURVE",
"233 533 OFFCURVE",
"230 516 OFFCURVE",
"221 508 CURVE",
"207 497 OFFCURVE",
"198 485 OFFCURVE",
"212 471 CURVE",
"213 460 OFFCURVE",
"219 455 OFFCURVE",
"220 446 CURVE",
"225 451 OFFCURVE",
"229 457 OFFCURVE",
"233 463 CURVE",
"254 504 OFFCURVE",
"269 543 OFFCURVE",
"291 579 CURVE",
"315 625 OFFCURVE",
"340 667 OFFCURVE",
"365 713 CURVE",
"370 720 OFFCURVE",
"379 726 OFFCURVE",
"384 732 CURVE",
"388 733 OFFCURVE",
"399 735 OFFCURVE",
"405 730 CURVE",
"405 730 OFFCURVE",
"402 719 OFFCURVE",
"402 719 CURVE",
"355 642 OFFCURVE",
"320 556 OFFCURVE",
"285 471 CURVE",
"282 460 OFFCURVE",
"279 449 OFFCURVE",
"269 437 CURVE",
"269 437 OFFCURVE",
"265 430 OFFCURVE",
"266 425 CURVE",
"252 376 OFFCURVE",
"240 320 OFFCURVE",
"227 270 CURVE",
"228 260 OFFCURVE",
"230 249 OFFCURVE",
"231 239 CURVE",
"232 234 OFFCURVE",
"232 234 OFFCURVE",
"232 234 CURVE",
"225 179 OFFCURVE",
"217 124 OFFCURVE",
"214 71 CURVE",
"208 48 OFFCURVE",
"205 26 OFFCURVE",
"203 6 CURVE",
"199 -1 OFFCURVE",
"190 -8 OFFCURVE",
"185 -8 CURVE",
"179 -9 OFFCURVE",
"168 -6 OFFCURVE",
"167 0 CURVE",
"159 14 OFFCURVE",
"152 29 OFFCURVE",
"144 44 CURVE"
);
}
);
width = 435;
}
);
unicode = 0059;
},
{
glyphname = Z;
lastChange = "2018-02-05 22:23:06 +0000";
layers = (
{
layerId = "7185A08A-2B1C-4BBD-ABBC-D0B58775A973";
paths = (
{
closed = 1;
nodes = (
"358 -4 OFFCURVE",
"307 -11 OFFCURVE",
"255 -18 CURVE",
"206 -26 OFFCURVE",
"154 -36 OFFCURVE",
"101 -22 CURVE",
"89 -18 OFFCURVE",
"73 -22 OFFCURVE",
"63 -16 CURVE",
"47 -13 OFFCURVE",
"33 -6 OFFCURVE",
"20 3 CURVE",
"14 9 OFFCURVE",
"8 22 OFFCURVE",
"10 29 CURVE",
"18 84 OFFCURVE",
"37 136 OFFCURVE",
"65 183 CURVE",
"73 201 OFFCURVE",
"85 218 OFFCURVE",
"73 241 CURVE",
"69 248 OFFCURVE",
"75 263 OFFCURVE",
"83 274 CURVE",
"107 311 OFFCURVE",
"132 348 OFFCURVE",
"155 385 CURVE",
"159 391 OFFCURVE",
"157 402 OFFCURVE",
"157 409 CURVE",
"159 413 OFFCURVE",
"157 418 OFFCURVE",
"159 421 CURVE",
"183 448 OFFCURVE",
"207 478 OFFCURVE",
"233 503 CURVE",
"257 535 OFFCURVE",
"286 564 OFFCURVE",
"313 595 CURVE",
"323 605 OFFCURVE",
"331 617 OFFCURVE",
"340 628 CURVE",
"343 633 OFFCURVE",
"341 637 OFFCURVE",
"343 641 CURVE",
"337 643 OFFCURVE",
"334 644 OFFCURVE",
"331 643 CURVE",
"309 637 OFFCURVE",
"288 629 OFFCURVE",
"265 624 CURVE",
"246 619 OFFCURVE",
"228 623 OFFCURVE",
"210 629 CURVE",
"195 637 OFFCURVE",
"172 634 OFFCURVE",
"155 634 CURVE",
"141 636 OFFCURVE",
"124 636 OFFCURVE",
"110 637 CURVE",
"107 639 OFFCURVE",
"99 650 OFFCURVE",
"101 653 CURVE",
"101 657 OFFCURVE",
"111 664 OFFCURVE",
"116 662 CURVE",
"150 653 OFFCURVE",
"179 678 OFFCURVE",
"210 678 CURVE",
"254 711 OFFCURVE",
"304 696 OFFCURVE",
"353 699 CURVE",
"374 701 OFFCURVE",
"391 701 OFFCURVE",
"398 728 CURVE",
"398 731 OFFCURVE",
"403 733 OFFCURVE",
"405 734 CURVE",
"406 733 OFFCURVE",
"408 728 OFFCURVE",
"409 726 CURVE",
"415 723 OFFCURVE",
"420 718 OFFCURVE",
"425 718 CURVE",
"433 718 OFFCURVE",
"442 722 OFFCURVE",
"450 725 CURVE",
"473 736 OFFCURVE",
"491 725 OFFCURVE",
"508 711 CURVE",
"512 708 OFFCURVE",
"515 699 OFFCURVE",
"514 696 CURVE",
"512 692 OFFCURVE",
"507 688 OFFCURVE",
"501 688 CURVE",
"488 686 OFFCURVE",
"478 688 OFFCURVE",
"466 686 CURVE",
"457 684 OFFCURVE",
"444 682 OFFCURVE",
"454 665 CURVE",
"457 662 OFFCURVE",
"451 651 OFFCURVE",
"447 646 CURVE",
"433 633 OFFCURVE",
"416 619 OFFCURVE",
"406 602 CURVE",
"399 596 OFFCURVE",
"399 581 OFFCURVE",
"398 571 CURVE",
"398 564 OFFCURVE",
"398 557 OFFCURVE",
"387 564 CURVE",
"382 565 OFFCURVE",
"372 564 OFFCURVE",
"368 561 CURVE",
"329 512 OFFCURVE",
"288 463 OFFCURVE",
"251 413 CURVE",
"219 372 OFFCURVE",
"192 327 OFFCURVE",
"168 282 CURVE",
"145 246 OFFCURVE",
"130 207 OFFCURVE",
"114 169 CURVE",
"107 154 OFFCURVE",
"105 139 OFFCURVE",
"99 126 CURVE",
"93 112 OFFCURVE",
"85 102 OFFCURVE",
"80 90 CURVE",
"72 77 OFFCURVE",
"66 64 OFFCURVE",
"60 50 CURVE",
"60 47 OFFCURVE",
"58 39 OFFCURVE",
"60 37 CURVE",
"63 33 OFFCURVE",
"69 32 OFFCURVE",
"73 32 CURVE",
"119 37 OFFCURVE",
"162 45 OFFCURVE",
"207 49 CURVE",
"217 50 OFFCURVE",
"228 45 OFFCURVE",
"241 43 CURVE",
"257 40 OFFCURVE",
"275 40 OFFCURVE",
"291 39 CURVE",
"311 39 OFFCURVE",
"333 43 OFFCURVE",
"353 36 CURVE",
"378 26 OFFCURVE",
"401 32 OFFCURVE",
"426 39 CURVE",
"442 45 OFFCURVE",
"460 45 OFFCURVE",
"477 32 CURVE",
"478 30 OFFCURVE",
"481 26 OFFCURVE",
"481 23 CURVE",
"481 20 OFFCURVE",
"477 16 OFFCURVE",
"473 14 CURVE",
"451 11 OFFCURVE",
"430 5 OFFCURVE",
"408 2 CURVE",
"408 2 OFFCURVE",
"408 3 OFFCURVE",
"408 3 CURVE"
);
},
{
closed = 1;
nodes = (
"406 794 OFFCURVE",
"408 777 OFFCURVE",
"408 761 CURVE",
"408 758 OFFCURVE",
"405 756 OFFCURVE",
"403 752 CURVE",
"401 753 OFFCURVE",
"398 758 OFFCURVE",
"398 760 CURVE",
"398 777 OFFCURVE",
"399 794 OFFCURVE",
"401 809 CURVE",
"401 815 OFFCURVE",
"405 819 OFFCURVE",
"406 825 CURVE",
"408 819 OFFCURVE",
"408 815 OFFCURVE",
"409 812 CURVE",
"408 812 OFFCURVE",
"406 812 OFFCURVE",
"406 809 CURVE"
);
}
);
width = 524;
}
);
unicode = 005A;
},
{
glyphname = a;
lastChange = "2018-02-05 22:27:19 +0000";
layers = (
{
layerId = "7185A08A-2B1C-4BBD-ABBC-D0B58775A973";
paths = (
{
closed = 1;
nodes = (
"324 530 OFFCURVE",
"353 493 OFFCURVE",
"352 460 CURVE",
"371 382 OFFCURVE",
"379 305 OFFCURVE",
"387 239 CURVE",
"395 182 OFFCURVE",
"415 138 OFFCURVE",
"424 94 CURVE",
"423 72 OFFCURVE",
"453 52 OFFCURVE",
"452 29 CURVE",
"431 43 OFFCURVE",
"410 44 OFFCURVE",
"399 54 CURVE",
"376 55 OFFCURVE",
"365 55 OFFCURVE",
"354 46 CURVE",
"321 34 OFFCURVE",
"298 14 OFFCURVE",
"275 4 CURVE",
"207 -36 OFFCURVE",
"75 -30 OFFCURVE",
"36 70 CURVE",
"26 103 OFFCURVE",
"27 125 OFFCURVE",
"50 146 CURVE",
"97 188 OFFCURVE",
"130 219 OFFCURVE",
"176 262 CURVE",
"198 272 OFFCURVE",
"233 291 OFFCURVE",
"255 290 CURVE",
"309 288 OFFCURVE",
"311 333 OFFCURVE",
"313 367 CURVE",
"313 367 OFFCURVE",
"302 376 OFFCURVE",
"302 376 CURVE",
"305 455 OFFCURVE",
"305 455 OFFCURVE",
"227 436 CURVE",
"205 426 OFFCURVE",
"194 426 OFFCURVE",
"173 427 CURVE",
"162 427 OFFCURVE",
"129 440 OFFCURVE",
"129 450 CURVE",
"130 463 OFFCURVE",
"141 483 OFFCURVE",
"153 494 CURVE",
"208 503 OFFCURVE",
"265 522 OFFCURVE",
"309 530 CURVE"
);
},
{
closed = 1;
nodes = (
"179 74 OFFCURVE",
"200 51 OFFCURVE",
"232 61 CURVE SMOOTH",
"321 89 OFFCURVE",
"325 122 OFFCURVE",
"318 211 CURVE",
"307 245 OFFCURVE",
"296 246 OFFCURVE",
"274 235 CURVE",
"217 193 OFFCURVE",
"152 186 OFFCURVE",
"126 121 CURVE",
"114 110 OFFCURVE",
"103 89 OFFCURVE",
"103 89 CURVE",
"113 77 OFFCURVE",
"124 66 OFFCURVE",
"135 65 CURVE"
);
}
);
width = 482;
}
);
rightMetricsKey = "=|";
unicode = 0061;
},
{
glyphname = adieresis;
lastChange = "2018-02-05 22:40:47 +0000";
layers = (
{
layerId = "7185A08A-2B1C-4BBD-ABBC-D0B58775A973";
paths = (
{
closed = 1;
nodes = (
"334 530 OFFCURVE",
"363 493 OFFCURVE",
"362 460 CURVE",
"381 382 OFFCURVE",
"389 305 OFFCURVE",
"397 239 CURVE",
"405 182 OFFCURVE",
"425 138 OFFCURVE",
"434 94 CURVE",
"433 72 OFFCURVE",
"463 52 OFFCURVE",
"462 29 CURVE",
"441 43 OFFCURVE",
"420 44 OFFCURVE",
"409 54 CURVE",
"386 55 OFFCURVE",
"375 55 OFFCURVE",
"364 46 CURVE",
"331 34 OFFCURVE",
"308 14 OFFCURVE",
"285 4 CURVE",
"217 -36 OFFCURVE",
"85 -30 OFFCURVE",
"46 70 CURVE",
"36 103 OFFCURVE",
"37 125 OFFCURVE",
"60 146 CURVE",
"107 188 OFFCURVE",
"140 219 OFFCURVE",
"186 262 CURVE",
"208 272 OFFCURVE",
"243 291 OFFCURVE",
"265 290 CURVE",
"319 288 OFFCURVE",
"321 333 OFFCURVE",
"323 367 CURVE",
"323 367 OFFCURVE",
"312 376 OFFCURVE",
"312 376 CURVE",
"315 455 OFFCURVE",
"315 455 OFFCURVE",
"237 436 CURVE",
"215 426 OFFCURVE",
"204 426 OFFCURVE",
"183 427 CURVE",
"172 427 OFFCURVE",
"139 440 OFFCURVE",
"139 450 CURVE",
"140 463 OFFCURVE",
"151 483 OFFCURVE",
"163 494 CURVE",
"218 503 OFFCURVE",
"275 522 OFFCURVE",
"319 530 CURVE"
);
},
{
closed = 1;
nodes = (
"189 74 OFFCURVE",
"210 51 OFFCURVE",
"242 61 CURVE SMOOTH",
"331 89 OFFCURVE",
"335 122 OFFCURVE",
"328 211 CURVE",
"317 245 OFFCURVE",
"306 246 OFFCURVE",
"284 235 CURVE",
"227 193 OFFCURVE",
"162 186 OFFCURVE",
"136 121 CURVE",
"124 110 OFFCURVE",
"113 89 OFFCURVE",
"113 89 CURVE",
"123 77 OFFCURVE",
"134 66 OFFCURVE",
"145 65 CURVE"
);
},
{
closed = 1;
nodes = (
"332 585 OFFCURVE",
"326 588 OFFCURVE",
"322 588 CURVE",
"324 601 OFFCURVE",
"328 608 OFFCURVE",
"332 615 CURVE",
"344 636 OFFCURVE",
"361 652 OFFCURVE",
"373 667 CURVE",
"377 673 OFFCURVE",
"385 675 OFFCURVE",
"394 677 CURVE",
"394 677 OFFCURVE",
"399 665 OFFCURVE",
"399 665 CURVE",
"390 627 OFFCURVE",
"368 591 OFFCURVE",
"336 586 CURVE"
);
},
{
closed = 1;
nodes = (
"120 572 OFFCURVE",
"114 575 OFFCURVE",
"110 575 CURVE",
"112 588 OFFCURVE",
"89 595 OFFCURVE",
"93 602 CURVE",
"105 623 OFFCURVE",
"127 651 OFFCURVE",
"139 666 CURVE SMOOTH",
"144 672 OFFCURVE",
"173 662 OFFCURVE",
"182 664 CURVE",
"182 664 OFFCURVE",
"187 652 OFFCURVE",
"187 652 CURVE",
"178 614 OFFCURVE",
"156 578 OFFCURVE",
"124 573 CURVE"
);
}
);
width = 522;
}
);
leftMetricsKey = "=u";
rightMetricsKey = "=u";
unicode = 00E4;
},
{
glyphname = b;
lastChange = "2018-02-05 22:29:08 +0000";
layers = (
{
layerId = "7185A08A-2B1C-4BBD-ABBC-D0B58775A973";
paths = (
{
closed = 1;
nodes = (
"238 -16 OFFCURVE",
"199 -26 OFFCURVE",
"167 -26 CURVE",
"152 -26 OFFCURVE",
"134 -16 OFFCURVE",
"127 3 CURVE",
"90 43 OFFCURVE",
"65 82 OFFCURVE",
"90 160 CURVE",
"112 230 OFFCURVE",
"105 318 OFFCURVE",
"119 388 CURVE",
"142 515 OFFCURVE",
"167 632 OFFCURVE",
"191 752 CURVE",
"199 771 OFFCURVE",
"214 781 OFFCURVE",
"224 790 CURVE",
"231 800 OFFCURVE",
"245 800 OFFCURVE",
"253 800 CURVE",
"261 800 OFFCURVE",
"275 809 OFFCURVE",
"275 809 CURVE",
"282 800 OFFCURVE",
"282 781 OFFCURVE",
"282 771 CURVE",
"268 700 OFFCURVE",
"245 632 OFFCURVE",
"231 556 CURVE",
"214 495 OFFCURVE",
"217 525 OFFCURVE",
"202 467 CURVE",
"202 445 OFFCURVE",
"210 435 OFFCURVE",
"210 427 CURVE",
"217 427 OFFCURVE",
"246 467 OFFCURVE",
"235 435 CURVE",
"272 445 OFFCURVE",
"311 459 OFFCURVE",
"343 459 CURVE",
"383 467 OFFCURVE",
"383 417 OFFCURVE",
"390 398 CURVE",
"435 291 OFFCURVE",
"372 123 OFFCURVE",
"339 25 CURVE",
"332 3 OFFCURVE",
"300 -7 OFFCURVE",
"275 -26 CURVE",
"275 -16 OFFCURVE",
"275 -16 OFFCURVE",
"275 -7 CURVE"
);
},
{
closed = 1;
nodes = (
"292 72 OFFCURVE",
"292 82 OFFCURVE",
"315 160 CURVE",
"336 282 OFFCURVE",
"311 319 OFFCURVE",
"336 348 CURVE",
"343 348 OFFCURVE",
"326 369 OFFCURVE",
"326 369 CURVE",
"318 369 OFFCURVE",
"311 357 OFFCURVE",
"303 348 CURVE",
"293 348 OFFCURVE",
"286 329 OFFCURVE",
"279 329 CURVE",
"264 319 OFFCURVE",
"242 319 OFFCURVE",
"225 319 CURVE",
"217 310 OFFCURVE",
"202 310 OFFCURVE",
"202 301 CURVE",
"178 259 OFFCURVE",
"197 230 OFFCURVE",
"179 192 CURVE",
"172 180 OFFCURVE",
"152 145 OFFCURVE",
"134 82 CURVE",
"134 72 OFFCURVE",
"152 72 OFFCURVE",
"152 72 CURVE",
"174 72 OFFCURVE",
"199 82 OFFCURVE",
"224 82 CURVE"
);
}
);
width = 456;
}
);
unicode = 0062;
},
{
glyphname = c;
lastChange = "2018-02-05 22:27:11 +0000";
layers = (
{
layerId = "7185A08A-2B1C-4BBD-ABBC-D0B58775A973";
paths = (
{
closed = 1;
nodes = (
"123 -34 OFFCURVE",
"78 31 OFFCURVE",
"55 136 CURVE",
"32 294 OFFCURVE",
"88 437 OFFCURVE",
"213 516 CURVE",
"234 529 OFFCURVE",
"280 516 OFFCURVE",
"314 516 CURVE",
"314 502 OFFCURVE",
"302 464 OFFCURVE",
"302 464 CURVE",
"178 464 OFFCURVE",
"157 345 OFFCURVE",
"123 254 CURVE SMOOTH",
"123 254 OFFCURVE",
"123 239 OFFCURVE",
"123 239 CURVE",
"78 123 OFFCURVE",
"145 83 OFFCURVE",
"258 97 CURVE",
"280 97 OFFCURVE",
"314 83 OFFCURVE",
"314 83 CURVE",
"325 18 OFFCURVE",
"302 -7 OFFCURVE",
"258 -21 CURVE",
"245 -21 OFFCURVE",
"234 -21 OFFCURVE",
"234 -21 CURVE"
);
}
);
width = 367;
}
);
rightMetricsKey = "=|";
unicode = 0063;
},
{
glyphname = d;
lastChange = "2018-02-05 22:28:54 +0000";
layers = (
{
layerId = "7185A08A-2B1C-4BBD-ABBC-D0B58775A973";
paths = (
{
closed = 1;
nodes = (
"263 514 OFFCURVE",
"282 501 OFFCURVE",
"301 501 CURVE",
"315 497 OFFCURVE",
"330 507 OFFCURVE",
"334 520 CURVE",
"346 536 OFFCURVE",
"363 624 OFFCURVE",
"380 713 CURVE",
"385 734 OFFCURVE",
"385 754 OFFCURVE",
"389 776 CURVE",
"393 786 OFFCURVE",
"406 792 OFFCURVE",
"415 801 CURVE",
"419 792 OFFCURVE",
"432 781 OFFCURVE",
"432 770 CURVE",
"432 682 OFFCURVE",
"377 575 OFFCURVE",
"377 492 CURVE",
"377 481 OFFCURVE",
"377 471 OFFCURVE",
"373 465 CURVE SMOOTH",
"341 417 OFFCURVE",
"373 344 OFFCURVE",
"376 187 CURVE",
"380 145 OFFCURVE",
"402 102 OFFCURVE",
"402 61 CURVE",
"406 41 OFFCURVE",
"380 14 OFFCURVE",
"367 -6 CURVE",
"359 4 OFFCURVE",
"346 19 OFFCURVE",
"337 30 CURVE",
"328 46 OFFCURVE",
"324 61 OFFCURVE",
"316 77 CURVE",
"303 57 OFFCURVE",
"285 41 OFFCURVE",
"281 19 CURVE",
"277 -6 OFFCURVE",
"268 -17 OFFCURVE",
"251 -12 CURVE",
"225 -6 OFFCURVE",
"203 -1 OFFCURVE",
"177 10 CURVE",
"168 14 OFFCURVE",
"160 19 OFFCURVE",
"151 19 CURVE",
"112 4 OFFCURVE",
"86 30 OFFCURVE",
"60 57 CURVE",
"52 66 OFFCURVE",
"47 87 OFFCURVE",
"52 98 CURVE",
"73 207 OFFCURVE",
"79 374 OFFCURVE",
"147 478 CURVE",
"166 501 OFFCURVE",
"205 507 OFFCURVE",
"234 520 CURVE"
);
},
{
closed = 1;
nodes = (
"253 392 OFFCURVE",
"248 392 OFFCURVE",
"248 398 CURVE",
"220 381 OFFCURVE",
"181 369 OFFCURVE",
"171 337 CURVE",
"164 243 OFFCURVE",
"155 181 OFFCURVE",
"155 124 CURVE",
"155 108 OFFCURVE",
"199 93 OFFCURVE",
"225 77 CURVE",
"233 72 OFFCURVE",
"259 77 OFFCURVE",
"264 87 CURVE",
"277 118 OFFCURVE",
"316 149 OFFCURVE",
"320 187 CURVE",
"324 223 OFFCURVE",
"281 254 OFFCURVE",
"292 327 CURVE",
"306 381 OFFCURVE",
"292 392 OFFCURVE",
"253 387 CURVE"
);
}
);
width = 512;
}
);
unicode = 0064;
},
{
glyphname = e;
lastChange = "2018-02-05 22:27:52 +0000";
layers = (
{
layerId = "7185A08A-2B1C-4BBD-ABBC-D0B58775A973";
paths = (
{
closed = 1;
nodes = (
"242 254 OFFCURVE",
"242 254 OFFCURVE",
"242 254 CURVE",
"214 254 OFFCURVE",
"174 264 OFFCURVE",
"174 254 CURVE",
"165 225 OFFCURVE",
"118 186 OFFCURVE",
"127 157 CURVE",
"127 99 OFFCURVE",
"223 70 OFFCURVE",
"261 41 CURVE",
"271 32 OFFCURVE",
"291 32 OFFCURVE",
"300 22 CURVE",
"310 11 OFFCURVE",
"320 3 OFFCURVE",
"330 -7 CURVE",
"320 -7 OFFCURVE",
"300 -27 OFFCURVE",
"291 -17 CURVE",
"271 -17 OFFCURVE",
"242 -7 OFFCURVE",
"223 3 CURVE",
"204 11 OFFCURVE",
"194 22 OFFCURVE",
"174 22 CURVE",
"145 22 OFFCURVE",
"68 81 OFFCURVE",
"58 108 CURVE",
"58 119 OFFCURVE",
"58 128 OFFCURVE",
"58 137 CURVE",
"19 157 OFFCURVE",
"29 186 OFFCURVE",
"39 215 CURVE",
"68 274 OFFCURVE",
"97 332 OFFCURVE",
"127 390 CURVE",
"145 419 OFFCURVE",
"165 438 OFFCURVE",
"194 458 CURVE",
"214 477 OFFCURVE",
"232 497 OFFCURVE",
"261 516 CURVE",
"291 545 OFFCURVE",
"339 535 OFFCURVE",
"369 497 CURVE",
"398 458 OFFCURVE",
"417 419 OFFCURVE",
"446 380 CURVE",
"446 371 OFFCURVE",
"446 351 OFFCURVE",
"436 341 CURVE",
"398 274 OFFCURVE",
"320 264 OFFCURVE",
"253 254 CURVE"
);
},
{
closed = 1;
nodes = (
"174 322 OFFCURVE",
"184 312 OFFCURVE",
"194 312 CURVE",
"242 332 OFFCURVE",
"291 341 OFFCURVE",
"339 361 CURVE",
"349 361 OFFCURVE",
"358 380 OFFCURVE",
"349 380 CURVE",
"339 409 OFFCURVE",
"330 428 OFFCURVE",
"310 458 CURVE",
"300 487 OFFCURVE",
"281 487 OFFCURVE",
"261 458 CURVE",
"232 428 OFFCURVE",
"204 390 OFFCURVE",
"174 351 CURVE",
"174 351 OFFCURVE",
"174 341 OFFCURVE",
"165 322 CURVE"
);
}
);
width = 496;
}
);
rightMetricsKey = "=|";
unicode = 0065;
},
{
glyphname = f;
lastChange = "2018-02-05 22:28:50 +0000";
layers = (
{
layerId = "7185A08A-2B1C-4BBD-ABBC-D0B58775A973";
paths = (
{
closed = 1;
nodes = (
"104 65 OFFCURVE",
"110 106 OFFCURVE",
"114 146 CURVE",
"113 161 OFFCURVE",
"96 176 OFFCURVE",
"94 192 CURVE",
"93 208 OFFCURVE",
"75 238 OFFCURVE",
"82 247 CURVE",
"112 272 OFFCURVE",
"117 305 OFFCURVE",
"115 336 CURVE",
"108 432 OFFCURVE",
"141 522 OFFCURVE",
"174 612 CURVE",
"193 661 OFFCURVE",
"212 710 OFFCURVE",
"241 752 CURVE",
"240 760 OFFCURVE",
"240 768 OFFCURVE",
"248 768 CURVE",
"255 777 OFFCURVE",
"270 787 OFFCURVE",
"286 788 CURVE",
"279 779 OFFCURVE",
"280 763 OFFCURVE",
"273 754 CURVE",
"268 731 OFFCURVE",
"269 707 OFFCURVE",
"262 683 CURVE",
"257 650 OFFCURVE",
"242 617 OFFCURVE",
"239 586 CURVE",
"224 560 OFFCURVE",
"211 536 OFFCURVE",
"205 511 CURVE",
"200 471 OFFCURVE",
"195 423 OFFCURVE",
"192 382 CURVE",
"185 350 OFFCURVE",
"188 319 OFFCURVE",
"182 294 CURVE",
"183 272 OFFCURVE",
"193 255 OFFCURVE",
"217 257 CURVE",
"225 258 OFFCURVE",
"234 242 OFFCURVE",
"241 236 CURVE",
"234 235 OFFCURVE",
"227 226 OFFCURVE",
"211 225 CURVE",
"179 222 OFFCURVE",
"172 198 OFFCURVE",
"174 174 CURVE",
"172 118 OFFCURVE",
"169 63 OFFCURVE",
"156 14 CURVE",
"157 0 OFFCURVE",
"142 -11 OFFCURVE",
"135 -19 CURVE",
"126 -3 OFFCURVE",
"109 2 OFFCURVE",
"101 9 CURVE"
);
}
);
width = 366;
}
);
unicode = 0066;
},
{
glyphname = g;
lastChange = "2018-01-13 18:01:02 +0000";
layers = (
{
layerId = "7185A08A-2B1C-4BBD-ABBC-D0B58775A973";
paths = (
{
closed = 1;
nodes = (
"233 437 OFFCURVE",
"279 437 OFFCURVE",
"326 448 CURVE",
"359 448 OFFCURVE",
"383 437 OFFCURVE",
"383 401 CURVE",
"383 333 OFFCURVE",
"424 294 OFFCURVE",
"424 237 CURVE",
"424 190 OFFCURVE",
"400 155 OFFCURVE",
"389 109 CURVE",
"378 29 OFFCURVE",
"330 2 OFFCURVE",
"317 -41 CURVE",
"317 -47 OFFCURVE",
"305 -60 OFFCURVE",
"299 -72 CURVE",
"286 -91 OFFCURVE",
"280 -115 OFFCURVE",
"268 -134 CURVE",
"261 -159 OFFCURVE",
"249 -178 OFFCURVE",
"249 -196 CURVE",
"243 -221 OFFCURVE",
"224 -221 OFFCURVE",
"206 -221 CURVE",
"168 -221 OFFCURVE",
"125 -215 OFFCURVE",
"81 -215 CURVE",
"75 -215 OFFCURVE",
"63 -209 OFFCURVE",
"57 -209 CURVE",
"57 -196 OFFCURVE",
"63 -184 OFFCURVE",
"69 -184 CURVE",
"88 -171 OFFCURVE",
"106 -159 OFFCURVE",
"131 -153 CURVE",
"187 -140 OFFCURVE",
"224 -103 OFFCURVE",
"255 -60 CURVE",
"274 -29 OFFCURVE",
"274 -28 OFFCURVE",
"296 40 CURVE",
"296 51 OFFCURVE",
"296 64 OFFCURVE",
"285 64 CURVE",
"274 64 OFFCURVE",
"263 64 OFFCURVE",
"252 51 CURVE",
"181 -6 OFFCURVE",
"145 15 OFFCURVE",
"63 26 CURVE",
"41 26 OFFCURVE",
"30 84 OFFCURVE",
"30 119 CURVE",
"30 245 OFFCURVE",
"56 379 OFFCURVE",
"138 469 CURVE",
"149 494 OFFCURVE",
"194 482 OFFCURVE",
"217 493 CURVE",
"217 493 OFFCURVE",
"217 482 OFFCURVE",
"228 482 CURVE"
);
},
{
closed = 1;
nodes = (
"228 424 OFFCURVE",
"216 424 OFFCURVE",
"216 435 CURVE",
"205 413 OFFCURVE",
"152 416 OFFCURVE",
"152 403 CURVE",
"141 323 OFFCURVE",
"114 213 OFFCURVE",
"80 156 CURVE",
"80 145 OFFCURVE",
"67 121 OFFCURVE",
"80 98 CURVE",
"80 87 OFFCURVE",
"103 76 OFFCURVE",
"114 76 CURVE",
"160 98 OFFCURVE",
"253 109 OFFCURVE",
"299 133 CURVE",
"379 179 OFFCURVE",
"326 264 OFFCURVE",
"338 333 CURVE",
"338 346 OFFCURVE",
"315 368 OFFCURVE",
"302 368 CURVE",
"280 379 OFFCURVE",
"250 424 OFFCURVE",
"228 424 CURVE"
);
}
);
width = 463;
}
);
unicode = 0067;
},
{
glyphname = h;
lastChange = "2018-01-13 18:03:17 +0000";
layers = (
{
layerId = "7185A08A-2B1C-4BBD-ABBC-D0B58775A973";
paths = (
{
closed = 1;
nodes = (
"398 146 OFFCURVE",
"396 225 OFFCURVE",
"390 303 CURVE",
"381 350 OFFCURVE",
"375 380 OFFCURVE",
"368 413 CURVE",
"344 408 OFFCURVE",
"309 462 OFFCURVE",
"302 446 CURVE",
"203 371 OFFCURVE",
"180 262 OFFCURVE",
"141 164 CURVE",
"140 118 OFFCURVE",
"158 52 OFFCURVE",
"138 26 CURVE",
"120 -2 OFFCURVE",
"112 -14 OFFCURVE",
"102 -16 CURVE",
"100 -6 OFFCURVE",
"84 15 OFFCURVE",
"84 15 CURVE",
"83 126 OFFCURVE",
"94 243 OFFCURVE",
"105 359 CURVE",
"124 488 OFFCURVE",
"136 498 OFFCURVE",
"157 617 CURVE",
"155 673 OFFCURVE",
"167 735 OFFCURVE",
"180 792 CURVE",
"185 818 OFFCURVE",
"224 812 OFFCURVE",
"220 815 CURVE",
"216 800 OFFCURVE",
"234 793 OFFCURVE",
"241 760 CURVE",
"233 678 OFFCURVE",
"237 610 OFFCURVE",
"221 516 CURVE",
"218 481 OFFCURVE",
"252 538 OFFCURVE",
"246 502 CURVE",
"242 467 OFFCURVE",
"220 452 OFFCURVE",
"242 467 CURVE",
"272 487 OFFCURVE",
"288 511 OFFCURVE",
"311 516 CURVE",
"353 534 OFFCURVE",
"386 541 OFFCURVE",
"404 500 CURVE",
"406 490 OFFCURVE",
"406 490 OFFCURVE",
"406 490 CURVE",
"517 458 OFFCURVE",
"495 384 OFFCURVE",
"505 281 CURVE",
"487 198 OFFCURVE",
"491 130 OFFCURVE",
"483 47 CURVE",
"480 12 OFFCURVE",
"449 -5 OFFCURVE",
"441 -16 CURVE",
"426 -9 OFFCURVE",
"441 5 OFFCURVE",
"420 36 CURVE",
"420 36 OFFCURVE",
"418 49 OFFCURVE",
"416 58 CURVE",
"416 58 OFFCURVE",
"416 58 OFFCURVE",
"416 58 CURVE"
);
}
);
width = 600;
}
);
unicode = 0068;
},
{
glyphname = i;
lastChange = "2018-02-05 22:29:28 +0000";
layers = (
{
layerId = "7185A08A-2B1C-4BBD-ABBC-D0B58775A973";
paths = (
{
closed = 1;
nodes = (
"73 63 OFFCURVE",
"77 119 OFFCURVE",
"80 177 CURVE",
"86 269 OFFCURVE",
"91 362 OFFCURVE",
"103 453 CURVE",
"104 469 OFFCURVE",
"135 481 OFFCURVE",
"153 494 CURVE",
"163 471 OFFCURVE",
"181 449 OFFCURVE",
"180 426 CURVE",
"182 340 OFFCURVE",
"177 253 OFFCURVE",
"172 167 CURVE",
"171 143 OFFCURVE",
"164 117 OFFCURVE",
"157 92 CURVE",
"149 68 OFFCURVE",
"138 41 OFFCURVE",
"126 17 CURVE",
"120 3 OFFCURVE",
"108 -9 OFFCURVE",
"97 -16 CURVE",
"92 -19 OFFCURVE",
"81 -7 OFFCURVE",
"70 1 CURVE"
);
},
{
closed = 1;
nodes = (
"178 741 OFFCURVE",
"207 736 OFFCURVE",
"227 720 CURVE",
"235 712 OFFCURVE",
"228 672 OFFCURVE",
"218 656 CURVE",
"200 623 OFFCURVE",
"177 593 OFFCURVE",
"152 567 CURVE",
"149 564 OFFCURVE",
"125 576 OFFCURVE",
"116 587 CURVE",
"109 596 OFFCURVE",
"109 613 OFFCURVE",
"105 626 CURVE",
"87 680 OFFCURVE",
"100 716 OFFCURVE",
"168 743 CURVE"
);
}
);
width = 300;
}
);
unicode = 0069;
},
{
glyphname = j;
lastChange = "2018-02-05 22:29:35 +0000";
layers = (
{
layerId = "7185A08A-2B1C-4BBD-ABBC-D0B58775A973";
paths = (
{
closed = 1;
nodes = (
"320 407 OFFCURVE",
"316 366 OFFCURVE",
"314 328 CURVE",
"320 229 OFFCURVE",
"306 141 OFFCURVE",
"293 51 CURVE",
"276 -38 OFFCURVE",
"224 -57 OFFCURVE",
"176 -103 CURVE",
"152 -125 OFFCURVE",
"134 -148 OFFCURVE",
"109 -161 CURVE",
"100 -162 OFFCURVE",
"82 -157 OFFCURVE",
"73 -159 CURVE",
"70 -148 OFFCURVE",
"68 -130 OFFCURVE",
"77 -129 CURVE",
"123 -72 OFFCURVE",
"170 -16 OFFCURVE",
"208 39 CURVE",
"232 72 OFFCURVE",
"243 121 OFFCURVE",
"246 162 CURVE",
"256 220 OFFCURVE",
"247 278 OFFCURVE",
"250 326 CURVE",
"251 375 OFFCURVE",
"246 413 OFFCURVE",
"247 461 CURVE",
"246 470 OFFCURVE",
"260 494 OFFCURVE",
"260 502 CURVE",
"281 497 OFFCURVE",
"302 478 OFFCURVE",
"310 471 CURVE",
"312 461 OFFCURVE",
"314 443 OFFCURVE",
"315 431 CURVE"
);
},
{
closed = 1;
nodes = (
"215 563 OFFCURVE",
"203 569 OFFCURVE",
"195 568 CURVE",
"200 589 OFFCURVE",
"208 600 OFFCURVE",
"215 611 CURVE",
"239 645 OFFCURVE",
"274 669 OFFCURVE",
"299 693 CURVE",
"306 703 OFFCURVE",
"322 706 OFFCURVE",
"340 710 CURVE",
"340 710 OFFCURVE",
"351 691 OFFCURVE",
"351 691 CURVE",
"333 630 OFFCURVE",
"288 574 OFFCURVE",
"224 565 CURVE"
);
}
);
width = 421;
}
);
unicode = 006A;
},
{
glyphname = k;
lastChange = "2018-02-05 22:30:01 +0000";
layers = (
{
layerId = "7185A08A-2B1C-4BBD-ABBC-D0B58775A973";
paths = (
{
closed = 1;
nodes = (
"217 762 OFFCURVE",
"213 738 OFFCURVE",
"208 715 CURVE",
"202 615 OFFCURVE",
"193 523 OFFCURVE",
"188 423 CURVE",
"190 413 OFFCURVE",
"193 349 OFFCURVE",
"198 329 CURVE",
"217 345 OFFCURVE",
"226 348 OFFCURVE",
"237 350 CURVE",
"251 376 OFFCURVE",
"346 489 OFFCURVE",
"364 505 CURVE",
"375 507 OFFCURVE",
"395 513 OFFCURVE",
"416 519 CURVE",
"408 506 OFFCURVE",
"413 486 OFFCURVE",
"406 472 CURVE",
"381 444 OFFCURVE",
"334 307 OFFCURVE",
"312 267 CURVE",
"312 267 OFFCURVE",
"320 177 OFFCURVE",
"320 177 CURVE",
"372 147 OFFCURVE",
"412 124 OFFCURVE",
"450 101 CURVE",
"463 95 OFFCURVE",
"476 87 OFFCURVE",
"482 66 CURVE",
"492 69 OFFCURVE",
"487 45 OFFCURVE",
"477 43 CURVE",
"467 40 OFFCURVE",
"457 37 OFFCURVE",
"443 45 CURVE",
"391 75 OFFCURVE",
"339 105 OFFCURVE",
"250 276 CURVE",
"250 276 OFFCURVE",
"229 270 OFFCURVE",
"219 267 CURVE",
"243 219 OFFCURVE",
"198 184 OFFCURVE",
"185 147 CURVE",
"171 122 OFFCURVE",
"152 105 OFFCURVE",
"138 80 CURVE",
"130 67 OFFCURVE",
"120 64 OFFCURVE",
"112 52 CURVE",
"110 67 OFFCURVE",
"109 33 OFFCURVE",
"104 10 CURVE",
"96 -4 OFFCURVE",
"86 -6 OFFCURVE",
"86 -6 CURVE",
"73 1 OFFCURVE",
"73 1 OFFCURVE",
"70 12 CURVE",
"82 92 OFFCURVE",
"85 111 OFFCURVE",
"99 180 CURVE",
"105 280 OFFCURVE",
"111 381 OFFCURVE",
"120 470 CURVE",
"114 491 OFFCURVE",
"95 520 OFFCURVE",
"100 543 CURVE",
"101 620 OFFCURVE",
"115 689 OFFCURVE",
"120 756 CURVE",
"126 770 OFFCURVE",
"124 780 OFFCURVE",
"124 780 CURVE",
"139 806 OFFCURVE",
"146 819 OFFCURVE",
"162 845 CURVE",
"177 827 OFFCURVE",
"203 812 OFFCURVE",
"216 805 CURVE"
);
}
);
width = 527;
}
);
unicode = 006B;
},
{
glyphname = l;
lastChange = "2018-02-05 22:30:11 +0000";
layers = (
{
layerId = "7185A08A-2B1C-4BBD-ABBC-D0B58775A973";
paths = (
{
closed = 1;
nodes = (
"82 176 OFFCURVE",
"87 321 OFFCURVE",
"92 466 CURVE",
"95 567 OFFCURVE",
"96 667 OFFCURVE",
"108 773 CURVE",
"114 802 OFFCURVE",
"131 822 OFFCURVE",
"139 840 CURVE",
"154 816 OFFCURVE",
"169 793 OFFCURVE",
"164 762 CURVE",
"164 590 OFFCURVE",
"155 415 OFFCURVE",
"155 243 CURVE",
"155 187 OFFCURVE",
"175 137 OFFCURVE",
"195 85 CURVE",
"200 59 OFFCURVE",
"208 19 OFFCURVE",
"213 -8 CURVE",
"183 -19 OFFCURVE",
"153 -30 OFFCURVE",
"130 -23 CURVE",
"111 -30 OFFCURVE",
"95 -5 OFFCURVE",
"80 19 CURVE"
);
}
);
width = 293;
}
);
unicode = 006C;
},
{
glyphname = m;
lastChange = "2018-02-05 22:30:22 +0000";
layers = (
{
layerId = "7185A08A-2B1C-4BBD-ABBC-D0B58775A973";
paths = (
{
closed = 1;
nodes = (
"213 539 OFFCURVE",
"250 542 OFFCURVE",
"303 547 CURVE",
"318 548 OFFCURVE",
"333 549 OFFCURVE",
"346 577 CURVE",
"364 629 OFFCURVE",
"389 606 OFFCURVE",
"424 544 CURVE",
"452 468 OFFCURVE",
"487 407 OFFCURVE",
"547 412 CURVE",
"562 413 OFFCURVE",
"581 349 OFFCURVE",
"583 324 CURVE",
"576 233 OFFCURVE",
"559 155 OFFCURVE",
"552 63 CURVE",
"539 37 OFFCURVE",
"519 9 OFFCURVE",
"519 9 CURVE",
"502 34 OFFCURVE",
"485 58 OFFCURVE",
"484 71 CURVE",
"482 96 OFFCURVE",
"478 148 OFFCURVE",
"477 160 CURVE",
"484 252 OFFCURVE",
"462 340 OFFCURVE",
"385 360 CURVE",
"371 358 OFFCURVE",
"371 358 OFFCURVE",
"363 358 CURVE",
"365 332 OFFCURVE",
"367 307 OFFCURVE",
"369 293 CURVE",
"371 268 OFFCURVE",
"375 217 OFFCURVE",
"378 178 CURVE",
"346 202 OFFCURVE",
"323 213 OFFCURVE",
"291 237 CURVE",
"273 260 OFFCURVE",
"265 285 OFFCURVE",
"264 299 CURVE",
"219 385 OFFCURVE",
"204 384 OFFCURVE",
"181 292 CURVE",
"166 200 OFFCURVE",
"157 134 OFFCURVE",
"142 43 CURVE",
"127 29 OFFCURVE",
"113 28 OFFCURVE",
"106 27 CURVE",
"89 39 OFFCURVE",
"72 63 OFFCURVE",
"70 89 CURVE",
"91 220 OFFCURVE",
"99 376 OFFCURVE",
"119 520 CURVE",
"125 532 OFFCURVE",
"154 535 OFFCURVE",
"152 561 CURVE"
);
}
);
width = 653;
}
);
unicode = 006D;
},
{
glyphname = n;
lastChange = "2018-02-05 22:30:32 +0000";
layers = (
{
layerId = "7185A08A-2B1C-4BBD-ABBC-D0B58775A973";
paths = (
{
closed = 1;
nodes = (
"343 383 OFFCURVE",
"336 408 OFFCURVE",
"327 436 CURVE",
"301 417 OFFCURVE",
"264 403 OFFCURVE",
"254 375 CURVE",
"215 258 OFFCURVE",
"124 130 OFFCURVE",
"128 -12 CURVE",
"128 -23 OFFCURVE",
"103 -37 OFFCURVE",
"91 -51 CURVE",
"84 -34 OFFCURVE",
"70 -20 OFFCURVE",
"70 -3 CURVE",
"74 147 OFFCURVE",
"70 300 OFFCURVE",
"133 442 CURVE",
"142 461 OFFCURVE",
"133 497 OFFCURVE",
"145 511 CURVE",
"168 533 OFFCURVE",
"212 567 OFFCURVE",
"226 558 CURVE",
"294 503 OFFCURVE",
"302 533 OFFCURVE",
"370 516 CURVE",
"425 505 OFFCURVE",
"458 472 OFFCURVE",
"445 408 CURVE",
"414 286 OFFCURVE",
"431 233 OFFCURVE",
"415 58 CURVE",
"411 38 OFFCURVE",
"387 24 OFFCURVE",
"373 8 CURVE",
"364 30 OFFCURVE",
"348 52 OFFCURVE",
"348 74 CURVE",
"334 203 OFFCURVE",
"341 278 OFFCURVE",
"345 378 CURVE"
);
}
);
width = 518;
}
);
leftMetricsKey = "=m";
rightMetricsKey = "=|";
unicode = 006E;
},
{
glyphname = o;
lastChange = "2018-02-05 22:30:38 +0000";
layers = (
{
layerId = "7185A08A-2B1C-4BBD-ABBC-D0B58775A973";
paths = (
{
closed = 1;
nodes = (
"309 530 OFFCURVE",
"341 542 OFFCURVE",
"375 529 CURVE",
"404 518 OFFCURVE",
"388 502 OFFCURVE",
"390 478 CURVE",
"482 375 OFFCURVE",
"478 271 OFFCURVE",
"476 168 CURVE",
"476 136 OFFCURVE",
"398 91 OFFCURVE",
"394 60 CURVE",
"386 -9 OFFCURVE",
"337 3 OFFCURVE",
"272 21 CURVE",
"217 40 OFFCURVE",
"164 73 OFFCURVE",
"117 107 CURVE",
"81 133 OFFCURVE",
"71 112 OFFCURVE",
"40 144 CURVE",
"65 161 OFFCURVE",
"63 193 OFFCURVE",
"84 232 CURVE",
"110 284 OFFCURVE",
"121 347 OFFCURVE",
"156 391 CURVE",
"200 446 OFFCURVE",
"206 500 OFFCURVE",
"260 546 CURVE",
"264 541 OFFCURVE",
"267 537 OFFCURVE",
"271 533 CURVE"
);
},
{
closed = 1;
nodes = (
"263 140 OFFCURVE",
"376 152 OFFCURVE",
"383 175 CURVE",
"443 217 OFFCURVE",
"407 315 OFFCURVE",
"419 380 CURVE",
"422 401 OFFCURVE",
"329 425 OFFCURVE",
"326 446 CURVE",
"306 432 OFFCURVE",
"373 414 OFFCURVE",
"275 395 CURVE",
"242 342 OFFCURVE",
"212 285 OFFCURVE",
"182 228 CURVE",
"154 171 OFFCURVE",
"175 132 OFFCURVE",
"256 132 CURVE"
);
}
);
width = 517;
}
);
unicode = 006F;
},
{
glyphname = odieresis;
lastChange = "2018-02-05 22:40:39 +0000";
layers = (
{
layerId = "7185A08A-2B1C-4BBD-ABBC-D0B58775A973";
paths = (
{
closed = 1;
nodes = (
"309 530 OFFCURVE",
"341 542 OFFCURVE",
"375 529 CURVE",
"404 518 OFFCURVE",
"388 502 OFFCURVE",
"390 478 CURVE",
"482 375 OFFCURVE",
"478 271 OFFCURVE",
"476 168 CURVE",
"476 136 OFFCURVE",
"398 91 OFFCURVE",
"394 60 CURVE",
"386 -9 OFFCURVE",
"337 3 OFFCURVE",
"272 21 CURVE",
"217 40 OFFCURVE",
"164 73 OFFCURVE",
"117 107 CURVE",
"81 133 OFFCURVE",
"71 112 OFFCURVE",
"40 144 CURVE",
"65 161 OFFCURVE",
"63 193 OFFCURVE",
"84 232 CURVE",
"110 284 OFFCURVE",
"121 347 OFFCURVE",
"156 391 CURVE",
"200 446 OFFCURVE",
"206 500 OFFCURVE",
"260 546 CURVE",
"264 541 OFFCURVE",
"267 537 OFFCURVE",
"271 533 CURVE"
);
},
{
closed = 1;
nodes = (
"263 140 OFFCURVE",
"376 152 OFFCURVE",
"383 175 CURVE",
"443 217 OFFCURVE",
"407 315 OFFCURVE",
"419 380 CURVE",
"422 401 OFFCURVE",
"329 425 OFFCURVE",
"326 446 CURVE",
"306 432 OFFCURVE",
"373 414 OFFCURVE",
"275 395 CURVE",
"242 342 OFFCURVE",
"212 285 OFFCURVE",
"182 228 CURVE",
"154 171 OFFCURVE",
"175 132 OFFCURVE",
"256 132 CURVE"
);
},
{
closed = 1;
nodes = (
"132 588 OFFCURVE",
"126 591 OFFCURVE",
"122 591 CURVE",
"124 604 OFFCURVE",
"128 611 OFFCURVE",
"132 618 CURVE",
"144 639 OFFCURVE",
"161 655 OFFCURVE",
"173 670 CURVE",
"177 676 OFFCURVE",
"185 678 OFFCURVE",
"194 680 CURVE",
"194 680 OFFCURVE",
"199 668 OFFCURVE",
"199 668 CURVE",
"190 630 OFFCURVE",
"168 594 OFFCURVE",
"136 589 CURVE"
);
},
{
closed = 1;
nodes = (
"409 587 OFFCURVE",
"403 590 OFFCURVE",
"399 590 CURVE",
"401 603 OFFCURVE",
"378 610 OFFCURVE",
"382 617 CURVE",
"394 638 OFFCURVE",
"416 666 OFFCURVE",
"428 681 CURVE SMOOTH",
"433 687 OFFCURVE",
"462 677 OFFCURVE",
"471 679 CURVE",
"471 679 OFFCURVE",
"476 667 OFFCURVE",
"476 667 CURVE",
"467 629 OFFCURVE",
"445 593 OFFCURVE",
"413 588 CURVE"
);
}
);
width = 517;
}
);
leftMetricsKey = "=o";
rightMetricsKey = "=o";
unicode = 00F6;
},
{
glyphname = p;
lastChange = "2018-02-05 22:30:45 +0000";
layers = (
{
layerId = "7185A08A-2B1C-4BBD-ABBC-D0B58775A973";
paths = (
{
closed = 1;
nodes = (
"121 36 OFFCURVE",
"109 -134 OFFCURVE",
"124 -17 CURVE",
"137 26 OFFCURVE",
"109 84 OFFCURVE",
"109 142 CURVE",
"109 200 OFFCURVE",
"94 258 OFFCURVE",
"94 316 CURVE",
"94 387 OFFCURVE",
"70 431 OFFCURVE",
"70 504 CURVE",
"70 519 OFFCURVE",
"85 533 OFFCURVE",
"85 563 CURVE",
"113 548 OFFCURVE",
"143 548 OFFCURVE",
"143 533 CURVE",
"171 489 OFFCURVE",
"216 474 OFFCURVE",
"259 489 CURVE",
"302 519 OFFCURVE",
"360 519 OFFCURVE",
"418 533 CURVE",
"433 533 OFFCURVE",
"446 533 OFFCURVE",
"446 533 CURVE",
"504 474 OFFCURVE",
"562 431 OFFCURVE",
"549 345 CURVE",
"549 287 OFFCURVE",
"549 229 OFFCURVE",
"534 171 CURVE",
"534 113 OFFCURVE",
"491 83 OFFCURVE",
"446 83 CURVE",
"388 70 OFFCURVE",
"330 70 OFFCURVE",
"274 55 CURVE",
"244 40 OFFCURVE",
"229 27 OFFCURVE",
"229 -3 CURVE",
"201 -76 OFFCURVE",
"241 123 OFFCURVE",
"211 37 CURVE",
"198 -21 OFFCURVE",
"183 -66 OFFCURVE",
"168 -122 CURVE",
"153 -152 OFFCURVE",
"149 -151 OFFCURVE",
"134 -166 CURVE",
"121 -138 OFFCURVE",
"121 -123 OFFCURVE",
"106 -93 CURVE"
);
},
{
closed = 1;
nodes = (
"344 400 OFFCURVE",
"312 412 OFFCURVE",
"278 412 CURVE",
"196 412 OFFCURVE",
"162 304 OFFCURVE",
"196 221 CURVE",
"227 124 OFFCURVE",
"295 76 OFFCURVE",
"392 142 CURVE",
"426 157 OFFCURVE",
"492 221 OFFCURVE",
"443 303 CURVE",
"426 303 OFFCURVE",
"443 335 OFFCURVE",
"443 352 CURVE",
"443 366 OFFCURVE",
"443 400 OFFCURVE",
"443 400 CURVE",
"426 417 OFFCURVE",
"392 417 OFFCURVE",
"378 417 CURVE"
);
}
);
width = 601;
}
);
leftMetricsKey = "=m";
unicode = 0070;
},
{
glyphname = q;
lastChange = "2018-02-05 22:30:53 +0000";
layers = (
{
layerId = "7185A08A-2B1C-4BBD-ABBC-D0B58775A973";
paths = (
{
closed = 1;
nodes = (
"509 408 OFFCURVE",
"512 431 OFFCURVE",
"504 446 CURVE",
"494 461 OFFCURVE",
"462 481 OFFCURVE",
"456 477 CURVE",
"423 446 OFFCURVE",
"394 465 OFFCURVE",
"364 484 CURVE",
"311 515 OFFCURVE",
"249 544 OFFCURVE",
"196 493 CURVE",
"152 453 OFFCURVE",
"114 399 OFFCURVE",
"84 347 CURVE",
"26 244 OFFCURVE",
"49 145 OFFCURVE",
"105 51 CURVE",
"113 35 OFFCURVE",
"132 24 OFFCURVE",
"146 21 CURVE",
"197 16 OFFCURVE",
"250 122 OFFCURVE",
"301 131 CURVE",
"366 142 OFFCURVE",
"373 105 OFFCURVE",
"375 60 CURVE",
"362 97 OFFCURVE",
"364 21 OFFCURVE",
"357 -53 CURVE",
"352 -129 OFFCURVE",
"376 -185 OFFCURVE",
"432 -235 CURVE",
"439 -241 OFFCURVE",
"449 -245 OFFCURVE",
"459 -249 CURVE",
"463 -241 OFFCURVE",
"468 -231 OFFCURVE",
"468 -222 CURVE",
"475 -140 OFFCURVE",
"480 -57 OFFCURVE",
"483 26 CURVE",
"486 97 OFFCURVE",
"486 169 OFFCURVE",
"507 128 CURVE",
"515 213 OFFCURVE",
"534 183 OFFCURVE",
"539 267 CURVE",
"541 306 OFFCURVE",
"520 348 OFFCURVE",
"515 368 CURVE"
);
},
{
closed = 1;
nodes = (
"228 397 LINE",
"257 425 OFFCURVE",
"288 437 OFFCURVE",
"321 417 CURVE SMOOTH",
"354 397 OFFCURVE",
"465 364 OFFCURVE",
"436 305 CURVE SMOOTH",
"407 246 OFFCURVE",
"371 251 OFFCURVE",
"310 204 CURVE SMOOTH",
"249 157 OFFCURVE",
"191 195 OFFCURVE",
"165 225 CURVE SMOOTH",
"139 255 OFFCURVE",
"202 305 OFFCURVE",
"216 358 CURVE"
);
}
);
width = 609;
}
);
rightMetricsKey = "=m";
unicode = 0071;
},
{
glyphname = r;
lastChange = "2018-02-05 22:31:01 +0000";
layers = (
{
layerId = "7185A08A-2B1C-4BBD-ABBC-D0B58775A973";
paths = (
{
closed = 1;
nodes = (
"141 579 OFFCURVE",
"152 569 OFFCURVE",
"157 551 CURVE",
"166 517 OFFCURVE",
"174 517 OFFCURVE",
"189 532 CURVE",
"228 566 OFFCURVE",
"335 516 OFFCURVE",
"370 472 CURVE",
"388 451 OFFCURVE",
"381 454 OFFCURVE",
"367 425 CURVE",
"346 383 OFFCURVE",
"327 375 OFFCURVE",
"301 412 CURVE",
"272 456 OFFCURVE",
"184 435 OFFCURVE",
"168 399 CURVE",
"154 370 OFFCURVE",
"141 189 OFFCURVE",
"134 147 CURVE",
"130 118 OFFCURVE",
"157 92 OFFCURVE",
"150 66 CURVE",
"146 43 OFFCURVE",
"108 6 OFFCURVE",
"99 6 CURVE",
"113 17 OFFCURVE",
"94 51 OFFCURVE",
"95 69 CURVE",
"99 168 OFFCURVE",
"65 202 OFFCURVE",
"71 299 CURVE",
"75 338 OFFCURVE",
"104 501 OFFCURVE",
"108 537 CURVE",
"112 556 OFFCURVE",
"120 574 OFFCURVE",
"128 600 CURVE"
);
}
);
width = 431;
}
);
leftMetricsKey = "=m";
unicode = 0072;
},
{
glyphname = s;
lastChange = "2018-02-05 22:31:06 +0000";
layers = (
{
layerId = "7185A08A-2B1C-4BBD-ABBC-D0B58775A973";
paths = (
{
closed = 1;
nodes = (
"209 475 OFFCURVE",
"175 413 OFFCURVE",
"187 377 CURVE",
"192 363 OFFCURVE",
"214 363 OFFCURVE",
"224 350 CURVE",
"250 322 OFFCURVE",
"284 294 OFFCURVE",
"295 255 CURVE",
"304 224 OFFCURVE",
"284 175 OFFCURVE",
"273 136 CURVE",
"263 103 OFFCURVE",
"247 74 OFFCURVE",
"234 42 CURVE",
"223 11 OFFCURVE",
"212 -10 OFFCURVE",
"187 25 CURVE",
"183 32 OFFCURVE",
"170 29 OFFCURVE",
"161 29 CURVE",
"136 29 OFFCURVE",
"110 26 OFFCURVE",
"84 31 CURVE",
"78 32 OFFCURVE",
"71 54 OFFCURVE",
"66 67 CURVE",
"58 102 OFFCURVE",
"50 136 OFFCURVE",
"42 171 CURVE",
"40 184 OFFCURVE",
"39 199 OFFCURVE",
"44 207 CURVE",
"47 214 OFFCURVE",
"61 217 OFFCURVE",
"66 213 CURVE",
"85 194 OFFCURVE",
"103 173 OFFCURVE",
"119 149 CURVE",
"142 109 OFFCURVE",
"170 106 OFFCURVE",
"192 147 CURVE",
"201 163 OFFCURVE",
"209 182 OFFCURVE",
"212 201 CURVE",
"213 211 OFFCURVE",
"203 230 OFFCURVE",
"195 237 CURVE",
"178 249 OFFCURVE",
"158 249 OFFCURVE",
"143 263 CURVE",
"132 276 OFFCURVE",
"121 303 OFFCURVE",
"121 324 CURVE",
"120 367 OFFCURVE",
"122 413 OFFCURVE",
"131 454 CURVE",
"144 527 OFFCURVE",
"225 577 OFFCURVE",
"271 545 CURVE",
"279 540 OFFCURVE",
"286 528 OFFCURVE",
"287 519 CURVE",
"288 511 OFFCURVE",
"280 500 OFFCURVE",
"273 495 CURVE",
"262 484 OFFCURVE",
"249 477 OFFCURVE",
"242 471 CURVE"
);
}
);
width = 337;
}
);
unicode = 0073;
},
{
glyphname = t;
lastChange = "2018-02-05 22:31:30 +0000";
layers = (
{
layerId = "7185A08A-2B1C-4BBD-ABBC-D0B58775A973";
paths = (
{
closed = 1;
nodes = (
"223 482 OFFCURVE",
"236 471 OFFCURVE",
"242 459 CURVE",
"242 459 OFFCURVE",
"236 438 OFFCURVE",
"229 427 CURVE",
"223 416 OFFCURVE",
"223 416 OFFCURVE",
"210 416 CURVE",
"180 416 OFFCURVE",
"174 372 OFFCURVE",
"174 327 CURVE SMOOTH",
"174 235 OFFCURVE",
"156 150 OFFCURVE",
"143 61 CURVE",
"137 40 OFFCURVE",
"112 18 OFFCURVE",
"100 -5 CURVE",
"100 -5 OFFCURVE",
"88 -5 OFFCURVE",
"88 6 CURVE",
"64 40 OFFCURVE",
"64 106 OFFCURVE",
"88 139 CURVE",
"94 172 OFFCURVE",
"100 195 OFFCURVE",
"88 227 CURVE",
"82 238 OFFCURVE",
"82 261 OFFCURVE",
"88 283 CURVE",
"88 349 OFFCURVE",
"94 416 OFFCURVE",
"100 482 CURVE",
"112 570 OFFCURVE",
"119 648 OFFCURVE",
"137 736 CURVE",
"137 759 OFFCURVE",
"156 770 OFFCURVE",
"174 781 CURVE",
"174 781 OFFCURVE",
"180 791 OFFCURVE",
"180 791 CURVE",
"192 791 OFFCURVE",
"198 803 OFFCURVE",
"204 803 CURVE",
"210 791 OFFCURVE",
"223 781 OFFCURVE",
"210 770 CURVE",
"210 714 OFFCURVE",
"204 659 OFFCURVE",
"198 604 CURVE",
"198 570 OFFCURVE",
"192 538 OFFCURVE",
"192 504 CURVE",
"192 493 OFFCURVE",
"198 482 OFFCURVE",
"204 471 CURVE",
"204 482 OFFCURVE",
"210 482 OFFCURVE",
"210 482 CURVE"
);
}
);
width = 312;
}
);
leftMetricsKey = "=i";
rightMetricsKey = "=i";
unicode = 0074;
},
{
glyphname = u;
lastChange = "2018-02-05 22:37:24 +0000";
layers = (
{
layerId = "7185A08A-2B1C-4BBD-ABBC-D0B58775A973";
paths = (
{
closed = 1;
nodes = (
"43 201 OFFCURVE",
"82 336 OFFCURVE",
"81 464 CURVE",
"81 487 OFFCURVE",
"101 525 OFFCURVE",
"117 530 CURVE",
"142 540 OFFCURVE",
"167 480 OFFCURVE",
"168 441 CURVE",
"169 364 OFFCURVE",
"173 288 OFFCURVE",
"179 212 CURVE",
"179 198 OFFCURVE",
"195 174 OFFCURVE",
"203 173 CURVE",
"215 174 OFFCURVE",
"232 189 OFFCURVE",
"236 204 CURVE",
"253 272 OFFCURVE",
"266 343 OFFCURVE",
"281 412 CURVE",
"290 454 OFFCURVE",
"299 495 OFFCURVE",
"309 536 CURVE",
"311 543 OFFCURVE",
"320 547 OFFCURVE",
"326 550 CURVE",
"327 550 OFFCURVE",
"333 539 OFFCURVE",
"333 532 CURVE",
"328 410 OFFCURVE",
"347 283 OFFCURVE",
"303 167 CURVE",
"275 96 OFFCURVE",
"243 33 OFFCURVE",
"179 19 CURVE",
"141 11 OFFCURVE",
"119 34 OFFCURVE",
"104 89 CURVE"
);
}
);
width = 403;
}
);
unicode = 0075;
},
{
glyphname = udieresis;
lastChange = "2018-02-05 22:40:58 +0000";
layers = (
{
layerId = "7185A08A-2B1C-4BBD-ABBC-D0B58775A973";
paths = (
{
closed = 1;
nodes = (
"13 201 OFFCURVE",
"52 336 OFFCURVE",
"51 464 CURVE",
"51 487 OFFCURVE",
"71 525 OFFCURVE",
"87 530 CURVE",
"112 540 OFFCURVE",
"137 480 OFFCURVE",
"138 441 CURVE",
"139 364 OFFCURVE",
"143 288 OFFCURVE",
"149 212 CURVE",
"149 198 OFFCURVE",
"165 174 OFFCURVE",
"173 173 CURVE",
"185 174 OFFCURVE",
"202 189 OFFCURVE",
"206 204 CURVE",
"223 272 OFFCURVE",
"236 343 OFFCURVE",
"251 412 CURVE",
"260 454 OFFCURVE",
"269 495 OFFCURVE",
"279 536 CURVE",
"281 543 OFFCURVE",
"290 547 OFFCURVE",
"296 550 CURVE",
"297 550 OFFCURVE",
"303 539 OFFCURVE",
"303 532 CURVE",
"298 410 OFFCURVE",
"317 283 OFFCURVE",
"273 167 CURVE",
"245 96 OFFCURVE",
"213 33 OFFCURVE",
"149 19 CURVE",
"111 11 OFFCURVE",
"89 34 OFFCURVE",
"74 89 CURVE"
);
},
{
closed = 1;
nodes = (
"110 582 OFFCURVE",
"106 583 OFFCURVE",
"102 583 CURVE",
"104 596 OFFCURVE",
"84 605 OFFCURVE",
"88 612 CURVE",
"100 633 OFFCURVE",
"112 653 OFFCURVE",
"124 668 CURVE",
"128 674 OFFCURVE",
"163 672 OFFCURVE",
"172 674 CURVE",
"172 674 OFFCURVE",
"177 662 OFFCURVE",
"177 662 CURVE",
"168 624 OFFCURVE",
"146 588 OFFCURVE",
"114 583 CURVE"
);
},
{
closed = 1;
nodes = (
"236 600 OFFCURVE",
"230 603 OFFCURVE",
"226 603 CURVE",
"228 616 OFFCURVE",
"232 638 OFFCURVE",
"236 645 CURVE SMOOTH",
"248 666 OFFCURVE",
"243 679 OFFCURVE",
"255 694 CURVE SMOOTH",
"260 700 OFFCURVE",
"289 690 OFFCURVE",
"298 692 CURVE",
"298 692 OFFCURVE",
"303 680 OFFCURVE",
"303 680 CURVE",
"294 642 OFFCURVE",
"272 606 OFFCURVE",
"240 601 CURVE"
);
}
);
width = 363;
}
);
leftMetricsKey = "=u";
rightMetricsKey = "=u";
unicode = 00FC;
},
{
glyphname = v;
lastChange = "2018-02-05 22:32:58 +0000";
layers = (
{
layerId = "7185A08A-2B1C-4BBD-ABBC-D0B58775A973";
paths = (
{
closed = 1;
nodes = (
"211 519 OFFCURVE",
"215 480 OFFCURVE",
"212 434 CURVE",
"208 378 OFFCURVE",
"204 320 OFFCURVE",
"202 263 CURVE",
"202 255 OFFCURVE",
"213 245 OFFCURVE",
"219 236 CURVE",
"225 243 OFFCURVE",
"230 249 OFFCURVE",
"235 257 CURVE",
"297 349 OFFCURVE",
"357 440 OFFCURVE",
"419 530 CURVE",
"425 537 OFFCURVE",
"441 535 OFFCURVE",
"452 536 CURVE",
"451 523 OFFCURVE",
"453 507 OFFCURVE",
"448 496 CURVE",
"370 352 OFFCURVE",
"292 207 OFFCURVE",
"211 64 CURVE",
"197 38 OFFCURVE",
"169 23 OFFCURVE",
"147 2 CURVE",
"135 31 OFFCURVE",
"124 61 OFFCURVE",
"110 90 CURVE",
"61 189 OFFCURVE",
"96 299 OFFCURVE",
"82 404 CURVE",
"73 473 OFFCURVE",
"99 507 OFFCURVE",
"159 508 CURVE"
);
}
);
width = 532;
}
);
unicode = 0076;
},
{
glyphname = w;
lastChange = "2018-02-05 22:33:09 +0000";
layers = (
{
layerId = "7185A08A-2B1C-4BBD-ABBC-D0B58775A973";
paths = (
{
closed = 1;
nodes = (
"86 262 OFFCURVE",
"110 372 OFFCURVE",
"138 481 CURVE",
"143 499 OFFCURVE",
"171 509 OFFCURVE",
"188 522 CURVE",
"198 496 OFFCURVE",
"220 469 OFFCURVE",
"218 445 CURVE",
"211 380 OFFCURVE",
"191 316 OFFCURVE",
"179 253 CURVE",
"176 237 OFFCURVE",
"179 220 OFFCURVE",
"180 204 CURVE",
"191 211 OFFCURVE",
"203 214 OFFCURVE",
"212 226 CURVE",
"235 251 OFFCURVE",
"255 280 OFFCURVE",
"279 306 CURVE",
"301 327 OFFCURVE",
"314 316 OFFCURVE",
"319 285 CURVE",
"320 282 OFFCURVE",
"319 278 OFFCURVE",
"320 274 CURVE",
"336 249 OFFCURVE",
"349 222 OFFCURVE",
"364 195 CURVE",
"377 216 OFFCURVE",
"395 237 OFFCURVE",
"406 261 CURVE",
"441 336 OFFCURVE",
"471 416 OFFCURVE",
"507 490 CURVE",
"516 509 OFFCURVE",
"543 514 OFFCURVE",
"561 525 CURVE",
"570 499 OFFCURVE",
"592 465 OFFCURVE",
"585 451 CURVE",
"528 340 OFFCURVE",
"467 235 OFFCURVE",
"406 127 CURVE",
"402 121 OFFCURVE",
"395 113 OFFCURVE",
"390 106 CURVE",
"376 88 OFFCURVE",
"358 52 OFFCURVE",
"351 55 CURVE",
"331 63 OFFCURVE",
"311 84 OFFCURVE",
"301 106 CURVE",
"265 180 OFFCURVE",
"255 182 OFFCURVE",
"209 110 CURVE",
"185 74 OFFCURVE",
"158 35 OFFCURVE",
"130 3 CURVE",
"125 -3 OFFCURVE",
"97 5 OFFCURVE",
"93 13 CURVE",
"80 57 OFFCURVE",
"72 103 OFFCURVE",
"60 153 CURVE"
);
}
);
width = 646;
}
);
unicode = 0077;
},
{
glyphname = x;
lastChange = "2018-01-13 18:20:04 +0000";
layers = (
{
layerId = "7185A08A-2B1C-4BBD-ABBC-D0B58775A973";
paths = (
{
closed = 1;
nodes = (
"116 53 OFFCURVE",
"138 113 OFFCURVE",
"160 162 CURVE",
"173 162 OFFCURVE",
"173 162 OFFCURVE",
"173 162 CURVE",
"232 258 OFFCURVE",
"223 306 OFFCURVE",
"151 373 CURVE",
"124 385 OFFCURVE",
"102 421 OFFCURVE",
"102 451 CURVE",
"102 512 OFFCURVE",
"138 530 OFFCURVE",
"173 500 CURVE",
"209 469 OFFCURVE",
"232 433 OFFCURVE",
"258 421 CURVE",
"267 421 OFFCURVE",
"294 433 OFFCURVE",
"316 433 CURVE",
"338 469 OFFCURVE",
"374 500 OFFCURVE",
"397 512 CURVE",
"410 530 OFFCURVE",
"423 512 OFFCURVE",
"423 512 CURVE",
"423 500 OFFCURVE",
"423 500 OFFCURVE",
"423 481 CURVE",
"397 451 OFFCURVE",
"374 421 OFFCURVE",
"361 385 CURVE",
"351 355 OFFCURVE",
"351 325 OFFCURVE",
"361 306 CURVE",
"388 228 OFFCURVE",
"423 150 OFFCURVE",
"459 65 CURVE",
"459 53 OFFCURVE",
"459 35 OFFCURVE",
"459 5 CURVE",
"445 17 OFFCURVE",
"423 17 OFFCURVE",
"410 17 CURVE",
"374 65 OFFCURVE",
"338 101 OFFCURVE",
"303 150 CURVE",
"281 180 OFFCURVE",
"258 180 OFFCURVE",
"245 150 CURVE",
"209 101 OFFCURVE",
"187 35 OFFCURVE",
"160 -13 CURVE",
"151 -31 OFFCURVE",
"124 -31 OFFCURVE",
"116 -43 CURVE",
"116 -43 OFFCURVE",
"102 -13 OFFCURVE",
"89 5 CURVE"
);
}
);
width = 600;
}
);
unicode = 0078;
},
{
glyphname = y;
lastChange = "2018-02-05 22:33:16 +0000";
layers = (
{
layerId = "7185A08A-2B1C-4BBD-ABBC-D0B58775A973";
paths = (
{
closed = 1;
nodes = (
"112 480 OFFCURVE",
"116 467 OFFCURVE",
"122 453 CURVE",
"145 393 OFFCURVE",
"168 333 OFFCURVE",
"194 274 CURVE",
"218 216 OFFCURVE",
"241 209 OFFCURVE",
"263 261 CURVE",
"308 363 OFFCURVE",
"396 403 OFFCURVE",
"457 482 CURVE",
"462 490 OFFCURVE",
"481 485 OFFCURVE",
"494 485 CURVE",
"488 475 OFFCURVE",
"484 462 OFFCURVE",
"477 453 CURVE",
"464 435 OFFCURVE",
"444 421 OFFCURVE",
"432 401 CURVE",
"418 380 OFFCURVE",
"384 355 OFFCURVE",
"428 324 CURVE",
"428 324 OFFCURVE",
"427 308 OFFCURVE",
"422 306 CURVE",
"269 211 OFFCURVE",
"234 -3 OFFCURVE",
"123 -141 CURVE",
"111 -156 OFFCURVE",
"94 -166 OFFCURVE",
"79 -179 CURVE",
"79 -152 OFFCURVE",
"75 -126 OFFCURVE",
"82 -104 CURVE",
"91 -74 OFFCURVE",
"107 -47 OFFCURVE",
"123 -22 CURVE",
"157 28 OFFCURVE",
"144 72 OFFCURVE",
"126 125 CURVE",
"98 209 OFFCURVE",
"78 296 OFFCURVE",
"61 383 CURVE",
"56 413 OFFCURVE",
"74 450 OFFCURVE",
"80 483 CURVE",
"89 487 OFFCURVE",
"97 490 OFFCURVE",
"107 493 CURVE"
);
}
);
width = 554;
}
);
leftMetricsKey = "=60";
rightMetricsKey = "=60";
unicode = 0079;
},
{
glyphname = z;
lastChange = "2018-02-05 22:33:28 +0000";
layers = (
{
layerId = "7185A08A-2B1C-4BBD-ABBC-D0B58775A973";
paths = (
{
closed = 1;
nodes = (
"227 -5 OFFCURVE",
"161 -20 OFFCURVE",
"97 -27 CURVE",
"85 -30 OFFCURVE",
"60 -21 OFFCURVE",
"60 -17 CURVE",
"60 -3 OFFCURVE",
"65 17 OFFCURVE",
"75 27 CURVE",
"166 129 OFFCURVE",
"257 230 OFFCURVE",
"347 331 CURVE",
"354 340 OFFCURVE",
"355 350 OFFCURVE",
"360 359 CURVE",
"350 363 OFFCURVE",
"339 369 OFFCURVE",
"328 372 CURVE",
"267 380 OFFCURVE",
"205 384 OFFCURVE",
"146 397 CURVE",
"127 401 OFFCURVE",
"115 424 OFFCURVE",
"98 439 CURVE",
"117 451 OFFCURVE",
"136 473 OFFCURVE",
"158 475 CURVE",
"249 485 OFFCURVE",
"340 494 OFFCURVE",
"431 494 CURVE",
"460 494 OFFCURVE",
"489 468 OFFCURVE",
"509 445 CURVE",
"516 436 OFFCURVE",
"497 401 OFFCURVE",
"484 384 CURVE",
"408 296 OFFCURVE",
"330 211 OFFCURVE",
"254 124 CURVE",
"249 117 OFFCURVE",
"242 101 OFFCURVE",
"246 97 CURVE",
"252 88 OFFCURVE",
"264 85 OFFCURVE",
"276 85 CURVE",
"308 88 OFFCURVE",
"340 101 OFFCURVE",
"372 97 CURVE",
"402 95 OFFCURVE",
"430 73 OFFCURVE",
"457 59 CURVE",
"467 55 OFFCURVE",
"474 41 OFFCURVE",
"484 34 CURVE",
"495 25 OFFCURVE",
"509 19 OFFCURVE",
"522 12 CURVE",
"506 9 OFFCURVE",
"489 2 OFFCURVE",
"474 2 CURVE",
"415 0 OFFCURVE",
"354 0 OFFCURVE",
"294 0 CURVE",
"294 2 OFFCURVE",
"294 4 OFFCURVE",
"293 7 CURVE"
);
}
);
width = 582;
}
);
leftMetricsKey = "=60";
rightMetricsKey = "=60";
unicode = 007A;
},
{
glyphname = zero;
lastChange = "2018-02-05 22:25:57 +0000";
layers = (
{
layerId = "7185A08A-2B1C-4BBD-ABBC-D0B58775A973";
paths = (
{
closed = 1;
nodes = (
"62 311 OFFCURVE",
"75 378 OFFCURVE",
"105 439 CURVE",
"117 464 OFFCURVE",
"117 494 OFFCURVE",
"129 518 CURVE",
"136 536 OFFCURVE",
"148 561 OFFCURVE",
"160 574 CURVE",
"190 604 OFFCURVE",
"221 634 OFFCURVE",
"257 664 CURVE",
"264 677 OFFCURVE",
"282 677 OFFCURVE",
"294 683 CURVE",
"294 683 OFFCURVE",
"300 683 OFFCURVE",
"300 689 CURVE",
"300 689 OFFCURVE",
"300 689 OFFCURVE",
"294 689 CURVE",
"294 695 OFFCURVE",
"288 695 OFFCURVE",
"288 702 CURVE",
"288 707 OFFCURVE",
"282 713 OFFCURVE",
"288 720 CURVE",
"288 720 OFFCURVE",
"300 725 OFFCURVE",
"306 720 CURVE",
"312 720 OFFCURVE",
"318 713 OFFCURVE",
"325 707 CURVE",
"343 695 OFFCURVE",
"361 689 OFFCURVE",
"385 702 CURVE",
"391 702 OFFCURVE",
"404 695 OFFCURVE",
"415 683 CURVE",
"434 671 OFFCURVE",
"453 646 OFFCURVE",
"471 628 CURVE",
"495 610 OFFCURVE",
"507 592 OFFCURVE",
"513 561 CURVE",
"519 555 OFFCURVE",
"525 549 OFFCURVE",
"532 543 CURVE",
"538 536 OFFCURVE",
"543 536 OFFCURVE",
"543 531 CURVE",
"543 513 OFFCURVE",
"543 494 OFFCURVE",
"543 476 CURVE",
"543 457 OFFCURVE",
"532 439 OFFCURVE",
"532 421 CURVE",
"532 415 OFFCURVE",
"538 403 OFFCURVE",
"538 397 CURVE",
"538 390 OFFCURVE",
"543 378 OFFCURVE",
"538 378 CURVE",
"519 348 OFFCURVE",
"519 311 OFFCURVE",
"513 275 CURVE",
"495 214 OFFCURVE",
"483 153 OFFCURVE",
"446 98 CURVE",
"415 50 OFFCURVE",
"367 25 OFFCURVE",
"318 7 CURVE",
"276 -12 OFFCURVE",
"233 -5 OFFCURVE",
"190 19 CURVE",
"172 31 OFFCURVE",
"154 37 OFFCURVE",
"136 50 CURVE",
"123 55 OFFCURVE",
"111 62 OFFCURVE",
"105 74 CURVE",
"99 104 OFFCURVE",
"87 141 OFFCURVE",
"81 172 CURVE",
"75 177 OFFCURVE",
"75 190 OFFCURVE",
"75 196 CURVE",
"69 202 OFFCURVE",
"62 208 OFFCURVE",
"62 220 CURVE",
"56 226 OFFCURVE",
"50 232 OFFCURVE",
"50 239 CURVE"
);
},
{
closed = 1;
nodes = (
"422 385 OFFCURVE",
"428 385 OFFCURVE",
"428 385 CURVE",
"422 372 OFFCURVE",
"422 360 OFFCURVE",
"422 342 CURVE",
"422 330 OFFCURVE",
"422 311 OFFCURVE",
"404 311 CURVE",
"385 311 OFFCURVE",
"391 336 OFFCURVE",
"391 348 CURVE",
"397 390 OFFCURVE",
"404 439 OFFCURVE",
"415 482 CURVE",
"428 536 OFFCURVE",
"428 579 OFFCURVE",
"404 628 CURVE",
"397 634 OFFCURVE",
"397 641 OFFCURVE",
"391 641 CURVE",
"367 653 OFFCURVE",
"349 664 OFFCURVE",
"325 677 CURVE",
"325 677 OFFCURVE",
"318 677 OFFCURVE",
"312 671 CURVE",
"306 664 OFFCURVE",
"300 653 OFFCURVE",
"294 641 CURVE",
"276 622 OFFCURVE",
"264 610 OFFCURVE",
"245 592 CURVE",
"233 567 OFFCURVE",
"221 549 OFFCURVE",
"202 531 CURVE",
"197 518 OFFCURVE",
"190 506 OFFCURVE",
"184 494 CURVE",
"172 439 OFFCURVE",
"166 390 OFFCURVE",
"154 336 CURVE",
"148 318 OFFCURVE",
"148 299 OFFCURVE",
"148 275 CURVE",
"148 275 OFFCURVE",
"154 269 OFFCURVE",
"154 269 CURVE",
"160 269 OFFCURVE",
"160 275 OFFCURVE",
"166 275 CURVE",
"166 287 OFFCURVE",
"166 293 OFFCURVE",
"172 299 CURVE",
"184 324 OFFCURVE",
"202 342 OFFCURVE",
"215 367 CURVE",
"221 390 OFFCURVE",
"239 385 OFFCURVE",
"251 385 CURVE",
"257 385 OFFCURVE",
"264 378 OFFCURVE",
"264 372 CURVE",
"264 367 OFFCURVE",
"257 360 OFFCURVE",
"257 354 CURVE",
"233 305 OFFCURVE",
"202 257 OFFCURVE",
"178 208 CURVE",
"178 202 OFFCURVE",
"178 196 OFFCURVE",
"178 190 CURVE",
"197 153 OFFCURVE",
"215 116 OFFCURVE",
"233 80 CURVE",
"233 74 OFFCURVE",
"239 68 OFFCURVE",
"239 62 CURVE",
"239 62 OFFCURVE",
"233 55 OFFCURVE",
"233 50 CURVE",
"245 50 OFFCURVE",
"257 44 OFFCURVE",
"264 50 CURVE",
"276 62 OFFCURVE",
"288 55 OFFCURVE",
"294 50 CURVE",
"325 37 OFFCURVE",
"343 50 OFFCURVE",
"367 62 CURVE",
"367 62 OFFCURVE",
"367 74 OFFCURVE",
"367 86 CURVE",
"361 86 OFFCURVE",
"361 86 OFFCURVE",
"355 80 CURVE",
"349 80 OFFCURVE",
"349 80 OFFCURVE",
"343 80 CURVE",
"343 74 OFFCURVE",
"336 74 OFFCURVE",
"330 74 CURVE",
"336 80 OFFCURVE",
"336 86 OFFCURVE",
"336 86 CURVE",
"343 93 OFFCURVE",
"349 104 OFFCURVE",
"349 111 CURVE",
"373 159 OFFCURVE",
"391 202 OFFCURVE",
"410 251 CURVE",
"415 269 OFFCURVE",
"422 287 OFFCURVE",
"434 299 CURVE",
"453 318 OFFCURVE",
"458 336 OFFCURVE",
"453 360 CURVE",
"453 385 OFFCURVE",
"446 409 OFFCURVE",
"440 433 CURVE",
"440 433 OFFCURVE",
"440 439 OFFCURVE",
"434 439 CURVE",
"434 439 OFFCURVE",
"434 433 OFFCURVE",
"434 433 CURVE",
"428 421 OFFCURVE",
"428 403 OFFCURVE",
"422 385 CURVE"
);
},
{
closed = 1;
nodes = (
"519 513 OFFCURVE",
"513 518 OFFCURVE",
"507 518 CURVE",
"501 525 OFFCURVE",
"495 518 OFFCURVE",
"489 525 CURVE",
"476 531 OFFCURVE",
"476 525 OFFCURVE",
"476 518 CURVE",
"476 494 OFFCURVE",
"483 470 OFFCURVE",
"483 446 CURVE",
"483 446 OFFCURVE",
"483 439 OFFCURVE",
"489 439 CURVE",
"489 439 OFFCURVE",
"489 446 OFFCURVE",
"489 446 CURVE",
"501 464 OFFCURVE",
"513 476 OFFCURVE",
"519 494 CURVE",
"519 500 OFFCURVE",
"525 500 OFFCURVE",
"525 513 CURVE"
);
}
);
width = 593;
}
);
unicode = 0030;
},
{
glyphname = one;
lastChange = "2018-02-05 22:25:44 +0000";
layers = (
{
layerId = "7185A08A-2B1C-4BBD-ABBC-D0B58775A973";
paths = (
{
closed = 1;
nodes = (
"242 720 OFFCURVE",
"263 693 OFFCURVE",
"256 669 CURVE",
"248 643 OFFCURVE",
"241 621 OFFCURVE",
"252 591 CURVE",
"263 564 OFFCURVE",
"259 530 OFFCURVE",
"260 500 CURVE",
"261 486 OFFCURVE",
"262 475 OFFCURVE",
"280 474 CURVE",
"285 474 OFFCURVE",
"294 462 OFFCURVE",
"295 456 CURVE",
"296 394 OFFCURVE",
"295 332 OFFCURVE",
"297 269 CURVE",
"298 236 OFFCURVE",
"303 204 OFFCURVE",
"305 171 CURVE",
"305 158 OFFCURVE",
"301 146 OFFCURVE",
"298 133 CURVE",
"290 85 OFFCURVE",
"283 36 OFFCURVE",
"274 -12 CURVE",
"272 -22 OFFCURVE",
"262 -34 OFFCURVE",
"252 -39 CURVE",
"239 -45 OFFCURVE",
"230 -34 OFFCURVE",
"224 -21 CURVE",
"223 -18 OFFCURVE",
"220 -13 OFFCURVE",
"217 -13 CURVE",
"191 -7 OFFCURVE",
"188 13 OFFCURVE",
"188 35 CURVE",
"188 75 OFFCURVE",
"192 115 OFFCURVE",
"187 154 CURVE",
"181 206 OFFCURVE",
"192 255 OFFCURVE",
"200 305 CURVE",
"204 329 OFFCURVE",
"208 356 OFFCURVE",
"191 374 CURVE",
"178 388 OFFCURVE",
"172 402 OFFCURVE",
"169 419 CURVE",
"164 452 OFFCURVE",
"161 486 OFFCURVE",
"158 519 CURVE",
"156 541 OFFCURVE",
"157 563 OFFCURVE",
"157 585 CURVE",
"157 587 OFFCURVE",
"155 591 OFFCURVE",
"153 592 CURVE",
"152 593 OFFCURVE",
"148 591 OFFCURVE",
"146 590 CURVE",
"138 582 OFFCURVE",
"129 575 OFFCURVE",
"123 566 CURVE",
"110 550 OFFCURVE",
"94 548 OFFCURVE",
"76 552 CURVE",
"70 554 OFFCURVE",
"62 561 OFFCURVE",
"60 568 CURVE",
"58 573 OFFCURVE",
"63 582 OFFCURVE",
"67 586 CURVE",
"101 619 OFFCURVE",
"135 650 OFFCURVE",
"168 683 CURVE",
"177 692 OFFCURVE",
"184 703 OFFCURVE",
"193 712 CURVE",
"199 718 OFFCURVE",
"207 720 OFFCURVE",
"209 721 CURVE"
);
}
);
width = 365;
}
);
unicode = 0031;
},
{
glyphname = two;
lastChange = "2018-02-05 22:24:18 +0000";
layers = (
{
layerId = "7185A08A-2B1C-4BBD-ABBC-D0B58775A973";
paths = (
{
closed = 1;
nodes = (
"252 25 OFFCURVE",
"277 17 OFFCURVE",
"301 5 CURVE",
"305 4 OFFCURVE",
"305 -12 OFFCURVE",
"302 -19 CURVE",
"300 -24 OFFCURVE",
"286 -28 OFFCURVE",
"282 -26 CURVE",
"266 -16 OFFCURVE",
"250 -19 OFFCURVE",
"234 -17 CURVE",
"207 -13 OFFCURVE",
"182 0 OFFCURVE",
"156 7 CURVE",
"138 12 OFFCURVE",
"120 15 OFFCURVE",
"102 19 CURVE",
"84 22 OFFCURVE",
"66 23 OFFCURVE",
"48 28 CURVE",
"31 32 OFFCURVE",
"26 45 OFFCURVE",
"32 62 CURVE",
"36 73 OFFCURVE",
"43 82 OFFCURVE",
"46 93 CURVE",
"50 104 OFFCURVE",
"50 115 OFFCURVE",
"52 125 CURVE",
"54 134 OFFCURVE",
"56 142 OFFCURVE",
"60 150 CURVE",
"66 163 OFFCURVE",
"73 175 OFFCURVE",
"81 188 CURVE",
"91 205 OFFCURVE",
"101 222 OFFCURVE",
"111 239 CURVE",
"114 243 OFFCURVE",
"117 248 OFFCURVE",
"117 252 CURVE",
"116 291 OFFCURVE",
"143 317 OFFCURVE",
"161 348 CURVE",
"179 377 OFFCURVE",
"197 406 OFFCURVE",
"213 435 CURVE",
"227 461 OFFCURVE",
"239 488 OFFCURVE",
"252 514 CURVE",
"258 524 OFFCURVE",
"266 532 OFFCURVE",
"273 542 CURVE",
"293 570 OFFCURVE",
"285 603 OFFCURVE",
"282 633 CURVE",
"281 644 OFFCURVE",
"259 658 OFFCURVE",
"245 662 CURVE",
"233 665 OFFCURVE",
"214 659 OFFCURVE",
"204 651 CURVE",
"183 630 OFFCURVE",
"168 605 OFFCURVE",
"147 584 CURVE",
"140 576 OFFCURVE",
"127 571 OFFCURVE",
"116 571 CURVE",
"103 571 OFFCURVE",
"92 580 OFFCURVE",
"101 595 CURVE",
"109 611 OFFCURVE",
"118 627 OFFCURVE",
"130 639 CURVE",
"147 656 OFFCURVE",
"167 671 OFFCURVE",
"186 686 CURVE",
"210 705 OFFCURVE",
"235 711 OFFCURVE",
"264 695 CURVE",
"272 691 OFFCURVE",
"282 691 OFFCURVE",
"291 689 CURVE",
"295 688 OFFCURVE",
"299 688 OFFCURVE",
"302 686 CURVE",
"316 677 OFFCURVE",
"330 668 OFFCURVE",
"343 657 CURVE",
"348 653 OFFCURVE",
"349 644 OFFCURVE",
"351 636 CURVE",
"352 632 OFFCURVE",
"352 627 OFFCURVE",
"352 622 CURVE",
"352 611 OFFCURVE",
"353 600 OFFCURVE",
"351 589 CURVE",
"348 575 OFFCURVE",
"339 562 OFFCURVE",
"352 547 CURVE",
"355 544 OFFCURVE",
"352 534 OFFCURVE",
"348 529 CURVE",
"339 515 OFFCURVE",
"332 502 OFFCURVE",
"337 485 CURVE",
"338 481 OFFCURVE",
"337 474 OFFCURVE",
"334 471 CURVE",
"311 456 OFFCURVE",
"315 428 OFFCURVE",
"304 407 CURVE",
"297 394 OFFCURVE",
"289 381 OFFCURVE",
"282 368 CURVE",
"275 355 OFFCURVE",
"270 341 OFFCURVE",
"262 328 CURVE",
"252 311 OFFCURVE",
"241 294 OFFCURVE",
"230 277 CURVE",
"217 256 OFFCURVE",
"204 235 OFFCURVE",
"192 213 CURVE",
"176 182 OFFCURVE",
"162 151 OFFCURVE",
"147 119 CURVE",
"146 117 OFFCURVE",
"145 115 OFFCURVE",
"143 113 CURVE",
"139 107 OFFCURVE",
"135 101 OFFCURVE",
"130 95 CURVE",
"138 92 OFFCURVE",
"145 88 OFFCURVE",
"153 85 CURVE",
"159 83 OFFCURVE",
"166 82 OFFCURVE",
"173 80 CURVE",
"184 76 OFFCURVE",
"193 69 OFFCURVE",
"189 55 CURVE",
"185 41 OFFCURVE",
"191 36 OFFCURVE",
"204 35 CURVE",
"211 33 OFFCURVE",
"219 32 OFFCURVE",
"226 30 CURVE",
"227 32 OFFCURVE",
"227 33 OFFCURVE",
"228 34 CURVE"
);
}
);
width = 373;
}
);
unicode = 0032;
},
{
glyphname = three;
lastChange = "2018-02-05 22:24:04 +0000";
layers = (
{
layerId = "7185A08A-2B1C-4BBD-ABBC-D0B58775A973";
paths = (
{
closed = 1;
nodes = (
"298 231 OFFCURVE",
"300 245 OFFCURVE",
"300 259 CURVE",
"300 263 OFFCURVE",
"301 269 OFFCURVE",
"300 270 CURVE",
"284 276 OFFCURVE",
"267 288 OFFCURVE",
"251 288 CURVE",
"229 288 OFFCURVE",
"210 293 OFFCURVE",
"191 303 CURVE",
"179 308 OFFCURVE",
"178 327 OFFCURVE",
"189 337 CURVE",
"205 351 OFFCURVE",
"224 363 OFFCURVE",
"240 377 CURVE",
"246 384 OFFCURVE",
"252 392 OFFCURVE",
"257 400 CURVE",
"262 405 OFFCURVE",
"262 412 OFFCURVE",
"267 416 CURVE",
"292 431 OFFCURVE",
"300 458 OFFCURVE",
"311 482 CURVE",
"327 516 OFFCURVE",
"340 554 OFFCURVE",
"352 590 CURVE",
"358 609 OFFCURVE",
"359 630 OFFCURVE",
"360 651 CURVE",
"360 656 OFFCURVE",
"353 663 OFFCURVE",
"348 666 CURVE",
"344 668 OFFCURVE",
"336 667 OFFCURVE",
"330 664 CURVE",
"314 659 OFFCURVE",
"299 654 OFFCURVE",
"284 646 CURVE",
"271 636 OFFCURVE",
"260 626 OFFCURVE",
"249 615 CURVE",
"229 597 OFFCURVE",
"209 576 OFFCURVE",
"189 560 CURVE",
"183 554 OFFCURVE",
"174 554 OFFCURVE",
"165 554 CURVE",
"152 554 OFFCURVE",
"147 563 OFFCURVE",
"152 575 CURVE",
"169 609 OFFCURVE",
"189 640 OFFCURVE",
"223 660 CURVE",
"235 668 OFFCURVE",
"243 681 OFFCURVE",
"256 690 CURVE",
"274 702 OFFCURVE",
"296 714 OFFCURVE",
"317 725 CURVE",
"321 728 OFFCURVE",
"330 725 OFFCURVE",
"333 723 CURVE",
"359 704 OFFCURVE",
"384 684 OFFCURVE",
"409 664 CURVE",
"419 656 OFFCURVE",
"424 646 OFFCURVE",
"418 633 CURVE",
"417 630 OFFCURVE",
"415 626 OFFCURVE",
"415 622 CURVE",
"427 551 OFFCURVE",
"391 489 OFFCURVE",
"370 426 CURVE",
"360 399 OFFCURVE",
"345 370 OFFCURVE",
"311 362 CURVE",
"309 360 OFFCURVE",
"305 356 OFFCURVE",
"305 352 CURVE",
"306 345 OFFCURVE",
"309 337 OFFCURVE",
"311 330 CURVE",
"316 323 OFFCURVE",
"320 316 OFFCURVE",
"325 309 CURVE",
"327 306 OFFCURVE",
"330 303 OFFCURVE",
"333 302 CURVE",
"352 290 OFFCURVE",
"363 265 OFFCURVE",
"359 242 CURVE",
"354 216 OFFCURVE",
"351 189 OFFCURVE",
"346 163 CURVE",
"344 151 OFFCURVE",
"338 141 OFFCURVE",
"334 130 CURVE",
"327 112 OFFCURVE",
"320 93 OFFCURVE",
"313 74 CURVE",
"307 59 OFFCURVE",
"305 43 OFFCURVE",
"297 31 CURVE",
"293 23 OFFCURVE",
"282 20 OFFCURVE",
"273 15 CURVE",
"267 14 OFFCURVE",
"259 13 OFFCURVE",
"259 11 CURVE",
"257 -13 OFFCURVE",
"235 -9 OFFCURVE",
"222 -19 CURVE",
"218 -20 OFFCURVE",
"212 -19 OFFCURVE",
"209 -18 CURVE",
"195 -2 OFFCURVE",
"185 -15 OFFCURVE",
"174 -22 CURVE",
"161 -31 OFFCURVE",
"145 -34 OFFCURVE",
"131 -39 CURVE",
"118 -43 OFFCURVE",
"105 -47 OFFCURVE",
"93 -52 CURVE",
"82 -58 OFFCURVE",
"50 -54 OFFCURVE",
"43 -43 CURVE",
"35 -34 OFFCURVE",
"43 -14 OFFCURVE",
"55 -1 CURVE",
"73 15 OFFCURVE",
"89 22 OFFCURVE",
"112 11 CURVE",
"120 8 OFFCURVE",
"132 12 OFFCURVE",
"141 16 CURVE",
"176 41 OFFCURVE",
"212 65 OFFCURVE",
"246 90 CURVE",
"277 114 OFFCURVE",
"290 146 OFFCURVE",
"291 184 CURVE",
"292 195 OFFCURVE",
"296 205 OFFCURVE",
"298 216 CURVE",
"298 216 OFFCURVE",
"297 216 OFFCURVE",
"297 216 CURVE"
);
}
);
width = 461;
}
);
unicode = 0033;
},
{
glyphname = four;
lastChange = "2018-02-05 22:24:27 +0000";
layers = (
{
layerId = "7185A08A-2B1C-4BBD-ABBC-D0B58775A973";
paths = (
{
closed = 1;
nodes = (
"98 281 OFFCURVE",
"88 281 OFFCURVE",
"78 277 CURVE",
"57 271 OFFCURVE",
"43 277 OFFCURVE",
"40 299 CURVE",
"39 310 OFFCURVE",
"39 324 OFFCURVE",
"45 334 CURVE",
"70 386 OFFCURVE",
"98 436 OFFCURVE",
"123 488 CURVE",
"146 535 OFFCURVE",
"167 583 OFFCURVE",
"190 631 CURVE",
"208 667 OFFCURVE",
"226 703 OFFCURVE",
"244 740 CURVE",
"251 755 OFFCURVE",
"266 756 OFFCURVE",
"278 753 CURVE",
"291 751 OFFCURVE",
"296 739 OFFCURVE",
"294 727 CURVE",
"291 710 OFFCURVE",
"283 693 OFFCURVE",
"283 676 CURVE",
"283 656 OFFCURVE",
"275 642 OFFCURVE",
"266 627 CURVE",
"256 611 OFFCURVE",
"247 594 OFFCURVE",
"239 577 CURVE",
"225 548 OFFCURVE",
"212 520 OFFCURVE",
"198 490 CURVE",
"181 454 OFFCURVE",
"164 416 OFFCURVE",
"145 380 CURVE",
"140 369 OFFCURVE",
"130 360 OFFCURVE",
"122 349 CURVE",
"116 342 OFFCURVE",
"116 337 OFFCURVE",
"127 337 CURVE",
"134 337 OFFCURVE",
"141 338 OFFCURVE",
"147 338 CURVE",
"162 339 OFFCURVE",
"176 340 OFFCURVE",
"191 339 CURVE",
"200 339 OFFCURVE",
"203 334 OFFCURVE",
"198 325 CURVE",
"196 322 OFFCURVE",
"198 319 OFFCURVE",
"197 315 CURVE",
"200 317 OFFCURVE",
"206 319 OFFCURVE",
"207 322 CURVE",
"210 336 OFFCURVE",
"214 352 OFFCURVE",
"217 367 CURVE",
"219 384 OFFCURVE",
"230 391 OFFCURVE",
"245 392 CURVE",
"257 392 OFFCURVE",
"263 375 OFFCURVE",
"261 358 CURVE",
"260 335 OFFCURVE",
"248 310 OFFCURVE",
"262 286 CURVE",
"264 284 OFFCURVE",
"260 276 OFFCURVE",
"257 270 CURVE",
"252 262 OFFCURVE",
"243 254 OFFCURVE",
"242 245 CURVE",
"235 211 OFFCURVE",
"232 177 OFFCURVE",
"226 142 CURVE",
"226 139 OFFCURVE",
"224 135 OFFCURVE",
"222 132 CURVE",
"219 128 OFFCURVE",
"216 124 OFFCURVE",
"214 120 CURVE",
"207 91 OFFCURVE",
"201 63 OFFCURVE",
"193 35 CURVE",
"192 27 OFFCURVE",
"183 21 OFFCURVE",
"178 14 CURVE",
"174 19 OFFCURVE",
"168 23 OFFCURVE",
"165 30 CURVE",
"152 52 OFFCURVE",
"166 72 OFFCURVE",
"169 94 CURVE",
"176 128 OFFCURVE",
"183 163 OFFCURVE",
"190 198 CURVE",
"192 210 OFFCURVE",
"194 223 OFFCURVE",
"196 235 CURVE",
"200 260 OFFCURVE",
"192 271 OFFCURVE",
"167 275 CURVE",
"149 277 OFFCURVE",
"129 279 OFFCURVE",
"107 282 CURVE"
);
}
);
width = 334;
}
);
unicode = 0034;
},
{
glyphname = five;
lastChange = "2018-02-05 22:24:33 +0000";
layers = (
{
layerId = "7185A08A-2B1C-4BBD-ABBC-D0B58775A973";
paths = (
{
closed = 1;
nodes = (
"80 87 OFFCURVE",
"79 80 OFFCURVE",
"80 74 CURVE",
"84 46 OFFCURVE",
"87 47 OFFCURVE",
"113 40 CURVE",
"152 29 OFFCURVE",
"181 52 OFFCURVE",
"214 62 CURVE",
"248 73 OFFCURVE",
"254 108 OFFCURVE",
"271 133 CURVE",
"277 143 OFFCURVE",
"282 155 OFFCURVE",
"288 166 CURVE",
"313 214 OFFCURVE",
"309 264 OFFCURVE",
"298 315 CURVE",
"292 342 OFFCURVE",
"281 369 OFFCURVE",
"273 396 CURVE",
"272 398 OFFCURVE",
"270 401 OFFCURVE",
"268 402 CURVE",
"256 410 OFFCURVE",
"227 408 OFFCURVE",
"216 399 CURVE",
"207 391 OFFCURVE",
"200 390 OFFCURVE",
"195 404 CURVE",
"191 414 OFFCURVE",
"179 424 OFFCURVE",
"179 434 CURVE",
"179 457 OFFCURVE",
"182 481 OFFCURVE",
"188 502 CURVE",
"208 563 OFFCURVE",
"229 624 OFFCURVE",
"252 684 CURVE",
"255 693 OFFCURVE",
"274 698 OFFCURVE",
"287 699 CURVE",
"299 701 OFFCURVE",
"312 694 OFFCURVE",
"324 694 CURVE",
"347 693 OFFCURVE",
"369 694 OFFCURVE",
"392 695 CURVE",
"403 695 OFFCURVE",
"413 697 OFFCURVE",
"424 697 CURVE",
"434 697 OFFCURVE",
"447 696 OFFCURVE",
"439 679 CURVE",
"439 677 OFFCURVE",
"444 673 OFFCURVE",
"446 670 CURVE",
"449 665 OFFCURVE",
"454 660 OFFCURVE",
"452 656 CURVE",
"451 653 OFFCURVE",
"444 649 OFFCURVE",
"439 649 CURVE",
"403 648 OFFCURVE",
"367 648 OFFCURVE",
"331 647 CURVE",
"326 647 OFFCURVE",
"319 642 OFFCURVE",
"317 638 CURVE",
"300 584 OFFCURVE",
"283 530 OFFCURVE",
"265 477 CURVE",
"263 469 OFFCURVE",
"264 459 OFFCURVE",
"250 460 CURVE",
"247 460 OFFCURVE",
"243 450 OFFCURVE",
"240 445 CURVE",
"244 443 OFFCURVE",
"248 439 OFFCURVE",
"252 439 CURVE",
"267 441 OFFCURVE",
"282 443 OFFCURVE",
"297 447 CURVE",
"320 454 OFFCURVE",
"331 448 OFFCURVE",
"342 427 CURVE",
"347 417 OFFCURVE",
"347 407 OFFCURVE",
"350 398 CURVE",
"353 385 OFFCURVE",
"369 373 OFFCURVE",
"382 366 CURVE",
"393 361 OFFCURVE",
"399 357 OFFCURVE",
"401 344 CURVE",
"403 332 OFFCURVE",
"407 319 OFFCURVE",
"410 307 CURVE",
"410 306 OFFCURVE",
"411 305 OFFCURVE",
"411 305 CURVE",
"389 278 OFFCURVE",
"399 244 OFFCURVE",
"391 215 CURVE",
"383 188 OFFCURVE",
"378 161 OFFCURVE",
"370 135 CURVE",
"367 123 OFFCURVE",
"361 109 OFFCURVE",
"342 112 CURVE",
"338 112 OFFCURVE",
"332 102 OFFCURVE",
"329 96 CURVE",
"323 85 OFFCURVE",
"321 70 OFFCURVE",
"313 61 CURVE",
"306 53 OFFCURVE",
"293 51 OFFCURVE",
"283 45 CURVE",
"272 39 OFFCURVE",
"263 29 OFFCURVE",
"252 23 CURVE",
"239 16 OFFCURVE",
"225 11 OFFCURVE",
"211 5 CURVE",
"201 2 OFFCURVE",
"191 -2 OFFCURVE",
"181 -4 CURVE",
"168 -7 OFFCURVE",
"154 -10 OFFCURVE",
"141 -10 CURVE",
"120 -10 OFFCURVE",
"99 -7 OFFCURVE",
"78 -6 CURVE",
"74 -5 OFFCURVE",
"69 -5 OFFCURVE",
"66 -6 CURVE",
"41 -16 OFFCURVE",
"29 -7 OFFCURVE",
"30 20 CURVE",
"31 28 OFFCURVE",
"32 36 OFFCURVE",
"33 44 CURVE",
"35 61 OFFCURVE",
"36 76 OFFCURVE",
"33 94 CURVE",
"29 116 OFFCURVE",
"40 142 OFFCURVE",
"49 164 CURVE",
"53 176 OFFCURVE",
"72 169 OFFCURVE",
"75 154 CURVE",
"78 134 OFFCURVE",
"79 114 OFFCURVE",
"81 94 CURVE",
"81 94 OFFCURVE",
"80 94 OFFCURVE",
"80 94 CURVE"
);
}
);
width = 482;
}
);
unicode = 0035;
},
{
glyphname = six;
lastChange = "2018-02-05 22:24:43 +0000";
layers = (
{
layerId = "7185A08A-2B1C-4BBD-ABBC-D0B58775A973";
paths = (
{
closed = 1;
nodes = (
"157 380 OFFCURVE",
"168 375 OFFCURVE",
"177 371 CURVE",
"184 371 OFFCURVE",
"189 371 OFFCURVE",
"194 371 CURVE",
"210 375 OFFCURVE",
"224 371 OFFCURVE",
"235 354 CURVE",
"251 334 OFFCURVE",
"265 334 OFFCURVE",
"291 338 CURVE",
"291 338 OFFCURVE",
"302 334 OFFCURVE",
"302 329 CURVE",
"302 313 OFFCURVE",
"307 313 OFFCURVE",
"316 313 CURVE",
"337 313 OFFCURVE",
"344 304 OFFCURVE",
"344 283 CURVE",
"332 246 OFFCURVE",
"332 211 OFFCURVE",
"323 174 CURVE",
"316 158 OFFCURVE",
"307 149 OFFCURVE",
"302 137 CURVE",
"302 128 OFFCURVE",
"302 123 OFFCURVE",
"298 112 CURVE",
"298 103 OFFCURVE",
"291 98 OFFCURVE",
"286 86 CURVE",
"286 82 OFFCURVE",
"281 77 OFFCURVE",
"281 70 CURVE",
"286 36 OFFCURVE",
"251 10 OFFCURVE",
"214 15 CURVE",
"210 19 OFFCURVE",
"198 15 OFFCURVE",
"194 15 CURVE",
"173 3 OFFCURVE",
"152 3 OFFCURVE",
"131 15 CURVE",
"117 24 OFFCURVE",
"106 31 OFFCURVE",
"90 36 CURVE",
"69 40 OFFCURVE",
"69 56 OFFCURVE",
"64 77 CURVE",
"60 86 OFFCURVE",
"55 98 OFFCURVE",
"43 107 CURVE",
"34 123 OFFCURVE",
"34 144 OFFCURVE",
"34 158 CURVE",
"30 204 OFFCURVE",
"30 246 OFFCURVE",
"30 292 CURVE",
"34 318 OFFCURVE",
"39 350 OFFCURVE",
"50 375 CURVE",
"64 421 OFFCURVE",
"85 468 OFFCURVE",
"101 514 CURVE",
"106 518 OFFCURVE",
"106 530 OFFCURVE",
"106 535 CURVE",
"110 539 OFFCURVE",
"110 546 OFFCURVE",
"117 551 CURVE",
"147 576 OFFCURVE",
"168 613 OFFCURVE",
"189 648 CURVE",
"198 664 OFFCURVE",
"203 680 OFFCURVE",
"224 673 CURVE",
"231 673 OFFCURVE",
"240 689 OFFCURVE",
"244 694 CURVE",
"251 694 OFFCURVE",
"261 699 OFFCURVE",
"261 699 CURVE",
"270 694 OFFCURVE",
"270 689 OFFCURVE",
"265 685 CURVE",
"251 664 OFFCURVE",
"235 648 OFFCURVE",
"219 627 CURVE",
"219 627 OFFCURVE",
"214 622 OFFCURVE",
"214 622 CURVE",
"224 606 OFFCURVE",
"214 597 OFFCURVE",
"210 585 CURVE",
"184 539 OFFCURVE",
"164 493 OFFCURVE",
"136 451 CURVE",
"127 433 OFFCURVE",
"127 412 OFFCURVE",
"127 396 CURVE",
"122 375 OFFCURVE",
"136 380 OFFCURVE",
"147 380 CURVE"
);
},
{
closed = 1;
nodes = (
"117 165 OFFCURVE",
"117 165 OFFCURVE",
"110 165 CURVE",
"110 153 OFFCURVE",
"110 144 OFFCURVE",
"117 133 CURVE",
"117 128 OFFCURVE",
"122 119 OFFCURVE",
"127 112 CURVE",
"131 103 OFFCURVE",
"143 103 OFFCURVE",
"147 91 CURVE",
"157 82 OFFCURVE",
"168 82 OFFCURVE",
"177 91 CURVE",
"184 98 OFFCURVE",
"194 107 OFFCURVE",
"203 112 CURVE",
"219 119 OFFCURVE",
"224 128 OFFCURVE",
"231 144 CURVE",
"244 186 OFFCURVE",
"256 232 OFFCURVE",
"270 278 CURVE",
"270 283 OFFCURVE",
"265 299 OFFCURVE",
"261 308 CURVE",
"261 308 OFFCURVE",
"256 313 OFFCURVE",
"251 313 CURVE",
"231 304 OFFCURVE",
"214 313 OFFCURVE",
"198 318 CURVE",
"173 329 OFFCURVE",
"152 345 OFFCURVE",
"127 329 CURVE",
"122 329 OFFCURVE",
"117 324 OFFCURVE",
"117 318 CURVE",
"117 308 OFFCURVE",
"117 304 OFFCURVE",
"117 299 CURVE",
"117 278 OFFCURVE",
"110 251 OFFCURVE",
"110 232 CURVE",
"110 211 OFFCURVE",
"117 186 OFFCURVE",
"117 165 CURVE"
);
},
{
closed = 1;
nodes = (
"203 91 OFFCURVE",
"203 91 OFFCURVE",
"203 91 CURVE",
"198 91 OFFCURVE",
"194 91 OFFCURVE",
"194 86 CURVE",
"194 86 OFFCURVE",
"194 82 OFFCURVE",
"194 82 CURVE",
"198 77 OFFCURVE",
"210 77 OFFCURVE",
"214 70 CURVE",
"219 70 OFFCURVE",
"224 82 OFFCURVE",
"231 86 CURVE",
"231 86 OFFCURVE",
"224 91 OFFCURVE",
"224 98 CURVE",
"219 98 OFFCURVE",
"219 98 OFFCURVE",
"214 91 CURVE",
"210 91 OFFCURVE",
"210 91 OFFCURVE",
"203 91 CURVE"
);
},
{
closed = 1;
nodes = (
"244 45 OFFCURVE",
"256 56 OFFCURVE",
"265 66 CURVE",
"261 66 OFFCURVE",
"261 70 OFFCURVE",
"261 70 CURVE",
"251 61 OFFCURVE",
"240 52 OFFCURVE",
"235 45 CURVE",
"235 40 OFFCURVE",
"235 40 OFFCURVE",
"235 36 CURVE"
);
}
);
width = 354;
}
);
unicode = 0036;
},
{
glyphname = seven;
lastChange = "2018-02-05 22:25:30 +0000";
layers = (
{
layerId = "7185A08A-2B1C-4BBD-ABBC-D0B58775A973";
paths = (
{
closed = 1;
nodes = (
"156 679 OFFCURVE",
"171 682 OFFCURVE",
"187 683 CURVE",
"200 684 OFFCURVE",
"215 682 OFFCURVE",
"227 680 CURVE",
"242 678 OFFCURVE",
"254 673 OFFCURVE",
"269 683 CURVE",
"276 687 OFFCURVE",
"288 683 OFFCURVE",
"297 679 CURVE",
"298 679 OFFCURVE",
"299 663 OFFCURVE",
"297 661 CURVE",
"277 647 OFFCURVE",
"265 626 OFFCURVE",
"259 602 CURVE",
"248 565 OFFCURVE",
"240 527 OFFCURVE",
"231 490 CURVE",
"224 460 OFFCURVE",
"217 429 OFFCURVE",
"212 400 CURVE",
"201 347 OFFCURVE",
"190 293 OFFCURVE",
"182 238 CURVE",
"177 202 OFFCURVE",
"176 163 OFFCURVE",
"171 125 CURVE",
"168 107 OFFCURVE",
"171 88 OFFCURVE",
"157 72 CURVE",
"152 66 OFFCURVE",
"153 53 OFFCURVE",
"153 43 CURVE",
"153 26 OFFCURVE",
"147 17 OFFCURVE",
"132 12 CURVE",
"118 8 OFFCURVE",
"105 -2 OFFCURVE",
"91 -8 CURVE",
"71 -15 OFFCURVE",
"67 -8 OFFCURVE",
"71 13 CURVE",
"76 29 OFFCURVE",
"82 44 OFFCURVE",
"85 60 CURVE",
"86 67 OFFCURVE",
"81 74 OFFCURVE",
"81 81 CURVE",
"79 89 OFFCURVE",
"76 97 OFFCURVE",
"78 103 CURVE",
"90 146 OFFCURVE",
"101 191 OFFCURVE",
"119 232 CURVE",
"146 294 OFFCURVE",
"151 360 OFFCURVE",
"157 426 CURVE",
"164 493 OFFCURVE",
"175 560 OFFCURVE",
"200 622 CURVE",
"203 627 OFFCURVE",
"202 633 OFFCURVE",
"203 638 CURVE",
"199 638 OFFCURVE",
"195 638 OFFCURVE",
"190 638 CURVE",
"169 637 OFFCURVE",
"148 636 OFFCURVE",
"126 635 CURVE",
"117 634 OFFCURVE",
"107 633 OFFCURVE",
"98 631 CURVE",
"87 629 OFFCURVE",
"71 625 OFFCURVE",
"71 640 CURVE",
"71 652 OFFCURVE",
"82 668 OFFCURVE",
"91 672 CURVE",
"107 679 OFFCURVE",
"125 678 OFFCURVE",
"141 681 CURVE",
"141 679 OFFCURVE",
"141 678 OFFCURVE",
"141 677 CURVE"
);
}
);
width = 328;
}
);
unicode = 0037;
},
{
glyphname = eight;
lastChange = "2018-02-05 22:25:17 +0000";
layers = (
{
layerId = "7185A08A-2B1C-4BBD-ABBC-D0B58775A973";
paths = (
{
closed = 1;
nodes = (
"33 163 OFFCURVE",
"35 202 OFFCURVE",
"41 241 CURVE",
"44 258 OFFCURVE",
"54 275 OFFCURVE",
"63 291 CURVE",
"79 319 OFFCURVE",
"91 350 OFFCURVE",
"113 371 CURVE",
"156 415 OFFCURVE",
"148 470 OFFCURVE",
"155 521 CURVE",
"162 561 OFFCURVE",
"155 606 OFFCURVE",
"180 642 CURVE",
"202 677 OFFCURVE",
"231 707 OFFCURVE",
"258 739 CURVE",
"265 748 OFFCURVE",
"275 750 OFFCURVE",
"282 735 CURVE",
"285 732 OFFCURVE",
"294 728 OFFCURVE",
"300 729 CURVE",
"336 733 OFFCURVE",
"370 723 OFFCURVE",
"404 710 CURVE",
"408 708 OFFCURVE",
"414 710 OFFCURVE",
"420 710 CURVE",
"431 710 OFFCURVE",
"440 708 OFFCURVE",
"435 693 CURVE",
"432 686 OFFCURVE",
"432 680 OFFCURVE",
"433 672 CURVE",
"437 632 OFFCURVE",
"428 597 OFFCURVE",
"403 565 CURVE",
"388 545 OFFCURVE",
"381 519 OFFCURVE",
"370 496 CURVE",
"364 487 OFFCURVE",
"355 478 OFFCURVE",
"346 471 CURVE",
"345 470 OFFCURVE",
"335 475 OFFCURVE",
"334 479 CURVE",
"331 488 OFFCURVE",
"329 489 OFFCURVE",
"322 485 CURVE",
"313 481 OFFCURVE",
"304 478 OFFCURVE",
"294 474 CURVE",
"291 474 OFFCURVE",
"288 471 OFFCURVE",
"285 468 CURVE",
"287 465 OFFCURVE",
"289 461 OFFCURVE",
"293 458 CURVE",
"297 457 OFFCURVE",
"302 457 OFFCURVE",
"305 456 CURVE",
"318 454 OFFCURVE",
"323 449 OFFCURVE",
"322 436 CURVE",
"321 429 OFFCURVE",
"327 422 OFFCURVE",
"329 416 CURVE",
"336 398 OFFCURVE",
"344 381 OFFCURVE",
"346 363 CURVE",
"348 341 OFFCURVE",
"336 317 OFFCURVE",
"342 299 CURVE",
"353 270 OFFCURVE",
"340 250 OFFCURVE",
"334 227 CURVE",
"327 203 OFFCURVE",
"318 180 OFFCURVE",
"309 158 CURVE",
"302 138 OFFCURVE",
"293 119 OFFCURVE",
"287 100 CURVE",
"281 82 OFFCURVE",
"275 77 OFFCURVE",
"257 82 CURVE",
"253 83 OFFCURVE",
"249 81 OFFCURVE",
"247 79 CURVE",
"238 68 OFFCURVE",
"230 58 OFFCURVE",
"223 45 CURVE",
"201 -1 OFFCURVE",
"149 -17 OFFCURVE",
"102 6 CURVE",
"53 29 OFFCURVE",
"34 71 OFFCURVE",
"30 119 CURVE"
);
},
{
closed = 1;
nodes = (
"296 364 OFFCURVE",
"294 402 OFFCURVE",
"256 422 CURVE",
"253 424 OFFCURVE",
"251 425 OFFCURVE",
"248 426 CURVE",
"247 423 OFFCURVE",
"245 420 OFFCURVE",
"245 417 CURVE",
"246 398 OFFCURVE",
"247 379 OFFCURVE",
"248 361 CURVE",
"249 348 OFFCURVE",
"240 342 OFFCURVE",
"228 348 CURVE",
"226 349 OFFCURVE",
"220 345 OFFCURVE",
"219 343 CURVE",
"215 329 OFFCURVE",
"213 314 OFFCURVE",
"208 300 CURVE",
"206 295 OFFCURVE",
"199 292 OFFCURVE",
"194 288 CURVE",
"193 294 OFFCURVE",
"189 300 OFFCURVE",
"190 303 CURVE",
"194 323 OFFCURVE",
"200 343 OFFCURVE",
"204 362 CURVE",
"205 365 OFFCURVE",
"202 369 OFFCURVE",
"201 371 CURVE",
"200 370 OFFCURVE",
"198 368 OFFCURVE",
"197 365 CURVE",
"185 338 OFFCURVE",
"176 312 OFFCURVE",
"165 286 CURVE",
"162 280 OFFCURVE",
"152 276 OFFCURVE",
"147 271 CURVE",
"146 278 OFFCURVE",
"143 285 OFFCURVE",
"145 291 CURVE",
"156 323 OFFCURVE",
"168 355 OFFCURVE",
"181 388 CURVE",
"182 391 OFFCURVE",
"182 396 OFFCURVE",
"182 400 CURVE",
"179 398 OFFCURVE",
"174 397 OFFCURVE",
"172 394 CURVE",
"160 374 OFFCURVE",
"141 358 OFFCURVE",
"139 332 CURVE",
"139 325 OFFCURVE",
"135 319 OFFCURVE",
"133 312 CURVE",
"123 286 OFFCURVE",
"110 261 OFFCURVE",
"101 234 CURVE",
"94 209 OFFCURVE",
"91 181 OFFCURVE",
"83 156 CURVE",
"79 143 OFFCURVE",
"79 131 OFFCURVE",
"83 116 CURVE",
"95 77 OFFCURVE",
"126 61 OFFCURVE",
"161 50 CURVE",
"164 49 OFFCURVE",
"168 49 OFFCURVE",
"170 51 CURVE",
"183 61 OFFCURVE",
"196 70 OFFCURVE",
"205 83 CURVE",
"219 101 OFFCURVE",
"231 123 OFFCURVE",
"244 143 CURVE",
"281 198 OFFCURVE",
"298 260 OFFCURVE",
"297 327 CURVE"
);
},
{
closed = 1;
nodes = (
"287 493 OFFCURVE",
"302 507 OFFCURVE",
"310 523 CURVE",
"326 552 OFFCURVE",
"339 583 OFFCURVE",
"351 615 CURVE",
"357 633 OFFCURVE",
"354 653 OFFCURVE",
"357 672 CURVE",
"358 682 OFFCURVE",
"360 692 OFFCURVE",
"348 697 CURVE",
"347 698 OFFCURVE",
"341 685 OFFCURVE",
"337 680 CURVE",
"335 676 OFFCURVE",
"331 673 OFFCURVE",
"328 670 CURVE",
"325 674 OFFCURVE",
"323 678 OFFCURVE",
"322 682 CURVE",
"319 687 OFFCURVE",
"316 699 OFFCURVE",
"314 698 CURVE",
"302 696 OFFCURVE",
"284 695 OFFCURVE",
"277 686 CURVE",
"259 663 OFFCURVE",
"250 634 OFFCURVE",
"250 604 CURVE",
"250 575 OFFCURVE",
"246 546 OFFCURVE",
"233 520 CURVE",
"231 517 OFFCURVE",
"230 511 OFFCURVE",
"231 510 CURVE",
"241 502 OFFCURVE",
"253 494 OFFCURVE",
"261 489 CURVE"
);
},
{
closed = 1;
nodes = (
"176 535 OFFCURVE",
"175 532 OFFCURVE",
"174 529 CURVE",
"168 511 OFFCURVE",
"177 497 OFFCURVE",
"184 483 CURVE",
"186 479 OFFCURVE",
"191 477 OFFCURVE",
"194 474 CURVE",
"195 479 OFFCURVE",
"198 484 OFFCURVE",
"197 489 CURVE",
"194 502 OFFCURVE",
"189 516 OFFCURVE",
"184 529 CURVE",
"184 533 OFFCURVE",
"182 535 OFFCURVE",
"179 542 CURVE"
);
},
{
closed = 1;
nodes = (
"242 579 OFFCURVE",
"241 582 OFFCURVE",
"240 584 CURVE",
"237 582 OFFCURVE",
"234 581 OFFCURVE",
"233 578 CURVE",
"227 565 OFFCURVE",
"223 552 OFFCURVE",
"218 538 CURVE",
"218 535 OFFCURVE",
"218 532 OFFCURVE",
"219 529 CURVE",
"222 531 OFFCURVE",
"227 531 OFFCURVE",
"228 534 CURVE",
"234 547 OFFCURVE",
"239 561 OFFCURVE",
"245 575 CURVE"
);
}
);
width = 466;
}
);
unicode = 0038;
},
{
glyphname = nine;
lastChange = "2018-02-05 22:25:52 +0000";
layers = (
{
layerId = "7185A08A-2B1C-4BBD-ABBC-D0B58775A973";
paths = (
{
closed = 1;
nodes = (
"181 81 OFFCURVE",
"192 126 OFFCURVE",
"196 168 CURVE",
"203 214 OFFCURVE",
"205 260 OFFCURVE",
"214 305 CURVE",
"222 357 OFFCURVE",
"234 411 OFFCURVE",
"244 465 CURVE",
"245 469 OFFCURVE",
"245 481 OFFCURVE",
"244 483 CURVE",
"236 484 OFFCURVE",
"227 484 OFFCURVE",
"220 481 CURVE",
"212 478 OFFCURVE",
"203 471 OFFCURVE",
"195 465 CURVE",
"178 448 OFFCURVE",
"157 445 OFFCURVE",
"138 459 CURVE",
"129 465 OFFCURVE",
"124 469 OFFCURVE",
"116 476 CURVE",
"97 488 OFFCURVE",
"79 502 OFFCURVE",
"61 515 CURVE",
"39 530 OFFCURVE",
"34 545 OFFCURVE",
"46 568 CURVE",
"57 588 OFFCURVE",
"72 603 OFFCURVE",
"70 627 CURVE",
"70 633 OFFCURVE",
"77 642 OFFCURVE",
"82 647 CURVE",
"106 665 OFFCURVE",
"129 680 OFFCURVE",
"151 695 CURVE",
"154 698 OFFCURVE",
"157 700 OFFCURVE",
"159 702 CURVE",
"166 722 OFFCURVE",
"183 726 OFFCURVE",
"200 722 CURVE",
"234 717 OFFCURVE",
"269 714 OFFCURVE",
"302 703 CURVE",
"322 696 OFFCURVE",
"328 672 OFFCURVE",
"331 651 CURVE",
"333 633 OFFCURVE",
"337 617 OFFCURVE",
"322 603 CURVE",
"322 602 OFFCURVE",
"321 598 OFFCURVE",
"322 596 CURVE",
"334 580 OFFCURVE",
"322 568 OFFCURVE",
"317 553 CURVE",
"304 511 OFFCURVE",
"293 468 OFFCURVE",
"281 426 CURVE",
"280 424 OFFCURVE",
"280 418 OFFCURVE",
"281 417 CURVE",
"303 400 OFFCURVE",
"287 381 OFFCURVE",
"283 365 CURVE",
"275 323 OFFCURVE",
"265 280 OFFCURVE",
"256 238 CURVE",
"245 190 OFFCURVE",
"234 141 OFFCURVE",
"224 91 CURVE",
"218 66 OFFCURVE",
"215 42 OFFCURVE",
"212 18 CURVE",
"211 9 OFFCURVE",
"211 -1 OFFCURVE",
"207 -9 CURVE",
"203 -13 OFFCURVE",
"195 -18 OFFCURVE",
"190 -18 CURVE",
"187 -18 OFFCURVE",
"180 -10 OFFCURVE",
"180 -4 CURVE",
"176 9 OFFCURVE",
"176 24 OFFCURVE",
"175 41 CURVE"
);
},
{
closed = 1;
nodes = (
"154 578 OFFCURVE",
"153 568 OFFCURVE",
"157 560 CURVE",
"166 550 OFFCURVE",
"178 539 OFFCURVE",
"188 530 CURVE",
"192 527 OFFCURVE",
"199 526 OFFCURVE",
"202 526 CURVE",
"220 530 OFFCURVE",
"241 532 OFFCURVE",
"254 542 CURVE",
"288 569 OFFCURVE",
"300 610 OFFCURVE",
"303 653 CURVE",
"303 659 OFFCURVE",
"295 669 OFFCURVE",
"288 675 CURVE",
"271 683 OFFCURVE",
"253 690 OFFCURVE",
"234 696 CURVE",
"226 700 OFFCURVE",
"218 700 OFFCURVE",
"217 686 CURVE",
"215 678 OFFCURVE",
"205 668 OFFCURVE",
"199 668 CURVE",
"175 666 OFFCURVE",
"166 663 OFFCURVE",
"157 639 CURVE",
"154 630 OFFCURVE",
"157 627 OFFCURVE",
"168 629 CURVE",
"169 629 OFFCURVE",
"173 627 OFFCURVE",
"176 627 CURVE",
"175 623 OFFCURVE",
"173 620 OFFCURVE",
"171 618 CURVE",
"161 610 OFFCURVE",
"150 603 OFFCURVE",
"153 587 CURVE"
);
},
{
closed = 1;
nodes = (
"178 480 OFFCURVE",
"175 481 OFFCURVE",
"173 481 CURVE",
"168 480 OFFCURVE",
"165 476 OFFCURVE",
"159 475 CURVE",
"163 472 OFFCURVE",
"166 469 OFFCURVE",
"169 469 CURVE",
"175 469 OFFCURVE",
"178 472 OFFCURVE",
"187 478 CURVE"
);
}
);
width = 373;
}
);
unicode = 0039;
},
{
glyphname = period;
lastChange = "2018-01-13 18:23:18 +0000";
layers = (
{
layerId = "7185A08A-2B1C-4BBD-ABBC-D0B58775A973";
paths = (
{
closed = 1;
nodes = (
"379 15 OFFCURVE",
"379 -10 OFFCURVE",
"330 -10 CURVE",
"322 -10 OFFCURVE",
"314 -19 OFFCURVE",
"314 -27 CURVE",
"298 -43 OFFCURVE",
"281 -36 OFFCURVE",
"273 -19 CURVE",
"265 6 OFFCURVE",
"281 88 OFFCURVE",
"305 103 CURVE",
"314 112 OFFCURVE",
"322 120 OFFCURVE",
"330 112 CURVE",
"346 103 OFFCURVE",
"363 88 OFFCURVE",
"379 71 CURVE",
"379 63 OFFCURVE",
"379 54 OFFCURVE",
"379 47 CURVE"
);
}
);
width = 600;
}
);
unicode = 002E;
},
{
glyphname = exclam;
lastChange = "2018-02-05 22:34:09 +0000";
layers = (
{
layerId = "7185A08A-2B1C-4BBD-ABBC-D0B58775A973";
paths = (
{
closed = 1;
nodes = (
"244 619 OFFCURVE",
"232 545 OFFCURVE",
"226 471 CURVE",
"222 423 OFFCURVE",
"230 375 OFFCURVE",
"226 328 CURVE",
"224 311 OFFCURVE",
"203 296 OFFCURVE",
"191 280 CURVE",
"182 294 OFFCURVE",
"165 307 OFFCURVE",
"164 321 CURVE",
"159 387 OFFCURVE",
"159 453 OFFCURVE",
"157 520 CURVE",
"154 572 OFFCURVE",
"151 625 OFFCURVE",
"147 677 CURVE",
"146 700 OFFCURVE",
"173 740 OFFCURVE",
"192 741 CURVE",
"223 743 OFFCURVE",
"257 717 OFFCURVE",
"253 693 CURVE"
);
},
{
closed = 1;
nodes = (
"182 131 OFFCURVE",
"192 102 OFFCURVE",
"203 74 CURVE",
"213 48 OFFCURVE",
"211 26 OFFCURVE",
"188 9 CURVE",
"170 -5 OFFCURVE",
"153 -9 OFFCURVE",
"132 7 CURVE",
"80 48 OFFCURVE",
"79 46 OFFCURVE",
"113 137 CURVE",
"117 151 OFFCURVE",
"118 167 OFFCURVE",
"126 177 CURVE",
"135 189 OFFCURVE",
"150 197 OFFCURVE",
"163 207 CURVE",
"171 193 OFFCURVE",
"179 180 OFFCURVE",
"186 167 CURVE",
"181 165 OFFCURVE",
"176 162 OFFCURVE",
"171 160 CURVE"
);
}
);
width = 343;
}
);
unicode = 0021;
},
{
glyphname = question;
lastChange = "2018-02-05 22:34:05 +0000";
layers = (
{
layerId = "7185A08A-2B1C-4BBD-ABBC-D0B58775A973";
paths = (
{
closed = 1;
nodes = (
"111 378 OFFCURVE",
"166 429 OFFCURVE",
"196 488 CURVE",
"200 495 OFFCURVE",
"208 500 OFFCURVE",
"213 506 CURVE",
"222 522 OFFCURVE",
"232 538 OFFCURVE",
"239 556 CURVE",
"249 581 OFFCURVE",
"259 608 OFFCURVE",
"265 634 CURVE",
"271 660 OFFCURVE",
"253 669 OFFCURVE",
"231 666 CURVE",
"209 664 OFFCURVE",
"188 654 OFFCURVE",
"166 651 CURVE",
"154 650 OFFCURVE",
"140 657 OFFCURVE",
"127 660 CURVE",
"134 671 OFFCURVE",
"138 688 OFFCURVE",
"148 693 CURVE",
"170 704 OFFCURVE",
"195 712 OFFCURVE",
"219 717 CURVE",
"300 732 OFFCURVE",
"357 673 OFFCURVE",
"335 593 CURVE",
"320 541 OFFCURVE",
"302 485 OFFCURVE",
"270 443 CURVE",
"238 401 OFFCURVE",
"219 358 OFFCURVE",
"203 311 CURVE",
"196 293 OFFCURVE",
"176 279 OFFCURVE",
"159 267 CURVE",
"155 265 OFFCURVE",
"138 283 OFFCURVE",
"127 292 CURVE",
"130 295 OFFCURVE",
"133 297 OFFCURVE",
"136 300 CURVE"
);
},
{
closed = 1;
nodes = (
"217 37 OFFCURVE",
"235 38 OFFCURVE",
"253 34 CURVE",
"261 32 OFFCURVE",
"267 21 OFFCURVE",
"274 14 CURVE",
"267 9 OFFCURVE",
"260 0 OFFCURVE",
"253 -1 CURVE",
"209 -8 OFFCURVE",
"164 -16 OFFCURVE",
"120 -19 CURVE",
"110 -20 OFFCURVE",
"92 -5 OFFCURVE",
"91 3 CURVE",
"87 50 OFFCURVE",
"97 95 OFFCURVE",
"127 133 CURVE",
"131 138 OFFCURVE",
"140 142 OFFCURVE",
"145 141 CURVE",
"151 138 OFFCURVE",
"156 130 OFFCURVE",
"157 124 CURVE",
"160 111 OFFCURVE",
"161 97 OFFCURVE",
"158 85 CURVE",
"151 51 OFFCURVE",
"157 30 OFFCURVE",
"196 39 CURVE"
);
}
);
width = 430;
}
);
unicode = 003F;
},
{
glyphname = hyphen;
lastChange = "2018-02-05 22:34:22 +0000";
layers = (
{
layerId = "7185A08A-2B1C-4BBD-ABBC-D0B58775A973";
paths = (
{
closed = 1;
nodes = (
"265 322 OFFCURVE",
"284 317 OFFCURVE",
"300 313 CURVE",
"286 308 OFFCURVE",
"276 300 OFFCURVE",
"259 291 CURVE",
"212 279 OFFCURVE",
"161 269 OFFCURVE",
"105 284 CURVE",
"94 287 OFFCURVE",
"80 291 OFFCURVE",
"80 295 CURVE",
"80 300 OFFCURVE",
"94 308 OFFCURVE",
"105 308 CURVE",
"151 317 OFFCURVE",
"197 322 OFFCURVE",
"247 326 CURVE"
);
}
);
width = 380;
}
);
unicode = 002D;
},
{
glyphname = endash;
lastChange = "2018-02-05 22:33:57 +0000";
layers = (
{
layerId = "7185A08A-2B1C-4BBD-ABBC-D0B58775A973";
paths = (
{
closed = 1;
nodes = (
"163 273 OFFCURVE",
"128 282 OFFCURVE",
"95 289 CURVE",
"89 289 OFFCURVE",
"80 289 OFFCURVE",
"80 297 CURVE",
"80 303 OFFCURVE",
"89 308 OFFCURVE",
"98 308 CURVE",
"182 333 OFFCURVE",
"267 308 OFFCURVE",
"350 308 CURVE",
"359 308 OFFCURVE",
"366 308 OFFCURVE",
"373 303 CURVE",
"368 303 OFFCURVE",
"364 289 OFFCURVE",
"354 289 CURVE",
"300 289 OFFCURVE",
"250 282 OFFCURVE",
"196 273 CURVE"
);
}
);
width = 453;
}
);
unicode = 2013;
},
{
glyphname = emdash;
lastChange = "2018-02-05 22:33:51 +0000";
layers = (
{
layerId = "7185A08A-2B1C-4BBD-ABBC-D0B58775A973";
paths = (
{
closed = 1;
nodes = (
"201 318 OFFCURVE",
"293 312 OFFCURVE",
"384 307 CURVE",
"406 307 OFFCURVE",
"427 298 OFFCURVE",
"447 292 CURVE",
"448 292 OFFCURVE",
"447 276 OFFCURVE",
"444 276 CURVE",
"412 270 OFFCURVE",
"380 270 OFFCURVE",
"348 265 CURVE",
"313 265 OFFCURVE",
"278 256 OFFCURVE",
"245 250 CURVE",
"187 234 OFFCURVE",
"138 256 OFFCURVE",
"90 270 CURVE",
"79 276 OFFCURVE",
"79 298 OFFCURVE",
"80 312 CURVE",
"80 318 OFFCURVE",
"96 318 OFFCURVE",
"103 329 CURVE"
);
}
);
width = 527;
}
);
unicode = 2014;
},
